Hack-BoldItalic-esperanto.ufo
<glyph name="exclam" format="1">
  <advance width="1233"/>
  <unicode hex="0021"/>
  <note>
	exclam
  </note>
  <outline>
    <contour>
      <point x="763" y="476" type="line"/>
      <point x="922" y="1051" type="line"/>
      <point x="994" y="1508" type="line"/>
      <point x="708" y="1508" type="line"/>
      <point x="637" y="1054" type="line"/>
      <point x="624" y="476" type="line"/>
    </contour>
    <contour>
      <point x="668" y="-65"/>
      <point x="717" y="-45"/>
      <point x="757" y="-4" type="curve" smooth="yes"/>
      <point x="797" y="36"/>
      <point x="817" y="85"/>
      <point x="817" y="140" type="curve" smooth="yes"/>
      <point x="817" y="227"/>
      <point x="761" y="293"/>
      <point x="670" y="293" type="curve" smooth="yes"/>
      <point x="617" y="293"/>
      <point x="551" y="277"/>
      <point x="502" y="206" type="curve" smooth="yes"/>
      <point x="478" y="173"/>
      <point x="465" y="131"/>
      <point x="465" y="90" type="curve" smooth="yes"/>
      <point x="465" y="50"/>
      <point x="476" y="9"/>
      <point x="503" y="-22" type="curve" smooth="yes"/>
      <point x="530" y="-51"/>
      <point x="567" y="-65"/>
      <point x="612" y="-65" type="curve" smooth="yes"/>
    </contour>
  </outline>
</glyph>
<glyph name="dollar" format="1">
  <advance width="1233"/>
  <unicode hex="0024"/>
  <note>
	dollar
  </note>
  <outline>
    <contour>
      <point x="485" y="-301" type="line"/>
      <point x="543" y="0" type="line"/>
      <point x="691" y="11"/>
      <point x="808" y="54"/>
      <point x="897" y="135" type="curve" smooth="yes"/>
      <point x="984" y="214"/>
      <point x="1028" y="314"/>
      <point x="1028" y="435" type="curve" smooth="yes"/>
      <point x="1028" y="527"/>
      <point x="1002" y="596"/>
      <point x="947" y="652" type="curve" smooth="yes"/>
      <point x="893" y="708"/>
      <point x="809" y="751"/>
      <point x="694" y="782" type="curve"/>
      <point x="758" y="1100" type="line"/>
      <point x="866" y="1095"/>
      <point x="965" y="1063"/>
      <point x="1042" y="1012" type="curve"/>
      <point x="1092" y="1262" type="line"/>
      <point x="1003" y="1294"/>
      <point x="895" y="1312"/>
      <point x="799" y="1319" type="curve"/>
      <point x="846" y="1556" type="line"/>
      <point x="705" y="1556" type="line"/>
      <point x="657" y="1319" type="line"/>
      <point x="522" y="1314"/>
      <point x="412" y="1272"/>
      <point x="327" y="1193" type="curve" smooth="yes"/>
      <point x="242" y="1113"/>
      <point x="199" y="1013"/>
      <point x="199" y="900" type="curve" smooth="yes"/>
      <point x="199" y="813"/>
      <point x="224" y="748"/>
      <point x="277" y="691" type="curve" smooth="yes"/>
      <point x="329" y="636"/>
      <point x="403" y="597"/>
      <point x="512" y="569" type="curve"/>
      <point x="444" y="223" type="line"/>
      <point x="329" y="228"/>
      <point x="205" y="275"/>
      <point x="90" y="354" type="curve"/>
      <point x="39" y="92" type="line"/>
      <point x="115" y="59"/>
      <point x="163" y="41"/>
      <point x="226" y="25" type="curve" smooth="yes"/>
      <point x="289" y="9"/>
      <point x="347" y="1"/>
      <point x="401" y="0" type="curve"/>
      <point x="344" y="-301" type="line"/>
    </contour>
    <contour>
      <point x="561" y="821" type="line"/>
      <point x="528" y="829"/>
      <point x="502" y="843"/>
      <point x="485" y="862" type="curve" smooth="yes"/>
      <point x="468" y="882"/>
      <point x="459" y="903"/>
      <point x="459" y="935" type="curve" smooth="yes"/>
      <point x="459" y="1020"/>
      <point x="518" y="1087"/>
      <point x="614" y="1099" type="curve"/>
    </contour>
    <contour>
      <point x="647" y="532" type="line"/>
      <point x="732" y="509"/>
      <point x="768" y="470"/>
      <point x="768" y="401" type="curve" smooth="yes"/>
      <point x="768" y="354"/>
      <point x="751" y="318"/>
      <point x="719" y="286" type="curve" smooth="yes"/>
      <point x="687" y="254"/>
      <point x="643" y="234"/>
      <point x="588" y="227" type="curve"/>
    </contour>
  </outline>
</glyph>
<glyph name="percent" format="1">
  <advance width="1233"/>
  <unicode hex="0025"/>
  <note>
	percent
  </note>
  <outline>
    <contour>
      <point x="446" y="778"/>
      <point x="535" y="813"/>
      <point x="599" y="873" type="curve" smooth="yes"/>
      <point x="666" y="936"/>
      <point x="700" y="1013"/>
      <point x="700" y="1103" type="curve" smooth="yes"/>
      <point x="700" y="1148"/>
      <point x="691" y="1191"/>
      <point x="673" y="1231" type="curve"/>
      <point x="664" y="1254"/>
      <point x="653" y="1273"/>
      <point x="640" y="1289" type="curve"/>
      <point x="613" y="1325"/>
      <point x="582" y="1354"/>
      <point x="545" y="1377" type="curve"/>
      <point x="538" y="1381"/>
      <point x="534" y="1384"/>
      <point x="532" y="1386" type="curve"/>
      <point x="520" y="1392" type="line"/>
      <point x="484" y="1407" type="line"/>
      <point x="476" y="1411" type="line"/>
      <point x="464" y="1415"/>
      <point x="445" y="1420"/>
      <point x="433" y="1423" type="curve" smooth="yes"/>
      <point x="419" y="1426" type="line"/>
      <point x="402" y="1429" type="line"/>
      <point x="385" y="1431" type="line"/>
      <point x="382" y="1432"/>
      <point x="377" y="1432"/>
      <point x="370" y="1432" type="curve" smooth="yes"/>
      <point x="360" y="1432" type="line" smooth="yes"/>
      <point x="257" y="1432"/>
      <point x="173" y="1401"/>
      <point x="109" y="1339" type="curve" smooth="yes"/>
      <point x="48" y="1279"/>
      <point x="13" y="1197"/>
      <point x="13" y="1105" type="curve" smooth="yes"/>
      <point x="13" y="1012"/>
      <point x="50" y="930"/>
      <point x="109" y="871" type="curve" smooth="yes"/>
      <point x="174" y="808"/>
      <point x="261" y="778"/>
      <point x="353" y="778" type="curve" smooth="yes"/>
    </contour>
    <contour>
      <point x="300" y="943"/>
      <point x="254" y="961"/>
      <point x="225" y="989" type="curve" smooth="yes"/>
      <point x="194" y="1020"/>
      <point x="178" y="1059"/>
      <point x="178" y="1104" type="curve" smooth="yes"/>
      <point x="178" y="1148"/>
      <point x="194" y="1189"/>
      <point x="226" y="1220" type="curve" smooth="yes"/>
      <point x="257" y="1251"/>
      <point x="303" y="1266"/>
      <point x="351" y="1266" type="curve" smooth="yes"/>
      <point x="448" y="1266"/>
      <point x="528" y="1196"/>
      <point x="528" y="1103" type="curve" smooth="yes"/>
      <point x="528" y="1060"/>
      <point x="511" y="1022"/>
      <point x="476" y="990" type="curve" smooth="yes"/>
      <point x="439" y="957"/>
      <point x="399" y="943"/>
      <point x="351" y="943" type="curve" smooth="yes"/>
    </contour>
    <contour>
      <point x="1232" y="873" type="line"/>
      <point x="1232" y="1018" type="line"/>
      <point x="22" y="570" type="line"/>
      <point x="22" y="431" type="line"/>
    </contour>
    <contour>
      <point x="998" y="0"/>
      <point x="1084" y="36"/>
      <point x="1144" y="95" type="curve" smooth="yes"/>
      <point x="1207" y="155"/>
      <point x="1240" y="238"/>
      <point x="1240" y="325" type="curve" smooth="yes"/>
      <point x="1240" y="374"/>
      <point x="1229" y="420"/>
      <point x="1214" y="451" type="curve" smooth="yes"/>
      <point x="1209" y="462" type="line"/>
      <point x="1203" y="474" type="line"/>
      <point x="1189" y="496" type="line"/>
      <point x="1183" y="506" type="line"/>
      <point x="1182" y="508" type="line"/>
      <point x="1181" y="509" type="line"/>
      <point x="1175" y="518" type="line"/>
      <point x="1170" y="523"/>
      <point x="1162" y="533"/>
      <point x="1159" y="538" type="curve"/>
      <point x="1153" y="545" type="line"/>
      <point x="1140" y="558" type="line" smooth="yes"/>
      <point x="1115" y="583"/>
      <point x="1071" y="612"/>
      <point x="1031" y="629" type="curve" smooth="yes"/>
      <point x="993" y="646"/>
      <point x="949" y="654"/>
      <point x="900" y="654" type="curve" smooth="yes"/>
      <point x="804" y="654"/>
      <point x="718" y="621"/>
      <point x="654" y="561" type="curve" smooth="yes"/>
      <point x="590" y="501"/>
      <point x="553" y="420"/>
      <point x="553" y="327" type="curve" smooth="yes"/>
      <point x="553" y="264"/>
      <point x="568" y="209"/>
      <point x="597" y="162" type="curve" smooth="yes"/>
      <point x="626" y="113"/>
      <point x="676" y="60"/>
      <point x="764" y="24" type="curve" smooth="yes"/>
      <point x="806" y="8"/>
      <point x="851" y="0"/>
      <point x="898" y="0" type="curve" smooth="yes"/>
    </contour>
    <contour>
      <point x="851" y="165"/>
      <point x="806" y="183"/>
      <point x="775" y="211" type="curve" smooth="yes"/>
      <point x="754" y="230"/>
      <point x="739" y="253"/>
      <point x="731" y="284" type="curve" smooth="yes"/>
      <point x="727" y="299"/>
      <point x="725" y="313"/>
      <point x="725" y="326" type="curve" smooth="yes"/>
      <point x="725" y="419"/>
      <point x="799" y="489"/>
      <point x="899" y="489" type="curve" smooth="yes"/>
      <point x="952" y="489"/>
      <point x="995" y="471"/>
      <point x="1024" y="442" type="curve" smooth="yes"/>
      <point x="1056" y="411"/>
      <point x="1073" y="369"/>
      <point x="1073" y="325" type="curve" smooth="yes"/>
      <point x="1073" y="236"/>
      <point x="999" y="165"/>
      <point x="900" y="165" type="curve" smooth="yes"/>
    </contour>
  </outline>
</glyph>
<glyph name="ampersand" format="1">
  <advance width="1233"/>
  <unicode hex="0026"/>
  <note>
	ampersand
  </note>
  <outline>
    <contour>
      <point x="507" y="-29"/>
      <point x="620" y="3"/>
      <point x="739" y="72" type="curve"/>
      <point x="774" y="0" type="line"/>
      <point x="1090" y="0" type="line"/>
      <point x="975" y="246" type="line"/>
      <point x="1119" y="370"/>
      <point x="1201" y="538"/>
      <point x="1214" y="745" type="curve"/>
      <point x="979" y="745" type="line"/>
      <point x="972" y="618"/>
      <point x="941" y="517"/>
      <point x="885" y="440" type="curve"/>
      <point x="664" y="920" type="line"/>
      <point x="630" y="998" type="line" smooth="yes"/>
      <point x="601" y="1068"/>
      <point x="586" y="1121"/>
      <point x="586" y="1158" type="curve" smooth="yes"/>
      <point x="586" y="1245"/>
      <point x="646" y="1294"/>
      <point x="769" y="1294" type="curve" smooth="yes"/>
      <point x="857" y="1294"/>
      <point x="944" y="1268"/>
      <point x="1016" y="1221" type="curve"/>
      <point x="1065" y="1477" type="line"/>
      <point x="973" y="1506"/>
      <point x="885" y="1520"/>
      <point x="794" y="1520" type="curve" smooth="yes"/>
      <point x="645" y="1520"/>
      <point x="520" y="1483"/>
      <point x="432" y="1411" type="curve" smooth="yes"/>
      <point x="344" y="1339"/>
      <point x="299" y="1237"/>
      <point x="299" y="1118" type="curve" smooth="yes"/>
      <point x="299" y="1058"/>
      <point x="318" y="982"/>
      <point x="350" y="913" type="curve"/>
      <point x="225" y="842"/>
      <point x="134" y="763"/>
      <point x="66" y="666" type="curve" smooth="yes"/>
      <point x="0" y="571"/>
      <point x="-33" y="470"/>
      <point x="-33" y="362" type="curve" smooth="yes"/>
      <point x="-33" y="247"/>
      <point x="3" y="148"/>
      <point x="80" y="77" type="curve" smooth="yes"/>
      <point x="156" y="6"/>
      <point x="262" y="-29"/>
      <point x="387" y="-29" type="curve" smooth="yes"/>
    </contour>
    <contour>
      <point x="349" y="207"/>
      <point x="252" y="303"/>
      <point x="252" y="440" type="curve" smooth="yes"/>
      <point x="252" y="560"/>
      <point x="316" y="662"/>
      <point x="436" y="731" type="curve"/>
      <point x="653" y="262" type="line"/>
      <point x="593" y="225"/>
      <point x="528" y="207"/>
      <point x="473" y="207" type="curve" smooth="yes"/>
    </contour>
  </outline>
</glyph>
<glyph name="parenleft" format="1">
  <advance width="1233"/>
  <unicode hex="0028"/>
  <note>
	parenleft
  </note>
  <outline>
    <contour>
      <point x="665" y="-270" type="line"/>
      <point x="590" y="-53"/>
      <point x="552" y="154"/>
      <point x="552" y="346" type="curve" smooth="yes"/>
      <point x="552" y="737"/>
      <point x="707" y="1134"/>
      <point x="1019" y="1554" type="curve"/>
      <point x="794" y="1554" type="line"/>
      <point x="618" y="1355"/>
      <point x="496" y="1170"/>
      <point x="408" y="974" type="curve" smooth="yes"/>
      <point x="320" y="778"/>
      <point x="278" y="590"/>
      <point x="278" y="393" type="curve" smooth="yes"/>
      <point x="278" y="173"/>
      <point x="331" y="-41"/>
      <point x="440" y="-270" type="curve"/>
    </contour>
  </outline>
</glyph>
<glyph name="parenright" format="1">
  <advance width="1233"/>
  <unicode hex="0029"/>
  <note>
	parenright
  </note>
  <outline>
    <contour>
      <point x="468" y="-270" type="line"/>
      <point x="816" y="125"/>
      <point x="984" y="501"/>
      <point x="984" y="892" type="curve" smooth="yes"/>
      <point x="984" y="1108"/>
      <point x="929" y="1330"/>
      <point x="822" y="1554" type="curve"/>
      <point x="597" y="1554" type="line"/>
      <point x="673" y="1329"/>
      <point x="710" y="1130"/>
      <point x="710" y="939" type="curve" smooth="yes"/>
      <point x="710" y="548"/>
      <point x="555" y="149"/>
      <point x="243" y="-270" type="curve"/>
    </contour>
  </outline>
</glyph>
<glyph name="asterisk" format="1">
  <advance width="1233"/>
  <unicode hex="002A"/>
  <note>
	asterisk
  </note>
  <outline>
    <contour>
      <point x="614" y="736" type="line"/>
      <point x="881" y="383" type="line"/>
      <point x="998" y="467" type="line"/>
      <point x="758" y="835" type="line"/>
      <point x="1119" y="992" type="line"/>
      <point x="1073" y="1122" type="line"/>
      <point x="702" y="1000" type="line"/>
      <point x="682" y="1420" type="line"/>
      <point x="546" y="1420" type="line"/>
      <point x="526" y="1000" type="line"/>
      <point x="155" y="1122" type="line"/>
      <point x="109" y="992" type="line"/>
      <point x="470" y="835" type="line"/>
      <point x="230" y="467" type="line"/>
      <point x="347" y="383" type="line"/>
    </contour>
  </outline>
</glyph>
<glyph name="period" format="1">
  <advance width="1233"/>
  <unicode hex="002E"/>
  <note>
	period
  </note>
  <outline>
    <contour>
      <point x="679" y="-42"/>
      <point x="736" y="-9"/>
      <point x="767" y="47" type="curve" smooth="yes"/>
      <point x="782" y="74"/>
      <point x="790" y="106"/>
      <point x="790" y="141" type="curve" smooth="yes"/>
      <point x="790" y="213"/>
      <point x="757" y="272"/>
      <point x="703" y="303" type="curve" smooth="yes"/>
      <point x="676" y="318"/>
      <point x="645" y="326"/>
      <point x="612" y="326" type="curve" smooth="yes"/>
      <point x="547" y="326"/>
      <point x="491" y="292"/>
      <point x="460" y="237" type="curve" smooth="yes"/>
      <point x="444" y="209"/>
      <point x="436" y="178"/>
      <point x="436" y="143" type="curve" smooth="yes"/>
      <point x="436" y="32"/>
      <point x="513" y="-42"/>
      <point x="614" y="-42" type="curve" smooth="yes"/>
    </contour>
  </outline>
</glyph>
<glyph name="zero" format="1">
  <advance width="1233"/>
  <unicode hex="0030"/>
  <note>
	zero
  </note>
  <outline>
    <contour>
      <point x="611" y="-29"/>
      <point x="704" y="-6"/>
      <point x="785" y="40" type="curve" smooth="yes"/>
      <point x="868" y="85"/>
      <point x="935" y="154"/>
      <point x="994" y="250" type="curve" smooth="yes"/>
      <point x="1050" y="341"/>
      <point x="1102" y="470"/>
      <point x="1138" y="606" type="curve" smooth="yes"/>
      <point x="1175" y="747"/>
      <point x="1195" y="895"/>
      <point x="1195" y="1023" type="curve" smooth="yes"/>
      <point x="1195" y="1188"/>
      <point x="1162" y="1311"/>
      <point x="1096" y="1394" type="curve" smooth="yes"/>
      <point x="1031" y="1477"/>
      <point x="931" y="1520"/>
      <point x="786" y="1520" type="curve" smooth="yes"/>
      <point x="578" y="1520"/>
      <point x="448" y="1432"/>
      <point x="361" y="1329" type="curve"/>
      <point x="340" y="1306"/>
      <point x="320" y="1278"/>
      <point x="299" y="1243" type="curve" smooth="yes"/>
      <point x="240" y="1147"/>
      <point x="192" y="1028"/>
      <point x="155" y="886" type="curve" smooth="yes"/>
      <point x="119" y="751"/>
      <point x="98" y="598"/>
      <point x="98" y="477" type="curve" smooth="yes"/>
      <point x="98" y="302"/>
      <point x="130" y="182"/>
      <point x="195" y="98" type="curve" smooth="yes"/>
      <point x="263" y="13"/>
      <point x="361" y="-29"/>
      <point x="504" y="-29" type="curve" smooth="yes"/>
    </contour>
    <contour>
      <point x="462" y="165"/>
      <point x="412" y="185"/>
      <point x="379" y="226" type="curve" smooth="yes"/>
      <point x="344" y="269"/>
      <point x="329" y="332"/>
      <point x="329" y="433" type="curve" smooth="yes"/>
      <point x="329" y="537"/>
      <point x="345" y="675"/>
      <point x="376" y="807" type="curve" smooth="yes"/>
      <point x="405" y="934"/>
      <point x="449" y="1057"/>
      <point x="497" y="1142" type="curve" smooth="yes"/>
      <point x="564" y="1263"/>
      <point x="653" y="1326"/>
      <point x="766" y="1326" type="curve" smooth="yes"/>
      <point x="838" y="1326"/>
      <point x="883" y="1305"/>
      <point x="914" y="1264" type="curve" smooth="yes"/>
      <point x="931" y="1241"/>
      <point x="934" y="1234"/>
      <point x="940" y="1217" type="curve" smooth="yes"/>
      <point x="943" y="1208"/>
      <point x="944" y="1203"/>
      <point x="945" y="1201" type="curve"/>
      <point x="954" y="1169"/>
      <point x="957" y="1148"/>
      <point x="960" y="1111" type="curve" smooth="yes"/>
      <point x="961" y="1090"/>
      <point x="962" y="1070"/>
      <point x="962" y="1051" type="curve" smooth="yes"/>
      <point x="962" y="988"/>
      <point x="957" y="909"/>
      <point x="941" y="816" type="curve"/>
      <point x="938" y="803"/>
      <point x="937" y="793"/>
      <point x="936" y="787" type="curve"/>
      <point x="923" y="725" type="line"/>
      <point x="914" y="685" type="line" smooth="yes"/>
      <point x="904" y="640"/>
      <point x="896" y="608"/>
      <point x="889" y="589" type="curve"/>
      <point x="882" y="567" type="line"/>
      <point x="876" y="547" type="line" smooth="yes"/>
      <point x="874" y="540"/>
      <point x="872" y="533"/>
      <point x="869" y="527" type="curve"/>
      <point x="860" y="502" type="line" smooth="yes"/>
      <point x="836" y="437"/>
      <point x="818" y="396"/>
      <point x="794" y="351" type="curve" smooth="yes"/>
      <point x="763" y="291"/>
      <point x="721" y="241"/>
      <point x="678" y="212" type="curve" smooth="yes"/>
      <point x="637" y="183"/>
      <point x="584" y="165"/>
      <point x="529" y="165" type="curve" smooth="yes"/>
    </contour>
    <contour>
      <point x="575" y="410" type="line" smooth="yes"/>
      <point x="584" y="410"/>
      <point x="594" y="413"/>
      <point x="603" y="418" type="curve"/>
      <point x="636" y="438"/>
      <point x="672" y="515"/>
      <point x="701" y="598" type="curve" smooth="yes"/>
      <point x="702" y="601"/>
      <point x="703" y="605"/>
      <point x="704" y="608" type="curve" smooth="yes"/>
      <point x="705" y="611"/>
      <point x="707" y="615"/>
      <point x="708" y="620" type="curve"/>
      <point x="735" y="697"/>
      <point x="748" y="747"/>
      <point x="753" y="779" type="curve"/>
      <point x="762" y="825" type="line"/>
      <point x="769" y="872"/>
      <point x="773" y="906"/>
      <point x="774" y="927" type="curve"/>
      <point x="774" y="941" type="line" smooth="yes"/>
      <point x="774" y="947"/>
      <point x="774" y="951"/>
      <point x="775" y="953" type="curve"/>
      <point x="775" y="954" type="line"/>
      <point x="778" y="1029"/>
      <point x="762" y="1072"/>
      <point x="727" y="1082" type="curve"/>
      <point x="721" y="1084" type="line"/>
      <point x="716" y="1084" type="line" smooth="yes"/>
      <point x="687" y="1084"/>
      <point x="642" y="1033"/>
      <point x="617" y="974" type="curve"/>
      <point x="606" y="951"/>
      <point x="597" y="928"/>
      <point x="589" y="905" type="curve" smooth="yes"/>
      <point x="571" y="848" type="line"/>
      <point x="571" y="846" type="line"/>
      <point x="571" y="846"/>
      <point x="570" y="844"/>
      <point x="569" y="841" type="curve"/>
      <point x="567" y="834"/>
      <point x="566" y="830"/>
      <point x="565" y="828" type="curve"/>
      <point x="558" y="804" type="line" smooth="yes"/>
      <point x="551" y="777"/>
      <point x="546" y="751"/>
      <point x="545" y="743" type="curve"/>
      <point x="543" y="736"/>
      <point x="542" y="728"/>
      <point x="541" y="720" type="curve" smooth="yes"/>
      <point x="540" y="712"/>
      <point x="539" y="706"/>
      <point x="538" y="703" type="curve"/>
      <point x="533" y="674"/>
      <point x="531" y="656"/>
      <point x="530" y="648" type="curve"/>
      <point x="529" y="634"/>
      <point x="527" y="616"/>
      <point x="524" y="595" type="curve" smooth="yes"/>
      <point x="523" y="586" type="line"/>
      <point x="523" y="581" type="line"/>
      <point x="523" y="568" type="line"/>
      <point x="522" y="561"/>
      <point x="521" y="557"/>
      <point x="521" y="555" type="curve" smooth="yes"/>
      <point x="521" y="543" type="line"/>
      <point x="518" y="466"/>
      <point x="532" y="422"/>
      <point x="565" y="412" type="curve"/>
      <point x="569" y="412" type="line"/>
      <point x="571" y="411" type="line"/>
      <point x="571" y="410"/>
      <point x="571" y="410"/>
      <point x="572" y="410" type="curve" smooth="yes"/>
    </contour>
  </outline>
</glyph>
<glyph name="two" format="1">
  <advance width="1233"/>
  <unicode hex="0032"/>
  <note>
	two
  </note>
  <outline>
    <contour>
      <point x="920" y="0" type="line"/>
      <point x="971" y="260" type="line"/>
      <point x="324" y="260" type="line"/>
      <point x="641" y="508" type="line"/>
      <point x="681" y="542" type="line" smooth="yes"/>
      <point x="985" y="799"/>
      <point x="1135" y="1011"/>
      <point x="1135" y="1186" type="curve" smooth="yes"/>
      <point x="1135" y="1281"/>
      <point x="1090" y="1366"/>
      <point x="1014" y="1426" type="curve" smooth="yes"/>
      <point x="935" y="1489"/>
      <point x="830" y="1520"/>
      <point x="697" y="1520" type="curve" smooth="yes"/>
      <point x="558" y="1520"/>
      <point x="423" y="1493"/>
      <point x="276" y="1438" type="curve"/>
      <point x="225" y="1171" type="line"/>
      <point x="389" y="1251"/>
      <point x="523" y="1288"/>
      <point x="635" y="1288" type="curve" smooth="yes"/>
      <point x="700" y="1288"/>
      <point x="751" y="1275"/>
      <point x="788" y="1248" type="curve" smooth="yes"/>
      <point x="824" y="1221"/>
      <point x="844" y="1182"/>
      <point x="844" y="1138" type="curve" smooth="yes"/>
      <point x="844" y="1085"/>
      <point x="813" y="1020"/>
      <point x="752" y="941" type="curve" smooth="yes"/>
      <point x="687" y="860"/>
      <point x="584" y="755"/>
      <point x="442" y="628" type="curve" smooth="yes"/>
      <point x="405" y="595" type="line" smooth="yes"/>
      <point x="385" y="577"/>
      <point x="375" y="568"/>
      <point x="376" y="569" type="curve"/>
      <point x="343" y="541" type="line"/>
      <point x="297" y="500" type="line"/>
      <point x="46" y="275" type="line" smooth="yes"/>
      <point x="27" y="258"/>
      <point x="18" y="243"/>
      <point x="13" y="218" type="curve" smooth="yes"/>
      <point x="-29" y="0" type="line"/>
    </contour>
  </outline>
</glyph>
<glyph name="three" format="1">
  <advance width="1233"/>
  <unicode hex="0033"/>
  <note>
	three
  </note>
  <outline>
    <contour>
      <point x="612" y="-29"/>
      <point x="760" y="16"/>
      <point x="867" y="106" type="curve" smooth="yes"/>
      <point x="975" y="197"/>
      <point x="1030" y="322"/>
      <point x="1030" y="470" type="curve" smooth="yes"/>
      <point x="1030" y="562"/>
      <point x="1008" y="630"/>
      <point x="964" y="687" type="curve" smooth="yes"/>
      <point x="921" y="742"/>
      <point x="855" y="781"/>
      <point x="764" y="805" type="curve"/>
      <point x="991" y="845"/>
      <point x="1120" y="984"/>
      <point x="1120" y="1164" type="curve" smooth="yes"/>
      <point x="1120" y="1269"/>
      <point x="1079" y="1360"/>
      <point x="998" y="1424" type="curve" smooth="yes"/>
      <point x="919" y="1485"/>
      <point x="806" y="1520"/>
      <point x="667" y="1520" type="curve" smooth="yes"/>
      <point x="550" y="1520"/>
      <point x="406" y="1495"/>
      <point x="285" y="1456" type="curve"/>
      <point x="231" y="1188" type="line"/>
      <point x="276" y="1204"/>
      <point x="311" y="1216"/>
      <point x="338" y="1223" type="curve" smooth="yes"/>
      <point x="446" y="1254"/>
      <point x="541" y="1270"/>
      <point x="622" y="1270" type="curve" smooth="yes"/>
      <point x="702" y="1270"/>
      <point x="762" y="1256"/>
      <point x="809" y="1216" type="curve" smooth="yes"/>
      <point x="832" y="1196"/>
      <point x="844" y="1165"/>
      <point x="844" y="1124" type="curve" smooth="yes"/>
      <point x="844" y="1069"/>
      <point x="818" y="1022"/>
      <point x="767" y="984" type="curve" smooth="yes"/>
      <point x="714" y="947"/>
      <point x="646" y="928"/>
      <point x="565" y="928" type="curve" smooth="yes"/>
      <point x="408" y="928" type="line"/>
      <point x="356" y="668" type="line"/>
      <point x="514" y="668" type="line" smooth="yes"/>
      <point x="583" y="668"/>
      <point x="643" y="652"/>
      <point x="686" y="620" type="curve" smooth="yes"/>
      <point x="729" y="588"/>
      <point x="750" y="540"/>
      <point x="750" y="477" type="curve" smooth="yes"/>
      <point x="750" y="398"/>
      <point x="721" y="334"/>
      <point x="669" y="290" type="curve" smooth="yes"/>
      <point x="616" y="245"/>
      <point x="542" y="221"/>
      <point x="430" y="221" type="curve" smooth="yes"/>
      <point x="293" y="221"/>
      <point x="152" y="254"/>
      <point x="23" y="315" type="curve"/>
      <point x="-31" y="45" type="line"/>
      <point x="124" y="1"/>
      <point x="288" y="-29"/>
      <point x="421" y="-29" type="curve" smooth="yes"/>
    </contour>
  </outline>
</glyph>
<glyph name="five" format="1">
  <advance width="1233"/>
  <unicode hex="0035"/>
  <note>
	five
  </note>
  <outline>
    <contour>
      <point x="594" y="-29"/>
      <point x="756" y="23"/>
      <point x="873" y="127" type="curve" smooth="yes"/>
      <point x="990" y="230"/>
      <point x="1051" y="374"/>
      <point x="1051" y="545" type="curve" smooth="yes"/>
      <point x="1051" y="682"/>
      <point x="1013" y="788"/>
      <point x="936" y="865" type="curve" smooth="yes"/>
      <point x="861" y="940"/>
      <point x="753" y="981"/>
      <point x="622" y="981" type="curve" smooth="yes"/>
      <point x="564" y="981"/>
      <point x="515" y="973"/>
      <point x="475" y="956" type="curve"/>
      <point x="528" y="1233" type="line"/>
      <point x="1100" y="1233" type="line"/>
      <point x="1151" y="1493" type="line"/>
      <point x="340" y="1493" type="line"/>
      <point x="178" y="659" type="line"/>
      <point x="285" y="710"/>
      <point x="399" y="737"/>
      <point x="498" y="737" type="curve" smooth="yes"/>
      <point x="663" y="737"/>
      <point x="764" y="653"/>
      <point x="764" y="509" type="curve" smooth="yes"/>
      <point x="764" y="332"/>
      <point x="624" y="219"/>
      <point x="391" y="219" type="curve" smooth="yes"/>
      <point x="260" y="219"/>
      <point x="148" y="248"/>
      <point x="57" y="301" type="curve"/>
      <point x="6" y="35" type="line"/>
      <point x="134" y="-8"/>
      <point x="258" y="-29"/>
      <point x="387" y="-29" type="curve" smooth="yes"/>
    </contour>
  </outline>
</glyph>
<glyph name="six" format="1">
  <advance width="1233"/>
  <unicode hex="0036"/>
  <note>
	six
  </note>
  <outline>
    <contour>
      <point x="711" y="-33"/>
      <point x="835" y="24"/>
      <point x="938" y="139" type="curve" smooth="yes"/>
      <point x="1041" y="255"/>
      <point x="1092" y="397"/>
      <point x="1092" y="565" type="curve" smooth="yes"/>
      <point x="1092" y="702"/>
      <point x="1060" y="801"/>
      <point x="995" y="874" type="curve" smooth="yes"/>
      <point x="930" y="948"/>
      <point x="843" y="985"/>
      <point x="732" y="985" type="curve" smooth="yes"/>
      <point x="611" y="985"/>
      <point x="511" y="941"/>
      <point x="430" y="854" type="curve"/>
      <point x="494" y="1138"/>
      <point x="638" y="1280"/>
      <point x="846" y="1280" type="curve" smooth="yes"/>
      <point x="893" y="1280"/>
      <point x="940" y="1272"/>
      <point x="988" y="1257" type="curve" smooth="yes"/>
      <point x="1036" y="1241"/>
      <point x="1070" y="1223"/>
      <point x="1118" y="1190" type="curve"/>
      <point x="1169" y="1458" type="line"/>
      <point x="1069" y="1497"/>
      <point x="986" y="1518"/>
      <point x="881" y="1518" type="curve" smooth="yes"/>
      <point x="763" y="1518"/>
      <point x="657" y="1496"/>
      <point x="563" y="1451" type="curve" smooth="yes"/>
      <point x="467" y="1406"/>
      <point x="394" y="1339"/>
      <point x="326" y="1247" type="curve" smooth="yes"/>
      <point x="181" y="1048"/>
      <point x="96" y="751"/>
      <point x="96" y="480" type="curve" smooth="yes"/>
      <point x="96" y="299"/>
      <point x="133" y="178"/>
      <point x="210" y="93" type="curve" smooth="yes"/>
      <point x="287" y="9"/>
      <point x="399" y="-33"/>
      <point x="544" y="-33" type="curve" smooth="yes"/>
    </contour>
    <contour>
      <point x="500" y="207"/>
      <point x="459" y="225"/>
      <point x="428" y="260" type="curve" smooth="yes"/>
      <point x="397" y="295"/>
      <point x="383" y="341"/>
      <point x="383" y="408" type="curve" smooth="yes"/>
      <point x="383" y="493"/>
      <point x="409" y="581"/>
      <point x="456" y="648" type="curve" smooth="yes"/>
      <point x="501" y="711"/>
      <point x="564" y="748"/>
      <point x="636" y="748" type="curve" smooth="yes"/>
      <point x="687" y="748"/>
      <point x="727" y="731"/>
      <point x="758" y="697" type="curve" smooth="yes"/>
      <point x="790" y="661"/>
      <point x="803" y="615"/>
      <point x="803" y="550" type="curve" smooth="yes"/>
      <point x="803" y="458"/>
      <point x="777" y="370"/>
      <point x="730" y="306" type="curve" smooth="yes"/>
      <point x="683" y="242"/>
      <point x="620" y="207"/>
      <point x="551" y="207" type="curve" smooth="yes"/>
    </contour>
  </outline>
</glyph>
<glyph name="eight" format="1">
  <advance width="1233"/>
  <unicode hex="0038"/>
  <note>
	eight
  </note>
  <outline>
    <contour>
      <point x="666" y="-29"/>
      <point x="797" y="20"/>
      <point x="892" y="107" type="curve" smooth="yes"/>
      <point x="991" y="198"/>
      <point x="1040" y="320"/>
      <point x="1040" y="461" type="curve" smooth="yes"/>
      <point x="1040" y="550"/>
      <point x="1020" y="616"/>
      <point x="979" y="673" type="curve" smooth="yes"/>
      <point x="939" y="729"/>
      <point x="882" y="767"/>
      <point x="809" y="786" type="curve"/>
      <point x="941" y="809"/>
      <point x="1044" y="881"/>
      <point x="1097" y="986" type="curve" smooth="yes"/>
      <point x="1124" y="1039"/>
      <point x="1137" y="1097"/>
      <point x="1137" y="1161" type="curve" smooth="yes"/>
      <point x="1137" y="1378"/>
      <point x="970" y="1520"/>
      <point x="730" y="1520" type="curve" smooth="yes"/>
      <point x="589" y="1520"/>
      <point x="465" y="1474"/>
      <point x="370" y="1391" type="curve" smooth="yes"/>
      <point x="271" y="1304"/>
      <point x="223" y="1195"/>
      <point x="223" y="1075" type="curve" smooth="yes"/>
      <point x="223" y="930"/>
      <point x="294" y="838"/>
      <point x="434" y="799" type="curve"/>
      <point x="205" y="746"/>
      <point x="63" y="576"/>
      <point x="63" y="352" type="curve" smooth="yes"/>
      <point x="63" y="111"/>
      <point x="226" y="-29"/>
      <point x="502" y="-29" type="curve" smooth="yes"/>
    </contour>
    <contour>
      <point x="550" y="903"/>
      <point x="485" y="970"/>
      <point x="485" y="1070" type="curve" smooth="yes"/>
      <point x="485" y="1131"/>
      <point x="508" y="1186"/>
      <point x="548" y="1223" type="curve"/>
      <point x="589" y="1264"/>
      <point x="642" y="1284"/>
      <point x="705" y="1284" type="curve" smooth="yes"/>
      <point x="810" y="1284"/>
      <point x="877" y="1220"/>
      <point x="877" y="1116" type="curve" smooth="yes"/>
      <point x="877" y="1054"/>
      <point x="856" y="1003"/>
      <point x="813" y="963" type="curve" smooth="yes"/>
      <point x="770" y="924"/>
      <point x="713" y="903"/>
      <point x="653" y="903" type="curve" smooth="yes"/>
    </contour>
    <contour>
      <point x="405" y="209"/>
      <point x="326" y="281"/>
      <point x="326" y="405" type="curve" smooth="yes"/>
      <point x="326" y="477"/>
      <point x="350" y="545"/>
      <point x="397" y="593" type="curve" smooth="yes"/>
      <point x="444" y="643"/>
      <point x="505" y="668"/>
      <point x="579" y="668" type="curve" smooth="yes"/>
      <point x="703" y="668"/>
      <point x="778" y="597"/>
      <point x="778" y="474" type="curve" smooth="yes"/>
      <point x="778" y="402"/>
      <point x="753" y="333"/>
      <point x="709" y="285" type="curve" smooth="yes"/>
      <point x="662" y="234"/>
      <point x="602" y="209"/>
      <point x="528" y="209" type="curve" smooth="yes"/>
    </contour>
  </outline>
</glyph>
<glyph name="nine" format="1">
  <advance width="1233"/>
  <unicode hex="0039"/>
  <note>
	nine
  </note>
  <outline>
    <contour>
      <point x="465" y="-31"/>
      <point x="571" y="-9"/>
      <point x="663" y="36" type="curve" smooth="yes"/>
      <point x="759" y="81"/>
      <point x="830" y="142"/>
      <point x="899" y="238" type="curve" smooth="yes"/>
      <point x="1043" y="439"/>
      <point x="1128" y="733"/>
      <point x="1128" y="1008" type="curve" smooth="yes"/>
      <point x="1128" y="1183"/>
      <point x="1090" y="1311"/>
      <point x="1015" y="1394" type="curve" smooth="yes"/>
      <point x="942" y="1475"/>
      <point x="828" y="1520"/>
      <point x="685" y="1520" type="curve" smooth="yes"/>
      <point x="524" y="1520"/>
      <point x="385" y="1462"/>
      <point x="286" y="1350" type="curve" smooth="yes"/>
      <point x="191" y="1243"/>
      <point x="135" y="1088"/>
      <point x="135" y="919" type="curve" smooth="yes"/>
      <point x="135" y="659"/>
      <point x="273" y="502"/>
      <point x="494" y="502" type="curve" smooth="yes"/>
      <point x="615" y="502"/>
      <point x="711" y="545"/>
      <point x="795" y="633" type="curve"/>
      <point x="766" y="506"/>
      <point x="717" y="377"/>
      <point x="604" y="280" type="curve" smooth="yes"/>
      <point x="547" y="231"/>
      <point x="472" y="207"/>
      <point x="379" y="207" type="curve" smooth="yes"/>
      <point x="286" y="207"/>
      <point x="195" y="234"/>
      <point x="106" y="297" type="curve"/>
      <point x="55" y="29" type="line"/>
      <point x="146" y="-8"/>
      <point x="238" y="-31"/>
      <point x="345" y="-31" type="curve" smooth="yes"/>
    </contour>
    <contour>
      <point x="538" y="739"/>
      <point x="498" y="756"/>
      <point x="469" y="790" type="curve" smooth="yes"/>
      <point x="437" y="826"/>
      <point x="424" y="864"/>
      <point x="424" y="935" type="curve" smooth="yes"/>
      <point x="424" y="1024"/>
      <point x="447" y="1126"/>
      <point x="523" y="1214" type="curve" smooth="yes"/>
      <point x="561" y="1258"/>
      <point x="612" y="1280"/>
      <point x="675" y="1280" type="curve" smooth="yes"/>
      <point x="725" y="1280"/>
      <point x="766" y="1262"/>
      <point x="797" y="1227" type="curve" smooth="yes"/>
      <point x="829" y="1191"/>
      <point x="842" y="1143"/>
      <point x="842" y="1078" type="curve" smooth="yes"/>
      <point x="842" y="987"/>
      <point x="817" y="891"/>
      <point x="741" y="804" type="curve" smooth="yes"/>
      <point x="702" y="761"/>
      <point x="652" y="739"/>
      <point x="589" y="739" type="curve" smooth="yes"/>
    </contour>
  </outline>
</glyph>
<glyph name="colon" format="1">
  <advance width="1233"/>
  <unicode hex="003A"/>
  <note>
	colon
  </note>
  <outline>
    <contour>
      <point x="758" y="747"/>
      <point x="782" y="752"/>
      <point x="806" y="761" type="curve" smooth="yes"/>
      <point x="864" y="785"/>
      <point x="904" y="825"/>
      <point x="927" y="882" type="curve" smooth="yes"/>
      <point x="936" y="905"/>
      <point x="941" y="929"/>
      <point x="941" y="954" type="curve" smooth="yes"/>
      <point x="941" y="997"/>
      <point x="930" y="1040"/>
      <point x="903" y="1069" type="curve" smooth="yes"/>
      <point x="874" y="1100"/>
      <point x="836" y="1115"/>
      <point x="788" y="1115" type="curve" smooth="yes"/>
      <point x="741" y="1115"/>
      <point x="666" y="1098"/>
      <point x="617" y="1023" type="curve" smooth="yes"/>
      <point x="593" y="987"/>
      <point x="581" y="947"/>
      <point x="581" y="904" type="curve" smooth="yes"/>
      <point x="581" y="817"/>
      <point x="637" y="747"/>
      <point x="734" y="747" type="curve" smooth="yes"/>
    </contour>
    <contour>
      <point x="644" y="35"/>
      <point x="668" y="40"/>
      <point x="692" y="49" type="curve" smooth="yes"/>
      <point x="750" y="73"/>
      <point x="790" y="113"/>
      <point x="813" y="170" type="curve" smooth="yes"/>
      <point x="822" y="193"/>
      <point x="827" y="217"/>
      <point x="827" y="242" type="curve" smooth="yes"/>
      <point x="827" y="285"/>
      <point x="816" y="328"/>
      <point x="789" y="357" type="curve" smooth="yes"/>
      <point x="760" y="388"/>
      <point x="722" y="403"/>
      <point x="674" y="403" type="curve" smooth="yes"/>
      <point x="627" y="403"/>
      <point x="552" y="386"/>
      <point x="503" y="311" type="curve" smooth="yes"/>
      <point x="479" y="275"/>
      <point x="467" y="235"/>
      <point x="467" y="192" type="curve" smooth="yes"/>
      <point x="467" y="105"/>
      <point x="523" y="35"/>
      <point x="620" y="35" type="curve" smooth="yes"/>
    </contour>
  </outline>
</glyph>
<glyph name="semicolon" format="1">
  <advance width="1233"/>
  <unicode hex="003B"/>
  <note>
	semicolon
  </note>
  <outline>
    <contour>
      <point x="752" y="698"/>
      <point x="777" y="702"/>
      <point x="798" y="711" type="curve"/>
      <point x="827" y="726"/>
      <point x="843" y="734"/>
      <point x="863" y="751" type="curve"/>
      <point x="883" y="770"/>
      <point x="899" y="790"/>
      <point x="911" y="811" type="curve" smooth="yes"/>
      <point x="926" y="836"/>
      <point x="931" y="852"/>
      <point x="939" y="889" type="curve"/>
      <point x="941" y="908" type="line"/>
      <point x="942" y="910"/>
      <point x="942" y="913"/>
      <point x="942" y="916" type="curve" smooth="yes"/>
      <point x="942" y="920" type="line" smooth="yes"/>
      <point x="942" y="964"/>
      <point x="930" y="1001"/>
      <point x="905" y="1031" type="curve" smooth="yes"/>
      <point x="874" y="1066"/>
      <point x="832" y="1084"/>
      <point x="780" y="1084" type="curve" smooth="yes"/>
      <point x="727" y="1084"/>
      <point x="679" y="1064"/>
      <point x="640" y="1030" type="curve" smooth="yes"/>
      <point x="601" y="996"/>
      <point x="578" y="954"/>
      <point x="567" y="895" type="curve"/>
      <point x="565" y="875" type="line"/>
      <point x="564" y="873"/>
      <point x="564" y="871"/>
      <point x="564" y="868" type="curve" smooth="yes"/>
      <point x="564" y="863" type="line" smooth="yes"/>
      <point x="564" y="816"/>
      <point x="575" y="779"/>
      <point x="598" y="751" type="curve"/>
      <point x="629" y="716"/>
      <point x="671" y="698"/>
      <point x="724" y="698" type="curve" smooth="yes"/>
    </contour>
    <contour>
      <point x="376" y="-475" type="line" smooth="yes"/>
      <point x="497" y="-434"/>
      <point x="618" y="-353"/>
      <point x="687" y="-277" type="curve" smooth="yes"/>
      <point x="767" y="-188"/>
      <point x="819" y="-78"/>
      <point x="836" y="42" type="curve" smooth="yes"/>
      <point x="841" y="76"/>
      <point x="843" y="106"/>
      <point x="843" y="132" type="curve" smooth="yes"/>
      <point x="843" y="220"/>
      <point x="805" y="328"/>
      <point x="673" y="328" type="curve" smooth="yes"/>
      <point x="641" y="328"/>
      <point x="603" y="322"/>
      <point x="579" y="307" type="curve"/>
      <point x="562" y="301"/>
      <point x="548" y="293"/>
      <point x="537" y="282" type="curve"/>
      <point x="496" y="249"/>
      <point x="472" y="207"/>
      <point x="464" y="156" type="curve"/>
      <point x="463" y="141"/>
      <point x="462" y="132"/>
      <point x="462" y="129" type="curve" smooth="yes"/>
      <point x="462" y="119" type="line" smooth="yes"/>
      <point x="462" y="39"/>
      <point x="519" y="-20"/>
      <point x="619" y="-20" type="curve" smooth="yes"/>
      <point x="629" y="-20" type="line" smooth="yes"/>
      <point x="634" y="-20"/>
      <point x="637" y="-20"/>
      <point x="639" y="-19" type="curve"/>
      <point x="606" y="-156"/>
      <point x="504" y="-265"/>
      <point x="333" y="-336" type="curve"/>
      <point x="320" y="-342" type="line"/>
      <point x="360" y="-480" type="line"/>
    </contour>
  </outline>
</glyph>
<glyph name="question" format="1">
  <advance width="1233"/>
  <unicode hex="003F"/>
  <note>
	question
  </note>
  <outline>
    <contour>
      <point x="732" y="457" type="line"/>
      <point x="746" y="550" type="line"/>
      <point x="754" y="597" type="line" smooth="yes"/>
      <point x="758" y="617"/>
      <point x="770" y="650"/>
      <point x="780" y="667" type="curve" smooth="yes"/>
      <point x="790" y="683"/>
      <point x="799" y="697"/>
      <point x="836" y="734" type="curve"/>
      <point x="855" y="751" type="line"/>
      <point x="868" y="764"/>
      <point x="879" y="774"/>
      <point x="886" y="779" type="curve"/>
      <point x="988" y="865" type="line" smooth="yes"/>
      <point x="1064" y="929"/>
      <point x="1114" y="985"/>
      <point x="1142" y="1025" type="curve" smooth="yes"/>
      <point x="1174" y="1072"/>
      <point x="1194" y="1121"/>
      <point x="1201" y="1173" type="curve" smooth="yes"/>
      <point x="1205" y="1204"/>
      <point x="1207" y="1228"/>
      <point x="1207" y="1247" type="curve" smooth="yes"/>
      <point x="1207" y="1299"/>
      <point x="1195" y="1344"/>
      <point x="1171" y="1385" type="curve"/>
      <point x="1160" y="1406"/>
      <point x="1145" y="1426"/>
      <point x="1127" y="1443" type="curve" smooth="yes"/>
      <point x="1060" y="1510"/>
      <point x="969" y="1543"/>
      <point x="833" y="1543" type="curve" smooth="yes"/>
      <point x="758" y="1543"/>
      <point x="699" y="1533"/>
      <point x="627" y="1514" type="curve" smooth="yes"/>
      <point x="580" y="1502"/>
      <point x="515" y="1476"/>
      <point x="490" y="1463" type="curve"/>
      <point x="453" y="1446"/>
      <point x="430" y="1434"/>
      <point x="421" y="1428" type="curve"/>
      <point x="414" y="1425" type="line"/>
      <point x="378" y="1197" type="line"/>
      <point x="406" y="1214" type="line" smooth="yes"/>
      <point x="549" y="1303"/>
      <point x="675" y="1349"/>
      <point x="775" y="1349" type="curve" smooth="yes"/>
      <point x="791" y="1349"/>
      <point x="806" y="1348"/>
      <point x="821" y="1346" type="curve" smooth="yes"/>
      <point x="913" y="1334"/>
      <point x="971" y="1280"/>
      <point x="971" y="1199" type="curve" smooth="yes"/>
      <point x="971" y="1192" type="line"/>
      <point x="970" y="1191"/>
      <point x="970" y="1188"/>
      <point x="970" y="1184" type="curve" smooth="yes"/>
      <point x="970" y="1178"/>
      <point x="969" y="1172"/>
      <point x="968" y="1167" type="curve"/>
      <point x="959" y="1107"/>
      <point x="932" y="1065"/>
      <point x="832" y="980" type="curve" smooth="yes"/>
      <point x="728" y="891" type="line" smooth="yes"/>
      <point x="657" y="831"/>
      <point x="612" y="785"/>
      <point x="572" y="714" type="curve" smooth="yes"/>
      <point x="552" y="678"/>
      <point x="538" y="635"/>
      <point x="531" y="585" type="curve" smooth="yes"/>
      <point x="512" y="457" type="line"/>
    </contour>
    <contour>
      <point x="655" y="-55"/>
      <point x="747" y="21"/>
      <point x="747" y="136" type="curve" smooth="yes"/>
      <point x="747" y="157"/>
      <point x="744" y="175"/>
      <point x="738" y="192" type="curve" smooth="yes"/>
      <point x="718" y="250"/>
      <point x="674" y="279"/>
      <point x="607" y="279" type="curve" smooth="yes"/>
      <point x="523" y="279"/>
      <point x="471" y="232"/>
      <point x="435" y="164" type="curve" smooth="yes"/>
      <point x="427" y="148"/>
      <point x="420" y="125"/>
      <point x="420" y="113" type="curve" smooth="yes"/>
      <point x="420" y="83" type="line" smooth="yes"/>
      <point x="420" y="47"/>
      <point x="435" y="12"/>
      <point x="456" y="-13" type="curve"/>
      <point x="482" y="-41"/>
      <point x="515" y="-55"/>
      <point x="556" y="-55" type="curve" smooth="yes"/>
    </contour>
  </outline>
</glyph>
<glyph name="at" format="1">
  <advance width="1233"/>
  <unicode hex="0040"/>
  <note>
	at
  </note>
  <outline>
    <contour>
      <point x="739" y="-319"/>
      <point x="858" y="-284"/>
      <point x="999" y="-209" type="curve"/>
      <point x="936" y="-35" type="line"/>
      <point x="828" y="-99"/>
      <point x="721" y="-131"/>
      <point x="614" y="-131" type="curve" smooth="yes"/>
      <point x="481" y="-131"/>
      <point x="372" y="-83"/>
      <point x="295" y="9" type="curve" smooth="yes"/>
      <point x="217" y="102"/>
      <point x="178" y="228"/>
      <point x="178" y="388" type="curve" smooth="yes"/>
      <point x="178" y="593"/>
      <point x="246" y="805"/>
      <point x="365" y="961" type="curve" smooth="yes"/>
      <point x="488" y="1122"/>
      <point x="637" y="1206"/>
      <point x="798" y="1206" type="curve" smooth="yes"/>
      <point x="945" y="1206"/>
      <point x="1032" y="1133"/>
      <point x="1032" y="1004" type="curve" smooth="yes"/>
      <point x="1032" y="967"/>
      <point x="1026" y="917"/>
      <point x="1014" y="877" type="curve"/>
      <point x="975" y="940"/>
      <point x="905" y="973"/>
      <point x="810" y="973" type="curve" smooth="yes"/>
      <point x="694" y="973"/>
      <point x="582" y="922"/>
      <point x="498" y="821" type="curve" smooth="yes"/>
      <point x="419" y="726"/>
      <point x="371" y="591"/>
      <point x="371" y="448" type="curve" smooth="yes"/>
      <point x="371" y="343"/>
      <point x="398" y="261"/>
      <point x="451" y="203" type="curve" smooth="yes"/>
      <point x="503" y="146"/>
      <point x="576" y="115"/>
      <point x="664" y="115" type="curve" smooth="yes"/>
      <point x="756" y="115"/>
      <point x="831" y="153"/>
      <point x="887" y="217" type="curve"/>
      <point x="870" y="135" type="line"/>
      <point x="1067" y="135" type="line"/>
      <point x="1214" y="892" type="line"/>
      <point x="1223" y="936" type="line"/>
      <point x="1226" y="960" type="line" smooth="yes"/>
      <point x="1228" y="973"/>
      <point x="1229" y="994"/>
      <point x="1229" y="1023" type="curve" smooth="yes"/>
      <point x="1229" y="1130"/>
      <point x="1191" y="1222"/>
      <point x="1112" y="1293" type="curve" smooth="yes"/>
      <point x="1036" y="1360"/>
      <point x="928" y="1395"/>
      <point x="799" y="1395" type="curve" smooth="yes"/>
      <point x="542" y="1395"/>
      <point x="314" y="1253"/>
      <point x="158" y="1004" type="curve" smooth="yes"/>
      <point x="105" y="918"/>
      <point x="62" y="820"/>
      <point x="30" y="709" type="curve" smooth="yes"/>
      <point x="1" y="602"/>
      <point x="-14" y="494"/>
      <point x="-14" y="387" type="curve" smooth="yes"/>
      <point x="-14" y="171"/>
      <point x="42" y="-1"/>
      <point x="153" y="-128" type="curve" smooth="yes"/>
      <point x="262" y="-253"/>
      <point x="416" y="-319"/>
      <point x="599" y="-319" type="curve" smooth="yes"/>
    </contour>
    <contour>
      <point x="675" y="301"/>
      <point x="635" y="319"/>
      <point x="611" y="347" type="curve" smooth="yes"/>
      <point x="584" y="377"/>
      <point x="571" y="422"/>
      <point x="571" y="481" type="curve" smooth="yes"/>
      <point x="571" y="560"/>
      <point x="595" y="638"/>
      <point x="642" y="697" type="curve" smooth="yes"/>
      <point x="689" y="756"/>
      <point x="748" y="786"/>
      <point x="817" y="786" type="curve" smooth="yes"/>
      <point x="864" y="786"/>
      <point x="902" y="771"/>
      <point x="929" y="742" type="curve" smooth="yes"/>
      <point x="957" y="713"/>
      <point x="969" y="675"/>
      <point x="969" y="616" type="curve" smooth="yes"/>
      <point x="969" y="535"/>
      <point x="945" y="452"/>
      <point x="898" y="392" type="curve" smooth="yes"/>
      <point x="854" y="335"/>
      <point x="791" y="301"/>
      <point x="724" y="301" type="curve" smooth="yes"/>
    </contour>
  </outline>
</glyph>
<glyph name="B" format="1">
  <advance width="1233"/>
  <unicode hex="0042"/>
  <note>
	B
  </note>
  <outline>
    <contour>
      <point x="461" y="0" type="line" smooth="yes"/>
      <point x="718" y="0"/>
      <point x="861" y="38"/>
      <point x="961" y="127" type="curve" smooth="yes"/>
      <point x="1054" y="212"/>
      <point x="1106" y="347"/>
      <point x="1106" y="480" type="curve" smooth="yes"/>
      <point x="1106" y="572"/>
      <point x="1080" y="644"/>
      <point x="1029" y="696" type="curve" smooth="yes"/>
      <point x="978" y="748"/>
      <point x="902" y="779"/>
      <point x="813" y="786" type="curve"/>
      <point x="1045" y="811"/>
      <point x="1178" y="951"/>
      <point x="1178" y="1164" type="curve" smooth="yes"/>
      <point x="1178" y="1384"/>
      <point x="1033" y="1495"/>
      <point x="752" y="1495" type="curve" smooth="yes"/>
      <point x="270" y="1495" type="line"/>
      <point x="-20" y="0" type="line"/>
    </contour>
    <contour>
      <point x="510" y="1260" type="line"/>
      <point x="707" y="1260" type="line" smooth="yes"/>
      <point x="766" y="1260"/>
      <point x="811" y="1249"/>
      <point x="840" y="1228" type="curve" smooth="yes"/>
      <point x="869" y="1207"/>
      <point x="883" y="1175"/>
      <point x="883" y="1123" type="curve" smooth="yes"/>
      <point x="883" y="990"/>
      <point x="802" y="913"/>
      <point x="639" y="913" type="curve" smooth="yes"/>
      <point x="442" y="913" type="line"/>
    </contour>
    <contour>
      <point x="397" y="678" type="line"/>
      <point x="594" y="678" type="line" smooth="yes"/>
      <point x="668" y="678"/>
      <point x="723" y="664"/>
      <point x="758" y="637" type="curve" smooth="yes"/>
      <point x="794" y="609"/>
      <point x="811" y="570"/>
      <point x="811" y="501" type="curve" smooth="yes"/>
      <point x="811" y="417"/>
      <point x="786" y="347"/>
      <point x="738" y="303" type="curve" smooth="yes"/>
      <point x="689" y="258"/>
      <point x="613" y="236"/>
      <point x="508" y="236" type="curve" smooth="yes"/>
      <point x="311" y="236" type="line"/>
    </contour>
  </outline>
</glyph>
<glyph name="D" format="1">
  <advance width="1233"/>
  <unicode hex="0044"/>
  <note>
	D
  </note>
  <outline>
    <contour>
      <point x="322" y="0" type="line" smooth="yes"/>
      <point x="619" y="0"/>
      <point x="776" y="51"/>
      <point x="897" y="171" type="curve" smooth="yes"/>
      <point x="997" y="271"/>
      <point x="1063" y="410"/>
      <point x="1111" y="603" type="curve" smooth="yes"/>
      <point x="1120" y="642"/>
      <point x="1126" y="671"/>
      <point x="1130" y="690" type="curve" smooth="yes"/>
      <point x="1135" y="713" type="line"/>
      <point x="1142" y="754"/>
      <point x="1148" y="788"/>
      <point x="1152" y="814" type="curve" smooth="yes"/>
      <point x="1161" y="875"/>
      <point x="1165" y="935"/>
      <point x="1165" y="996" type="curve" smooth="yes"/>
      <point x="1165" y="1332"/>
      <point x="979" y="1493"/>
      <point x="598" y="1493" type="curve" smooth="yes"/>
      <point x="283" y="1493" type="line"/>
      <point x="-8" y="0" type="line"/>
    </contour>
    <contour>
      <point x="524" y="1227" type="line"/>
      <point x="606" y="1227" type="line" smooth="yes"/>
      <point x="692" y="1227"/>
      <point x="756" y="1206"/>
      <point x="798" y="1163" type="curve" smooth="yes"/>
      <point x="839" y="1119"/>
      <point x="860" y="1056"/>
      <point x="860" y="960" type="curve" smooth="yes"/>
      <point x="860" y="887"/>
      <point x="849" y="790"/>
      <point x="828" y="695" type="curve" smooth="yes"/>
      <point x="808" y="600"/>
      <point x="775" y="507"/>
      <point x="743" y="442" type="curve" smooth="yes"/>
      <point x="712" y="382"/>
      <point x="676" y="339"/>
      <point x="623" y="310" type="curve" smooth="yes"/>
      <point x="572" y="281"/>
      <point x="509" y="266"/>
      <point x="434" y="266" type="curve" smooth="yes"/>
      <point x="338" y="266" type="line"/>
    </contour>
  </outline>
</glyph>
<glyph name="G" format="1">
  <advance width="1233"/>
  <unicode hex="0047"/>
  <note>
	G
  </note>
  <outline>
    <contour>
      <point x="762" y="-29"/>
      <point x="895" y="14"/>
      <point x="991" y="94" type="curve"/>
      <point x="1130" y="803" type="line"/>
      <point x="670" y="803" type="line"/>
      <point x="621" y="555" type="line"/>
      <point x="827" y="555" type="line"/>
      <point x="770" y="264" type="line"/>
      <point x="743" y="244"/>
      <point x="697" y="231"/>
      <point x="648" y="231" type="curve" smooth="yes"/>
      <point x="491" y="231"/>
      <point x="403" y="338"/>
      <point x="403" y="533" type="curve" smooth="yes"/>
      <point x="403" y="629"/>
      <point x="426" y="763"/>
      <point x="469" y="891" type="curve" smooth="yes"/>
      <point x="502" y="991"/>
      <point x="558" y="1090"/>
      <point x="605" y="1141" type="curve" smooth="yes"/>
      <point x="639" y="1178"/>
      <point x="678" y="1207"/>
      <point x="721" y="1228" type="curve"/>
      <point x="766" y="1247"/>
      <point x="811" y="1257"/>
      <point x="857" y="1257" type="curve" smooth="yes"/>
      <point x="962" y="1257"/>
      <point x="1058" y="1208"/>
      <point x="1126" y="1120" type="curve"/>
      <point x="1192" y="1448" type="line"/>
      <point x="1151" y="1468"/>
      <point x="1100" y="1486"/>
      <point x="1037" y="1502" type="curve" smooth="yes"/>
      <point x="984" y="1514"/>
      <point x="931" y="1520"/>
      <point x="876" y="1520" type="curve" smooth="yes"/>
      <point x="676" y="1520"/>
      <point x="499" y="1443"/>
      <point x="367" y="1294" type="curve" smooth="yes"/>
      <point x="284" y="1199"/>
      <point x="218" y="1078"/>
      <point x="174" y="949" type="curve" smooth="yes"/>
      <point x="126" y="809"/>
      <point x="102" y="660"/>
      <point x="102" y="528" type="curve" smooth="yes"/>
      <point x="102" y="169"/>
      <point x="287" y="-29"/>
      <point x="611" y="-29" type="curve" smooth="yes"/>
    </contour>
  </outline>
</glyph>
<glyph name="J" format="1">
  <advance width="1233"/>
  <unicode hex="004A"/>
  <note>
	J
  </note>
  <outline>
    <contour>
      <point x="562" y="-29"/>
      <point x="688" y="13"/>
      <point x="772" y="82" type="curve" smooth="yes"/>
      <point x="861" y="155"/>
      <point x="909" y="251"/>
      <point x="954" y="479" type="curve" smooth="yes"/>
      <point x="1153" y="1493" type="line"/>
      <point x="498" y="1493" type="line"/>
      <point x="446" y="1233" type="line"/>
      <point x="807" y="1233" type="line"/>
      <point x="659" y="479" type="line" smooth="yes"/>
      <point x="640" y="382"/>
      <point x="614" y="321"/>
      <point x="575" y="285" type="curve" smooth="yes"/>
      <point x="537" y="249"/>
      <point x="481" y="231"/>
      <point x="406" y="231" type="curve" smooth="yes"/>
      <point x="266" y="231"/>
      <point x="149" y="293"/>
      <point x="45" y="422" type="curve"/>
      <point x="-20" y="78" type="line"/>
      <point x="124" y="5"/>
      <point x="260" y="-29"/>
      <point x="411" y="-29" type="curve" smooth="yes"/>
    </contour>
  </outline>
</glyph>
<glyph name="P" format="1">
  <advance width="1233"/>
  <unicode hex="0050"/>
  <note>
	P
  </note>
  <outline>
    <contour>
      <point x="309" y="0" type="line"/>
      <point x="418" y="559" type="line"/>
      <point x="582" y="559" type="line" smooth="yes"/>
      <point x="826" y="559"/>
      <point x="974" y="611"/>
      <point x="1077" y="731" type="curve" smooth="yes"/>
      <point x="1158" y="824"/>
      <point x="1208" y="988"/>
      <point x="1208" y="1129" type="curve" smooth="yes"/>
      <point x="1208" y="1252"/>
      <point x="1169" y="1339"/>
      <point x="1085" y="1402" type="curve" smooth="yes"/>
      <point x="1002" y="1463"/>
      <point x="882" y="1493"/>
      <point x="725" y="1493" type="curve" smooth="yes"/>
      <point x="305" y="1493" type="line"/>
      <point x="14" y="0" type="line"/>
    </contour>
    <contour>
      <point x="551" y="1245" type="line"/>
      <point x="672" y="1245" type="line" smooth="yes"/>
      <point x="784" y="1245"/>
      <point x="847" y="1225"/>
      <point x="878" y="1175" type="curve" smooth="yes"/>
      <point x="893" y="1150"/>
      <point x="901" y="1115"/>
      <point x="901" y="1071" type="curve" smooth="yes"/>
      <point x="901" y="988"/>
      <point x="877" y="919"/>
      <point x="829" y="875" type="curve" smooth="yes"/>
      <point x="780" y="830"/>
      <point x="707" y="807"/>
      <point x="610" y="807" type="curve" smooth="yes"/>
      <point x="467" y="807" type="line"/>
    </contour>
  </outline>
</glyph>
<glyph name="Q" format="1">
  <advance width="1233"/>
  <unicode hex="0051"/>
  <note>
	Q
  </note>
  <outline>
    <contour>
      <point x="1015" y="-281" type="line"/>
      <point x="776" y="39" type="line"/>
      <point x="875" y="102"/>
      <point x="937" y="169"/>
      <point x="990" y="262" type="curve" smooth="yes"/>
      <point x="1097" y="454"/>
      <point x="1171" y="776"/>
      <point x="1171" y="1024" type="curve" smooth="yes"/>
      <point x="1171" y="1196"/>
      <point x="1138" y="1310"/>
      <point x="1057" y="1397" type="curve" smooth="yes"/>
      <point x="981" y="1477"/>
      <point x="871" y="1520"/>
      <point x="732" y="1520" type="curve" smooth="yes"/>
      <point x="626" y="1520"/>
      <point x="531" y="1495"/>
      <point x="448" y="1445" type="curve" smooth="yes"/>
      <point x="361" y="1393"/>
      <point x="299" y="1321"/>
      <point x="244" y="1226" type="curve" smooth="yes"/>
      <point x="189" y="1129"/>
      <point x="144" y="1010"/>
      <point x="111" y="870" type="curve" smooth="yes"/>
      <point x="79" y="733"/>
      <point x="61" y="593"/>
      <point x="61" y="474" type="curve" smooth="yes"/>
      <point x="61" y="303"/>
      <point x="97" y="182"/>
      <point x="176" y="95" type="curve" smooth="yes"/>
      <point x="253" y="12"/>
      <point x="364" y="-29"/>
      <point x="508" y="-29" type="curve" smooth="yes"/>
      <point x="535" y="-29" type="line"/>
      <point x="671" y="-281" type="line"/>
    </contour>
    <contour>
      <point x="418" y="233"/>
      <point x="365" y="310"/>
      <point x="365" y="471" type="curve" smooth="yes"/>
      <point x="365" y="571"/>
      <point x="391" y="727"/>
      <point x="424" y="860" type="curve" smooth="yes"/>
      <point x="436" y="907" type="line"/>
      <point x="446" y="944" type="line"/>
      <point x="469" y="1017" type="line" smooth="yes"/>
      <point x="485" y="1065"/>
      <point x="495" y="1092"/>
      <point x="512" y="1121" type="curve" smooth="yes"/>
      <point x="563" y="1213"/>
      <point x="627" y="1260"/>
      <point x="708" y="1260" type="curve" smooth="yes"/>
      <point x="815" y="1260"/>
      <point x="868" y="1180"/>
      <point x="868" y="1020" type="curve" smooth="yes"/>
      <point x="868" y="932"/>
      <point x="855" y="850"/>
      <point x="835" y="747" type="curve" smooth="yes"/>
      <point x="820" y="668"/>
      <point x="792" y="556"/>
      <point x="767" y="483" type="curve" smooth="yes"/>
      <point x="730" y="382"/>
      <point x="702" y="317"/>
      <point x="635" y="269" type="curve" smooth="yes"/>
      <point x="602" y="245"/>
      <point x="566" y="233"/>
      <point x="525" y="233" type="curve" smooth="yes"/>
    </contour>
  </outline>
</glyph>
<glyph name="R" format="1">
  <advance width="1233"/>
  <unicode hex="0052"/>
  <note>
	R
  </note>
  <outline>
    <contour>
      <point x="298" y="0" type="line"/>
      <point x="413" y="590" type="line"/>
      <point x="530" y="590" type="line" smooth="yes"/>
      <point x="601" y="590"/>
      <point x="648" y="536"/>
      <point x="688" y="403" type="curve" smooth="yes"/>
      <point x="696" y="376" type="line"/>
      <point x="802" y="0" type="line"/>
      <point x="1103" y="0" type="line"/>
      <point x="939" y="537" type="line" smooth="yes"/>
      <point x="903" y="652"/>
      <point x="864" y="693"/>
      <point x="783" y="705" type="curve"/>
      <point x="1026" y="732"/>
      <point x="1160" y="893"/>
      <point x="1160" y="1133" type="curve" smooth="yes"/>
      <point x="1160" y="1262"/>
      <point x="1121" y="1349"/>
      <point x="1048" y="1406" type="curve" smooth="yes"/>
      <point x="973" y="1464"/>
      <point x="859" y="1493"/>
      <point x="704" y="1493" type="curve" smooth="yes"/>
      <point x="294" y="1493" type="line"/>
      <point x="3" y="0" type="line"/>
    </contour>
    <contour>
      <point x="542" y="1245" type="line"/>
      <point x="675" y="1245" type="line" smooth="yes"/>
      <point x="799" y="1245"/>
      <point x="859" y="1197"/>
      <point x="859" y="1084" type="curve" smooth="yes"/>
      <point x="859" y="925"/>
      <point x="766" y="838"/>
      <point x="585" y="838" type="curve" smooth="yes"/>
      <point x="462" y="838" type="line"/>
    </contour>
  </outline>
</glyph>
<glyph name="U" format="1">
  <advance width="1233"/>
  <unicode hex="0055"/>
  <note>
	U
  </note>
  <outline>
    <contour>
      <point x="673" y="-29"/>
      <point x="811" y="27"/>
      <point x="908" y="123" type="curve" smooth="yes"/>
      <point x="995" y="210"/>
      <point x="1028" y="310"/>
      <point x="1051" y="394" type="curve" smooth="yes"/>
      <point x="1062" y="436"/>
      <point x="1074" y="488"/>
      <point x="1087" y="551" type="curve" smooth="yes"/>
      <point x="1272" y="1493" type="line"/>
      <point x="977" y="1493" type="line"/>
      <point x="778" y="477" type="line" smooth="yes"/>
      <point x="745" y="312"/>
      <point x="661" y="231"/>
      <point x="518" y="231" type="curve" smooth="yes"/>
      <point x="405" y="231"/>
      <point x="340" y="293"/>
      <point x="340" y="400" type="curve" smooth="yes"/>
      <point x="340" y="419"/>
      <point x="342" y="442"/>
      <point x="347" y="471" type="curve"/>
      <point x="348" y="472"/>
      <point x="348" y="474"/>
      <point x="348" y="477" type="curve"/>
      <point x="547" y="1493" type="line"/>
      <point x="252" y="1493" type="line"/>
      <point x="68" y="551" type="line" smooth="yes"/>
      <point x="63" y="525"/>
      <point x="59" y="507"/>
      <point x="58" y="498" type="curve" smooth="yes"/>
      <point x="51" y="444" type="line" smooth="yes"/>
      <point x="47" y="408"/>
      <point x="45" y="378"/>
      <point x="45" y="354" type="curve" smooth="yes"/>
      <point x="45" y="230"/>
      <point x="82" y="137"/>
      <point x="163" y="70" type="curve" smooth="yes"/>
      <point x="242" y="4"/>
      <point x="353" y="-29"/>
      <point x="497" y="-29" type="curve" smooth="yes"/>
    </contour>
  </outline>
</glyph>
<glyph name="b" format="1">
  <advance width="1233"/>
  <unicode hex="0062"/>
  <note>
	b
  </note>
  <outline>
    <contour>
      <point x="730" y="-29"/>
      <point x="808" y="-4"/>
      <point x="876" y="43" type="curve" smooth="yes"/>
      <point x="1015" y="139"/>
      <point x="1094" y="306"/>
      <point x="1135" y="479" type="curve" smooth="yes"/>
      <point x="1155" y="566"/>
      <point x="1165" y="651"/>
      <point x="1165" y="732" type="curve" smooth="yes"/>
      <point x="1165" y="865"/>
      <point x="1137" y="967"/>
      <point x="1081" y="1038" type="curve" smooth="yes"/>
      <point x="1025" y="1110"/>
      <point x="944" y="1147"/>
      <point x="848" y="1147" type="curve" smooth="yes"/>
      <point x="721" y="1147"/>
      <point x="608" y="1080"/>
      <point x="524" y="952" type="curve"/>
      <point x="643" y="1556" type="line"/>
      <point x="350" y="1556" type="line"/>
      <point x="47" y="0" type="line"/>
      <point x="311" y="0" type="line"/>
      <point x="381" y="207" type="line"/>
      <point x="404" y="60"/>
      <point x="507" y="-29"/>
      <point x="651" y="-29" type="curve" smooth="yes"/>
    </contour>
    <contour>
      <point x="550" y="209"/>
      <point x="507" y="230"/>
      <point x="478" y="269" type="curve" smooth="yes"/>
      <point x="449" y="308"/>
      <point x="434" y="366"/>
      <point x="434" y="444" type="curve" smooth="yes"/>
      <point x="434" y="560"/>
      <point x="464" y="681"/>
      <point x="516" y="769" type="curve" smooth="yes"/>
      <point x="571" y="862"/>
      <point x="641" y="907"/>
      <point x="714" y="907" type="curve" smooth="yes"/>
      <point x="811" y="907"/>
      <point x="847" y="837"/>
      <point x="860" y="783" type="curve" smooth="yes"/>
      <point x="867" y="756"/>
      <point x="870" y="722"/>
      <point x="870" y="682" type="curve" smooth="yes"/>
      <point x="870" y="562"/>
      <point x="843" y="442"/>
      <point x="792" y="351" type="curve" smooth="yes"/>
      <point x="743" y="260"/>
      <point x="674" y="209"/>
      <point x="599" y="209" type="curve" smooth="yes"/>
    </contour>
  </outline>
</glyph>
<glyph name="c" format="1">
  <advance width="1233"/>
  <unicode hex="0063"/>
  <note>
	c
  </note>
  <outline>
    <contour>
      <point x="729" y="-29"/>
      <point x="844" y="-6"/>
      <point x="941" y="37" type="curve"/>
      <point x="997" y="313" type="line"/>
      <point x="880" y="245"/>
      <point x="770" y="209"/>
      <point x="675" y="209" type="curve" smooth="yes"/>
      <point x="593" y="209"/>
      <point x="532" y="230"/>
      <point x="492" y="272" type="curve" smooth="yes"/>
      <point x="451" y="316"/>
      <point x="431" y="375"/>
      <point x="431" y="466" type="curve" smooth="yes"/>
      <point x="431" y="591"/>
      <point x="467" y="703"/>
      <point x="538" y="786" type="curve" smooth="yes"/>
      <point x="605" y="865"/>
      <point x="698" y="909"/>
      <point x="814" y="909" type="curve" smooth="yes"/>
      <point x="921" y="909"/>
      <point x="1008" y="872"/>
      <point x="1089" y="795" type="curve"/>
      <point x="1142" y="1063" type="line"/>
      <point x="1038" y="1122"/>
      <point x="929" y="1147"/>
      <point x="797" y="1147" type="curve" smooth="yes"/>
      <point x="605" y="1147"/>
      <point x="438" y="1079"/>
      <point x="318" y="950" type="curve" smooth="yes"/>
      <point x="202" y="826"/>
      <point x="135" y="640"/>
      <point x="135" y="448" type="curve" smooth="yes"/>
      <point x="135" y="139"/>
      <point x="316" y="-29"/>
      <point x="621" y="-29" type="curve" smooth="yes"/>
    </contour>
  </outline>
</glyph>
<glyph name="e" format="1">
  <advance width="1233"/>
  <unicode hex="0065"/>
  <note>
	e
  </note>
  <outline>
    <contour>
      <point x="730" y="-29"/>
      <point x="866" y="-1"/>
      <point x="993" y="55" type="curve"/>
      <point x="1044" y="324" type="line"/>
      <point x="920" y="247"/>
      <point x="773" y="203"/>
      <point x="629" y="203" type="curve" smooth="yes"/>
      <point x="453" y="203"/>
      <point x="362" y="272"/>
      <point x="362" y="403" type="curve"/>
      <point x="365" y="433" type="line"/>
      <point x="367" y="449" type="line"/>
      <point x="367" y="453"/>
      <point x="368" y="458"/>
      <point x="369" y="465" type="curve"/>
      <point x="1128" y="465" type="line"/>
      <point x="1149" y="597"/>
      <point x="1155" y="642"/>
      <point x="1155" y="713" type="curve" smooth="yes"/>
      <point x="1155" y="845"/>
      <point x="1110" y="952"/>
      <point x="1030" y="1029" type="curve" smooth="yes"/>
      <point x="947" y="1108"/>
      <point x="831" y="1149"/>
      <point x="694" y="1149" type="curve" smooth="yes"/>
      <point x="515" y="1149"/>
      <point x="359" y="1077"/>
      <point x="244" y="938" type="curve" smooth="yes"/>
      <point x="139" y="809"/>
      <point x="76" y="619"/>
      <point x="76" y="438" type="curve" smooth="yes"/>
      <point x="76" y="131"/>
      <point x="248" y="-29"/>
      <point x="583" y="-29" type="curve" smooth="yes"/>
    </contour>
    <contour>
      <point x="410" y="684" type="line"/>
      <point x="463" y="840"/>
      <point x="559" y="920"/>
      <point x="692" y="920" type="curve" smooth="yes"/>
      <point x="811" y="920"/>
      <point x="883" y="850"/>
      <point x="883" y="737" type="curve" smooth="yes"/>
      <point x="883" y="725" type="line" smooth="yes"/>
      <point x="883" y="720"/>
      <point x="883" y="715"/>
      <point x="882" y="712" type="curve"/>
      <point x="881" y="703"/>
      <point x="879" y="693"/>
      <point x="876" y="684" type="curve"/>
    </contour>
  </outline>
</glyph>
<glyph name="f" format="1">
  <advance width="1233"/>
  <unicode hex="0066"/>
  <note>
	f
  </note>
  <outline>
    <contour>
      <point x="575" y="0" type="line"/>
      <point x="749" y="895" type="line"/>
      <point x="1093" y="895" type="line"/>
      <point x="1136" y="1120" type="line"/>
      <point x="792" y="1120" type="line"/>
      <point x="808" y="1196" type="line" smooth="yes"/>
      <point x="831" y="1303"/>
      <point x="860" y="1331"/>
      <point x="947" y="1331" type="curve" smooth="yes"/>
      <point x="1177" y="1331" type="line"/>
      <point x="1220" y="1556" type="line"/>
      <point x="980" y="1556" type="line" smooth="yes"/>
      <point x="821" y="1556"/>
      <point x="711" y="1532"/>
      <point x="649" y="1483" type="curve" smooth="yes"/>
      <point x="589" y="1435"/>
      <point x="546" y="1347"/>
      <point x="515" y="1198" type="curve" smooth="yes"/>
      <point x="499" y="1120" type="line"/>
      <point x="226" y="1120" type="line"/>
      <point x="183" y="895" type="line"/>
      <point x="456" y="895" type="line"/>
      <point x="282" y="0" type="line"/>
    </contour>
  </outline>
</glyph>
<glyph name="g" format="1">
  <advance width="1233"/>
  <unicode hex="0067"/>
  <note>
	g
  </note>
  <outline>
    <contour>
      <point x="569" y="-424"/>
      <point x="705" y="-386"/>
      <point x="796" y="-309" type="curve" smooth="yes"/>
      <point x="891" y="-230"/>
      <point x="951" y="-100"/>
      <point x="987" y="84" type="curve" smooth="yes"/>
      <point x="1190" y="1120" type="line"/>
      <point x="926" y="1120" type="line"/>
      <point x="862" y="938" type="line"/>
      <point x="834" y="1075"/>
      <point x="742" y="1151"/>
      <point x="602" y="1151" type="curve" smooth="yes"/>
      <point x="461" y="1151"/>
      <point x="320" y="1069"/>
      <point x="225" y="932" type="curve" smooth="yes"/>
      <point x="130" y="791"/>
      <point x="68" y="586"/>
      <point x="68" y="407" type="curve" smooth="yes"/>
      <point x="68" y="282"/>
      <point x="97" y="193"/>
      <point x="161" y="121" type="curve" smooth="yes"/>
      <point x="223" y="51"/>
      <point x="306" y="16"/>
      <point x="409" y="16" type="curve" smooth="yes"/>
      <point x="540" y="16"/>
      <point x="642" y="72"/>
      <point x="715" y="184" type="curve"/>
      <point x="688" y="51" type="line" smooth="yes"/>
      <point x="671" y="-34"/>
      <point x="644" y="-91"/>
      <point x="595" y="-132" type="curve" smooth="yes"/>
      <point x="548" y="-171"/>
      <point x="482" y="-190"/>
      <point x="396" y="-190" type="curve" smooth="yes"/>
      <point x="284" y="-190"/>
      <point x="171" y="-160"/>
      <point x="72" y="-100" type="curve"/>
      <point x="18" y="-365" type="line"/>
      <point x="130" y="-401"/>
      <point x="254" y="-424"/>
      <point x="386" y="-424" type="curve" smooth="yes"/>
    </contour>
    <contour>
      <point x="422" y="246"/>
      <point x="367" y="318"/>
      <point x="367" y="465" type="curve" smooth="yes"/>
      <point x="367" y="577"/>
      <point x="395" y="692"/>
      <point x="450" y="777" type="curve" smooth="yes"/>
      <point x="502" y="861"/>
      <point x="573" y="909"/>
      <point x="649" y="909" type="curve" smooth="yes"/>
      <point x="746" y="909"/>
      <point x="803" y="840"/>
      <point x="803" y="689" type="curve" smooth="yes"/>
      <point x="803" y="578"/>
      <point x="775" y="466"/>
      <point x="720" y="379" type="curve" smooth="yes"/>
      <point x="664" y="292"/>
      <point x="594" y="246"/>
      <point x="521" y="246" type="curve" smooth="yes"/>
    </contour>
  </outline>
</glyph>
<glyph name="h" format="1">
  <advance width="1233"/>
  <unicode hex="0068"/>
  <note>
	h
  </note>
  <outline>
    <contour>
      <point x="352" y="0" type="line"/>
      <point x="473" y="629" type="line" smooth="yes"/>
      <point x="508" y="810"/>
      <point x="587" y="907"/>
      <point x="699" y="907" type="curve" smooth="yes"/>
      <point x="772" y="907"/>
      <point x="811" y="865"/>
      <point x="811" y="784" type="curve" smooth="yes"/>
      <point x="811" y="774"/>
      <point x="810" y="758"/>
      <point x="809" y="735" type="curve"/>
      <point x="808" y="727" type="line"/>
      <point x="806" y="712" type="line"/>
      <point x="803" y="695" type="line"/>
      <point x="802" y="686"/>
      <point x="801" y="681"/>
      <point x="801" y="682" type="curve"/>
      <point x="668" y="0" type="line"/>
      <point x="961" y="0" type="line"/>
      <point x="1102" y="728" type="line"/>
      <point x="1111" y="776" type="line"/>
      <point x="1116" y="813" type="line" smooth="yes"/>
      <point x="1119" y="835"/>
      <point x="1120" y="857"/>
      <point x="1120" y="880" type="curve" smooth="yes"/>
      <point x="1120" y="1052"/>
      <point x="1024" y="1147"/>
      <point x="857" y="1147" type="curve" smooth="yes"/>
      <point x="716" y="1147"/>
      <point x="600" y="1075"/>
      <point x="537" y="952" type="curve"/>
      <point x="653" y="1556" type="line"/>
      <point x="362" y="1556" type="line"/>
      <point x="59" y="0" type="line"/>
    </contour>
  </outline>
</glyph>
<glyph name="i" format="1">
  <advance width="1233"/>
  <unicode hex="0069"/>
  <note>
	i
  </note>
  <outline>
    <contour>
      <point x="848" y="1323" type="line" smooth="yes"/>
      <point x="867" y="1323"/>
      <point x="877" y="1332"/>
      <point x="880" y="1350" type="curve" smooth="yes"/>
      <point x="936" y="1632" type="line"/>
      <point x="937" y="1633"/>
      <point x="937" y="1636"/>
      <point x="937" y="1640" type="curve" smooth="yes"/>
      <point x="937" y="1657"/>
      <point x="928" y="1665"/>
      <point x="909" y="1665" type="curve" smooth="yes"/>
      <point x="676" y="1665" type="line" smooth="yes"/>
      <point x="658" y="1665"/>
      <point x="647" y="1656"/>
      <point x="644" y="1638" type="curve" smooth="yes"/>
      <point x="588" y="1356" type="line"/>
      <point x="587" y="1355"/>
      <point x="587" y="1352"/>
      <point x="587" y="1348" type="curve" smooth="yes"/>
      <point x="587" y="1331"/>
      <point x="596" y="1323"/>
      <point x="615" y="1323" type="curve" smooth="yes"/>
    </contour>
    <contour>
      <point x="1074" y="217" type="line"/>
      <point x="796" y="217" type="line" smooth="yes"/>
      <point x="692" y="217"/>
      <point x="656" y="243"/>
      <point x="656" y="295" type="curve" smooth="yes"/>
      <point x="656" y="305"/>
      <point x="657" y="314"/>
      <point x="659" y="321" type="curve"/>
      <point x="660" y="327" type="line"/>
      <point x="660" y="332" type="line"/>
      <point x="661" y="340" type="line"/>
      <point x="665" y="357" type="line"/>
      <point x="831" y="1120" type="line"/>
      <point x="303" y="1120" type="line"/>
      <point x="260" y="895" type="line"/>
      <point x="496" y="895" type="line"/>
      <point x="376" y="371" type="line" smooth="yes"/>
      <point x="364" y="319"/>
      <point x="357" y="262"/>
      <point x="357" y="229" type="curve" smooth="yes"/>
      <point x="357" y="148"/>
      <point x="382" y="89"/>
      <point x="442" y="49" type="curve" smooth="yes"/>
      <point x="499" y="10"/>
      <point x="589" y="-8"/>
      <point x="732" y="-8" type="curve" smooth="yes"/>
      <point x="1029" y="-8" type="line"/>
    </contour>
  </outline>
</glyph>
<glyph name="j" format="1">
  <advance width="1233"/>
  <unicode hex="006A"/>
  <note>
	j
  </note>
  <outline>
    <contour>
      <point x="996" y="1323" type="line" smooth="yes"/>
      <point x="1015" y="1323"/>
      <point x="1025" y="1332"/>
      <point x="1028" y="1350" type="curve" smooth="yes"/>
      <point x="1083" y="1632" type="line" smooth="yes"/>
      <point x="1087" y="1652"/>
      <point x="1076" y="1665"/>
      <point x="1056" y="1665" type="curve" smooth="yes"/>
      <point x="823" y="1665" type="line" smooth="yes"/>
      <point x="805" y="1665"/>
      <point x="794" y="1656"/>
      <point x="791" y="1638" type="curve" smooth="yes"/>
      <point x="736" y="1356" type="line" smooth="yes"/>
      <point x="732" y="1336"/>
      <point x="743" y="1323"/>
      <point x="763" y="1323" type="curve" smooth="yes"/>
    </contour>
    <contour>
      <point x="284" y="-424" type="line" smooth="yes"/>
      <point x="376" y="-424"/>
      <point x="437" y="-415"/>
      <point x="490" y="-398" type="curve" smooth="yes"/>
      <point x="516" y="-389"/>
      <point x="541" y="-378"/>
      <point x="566" y="-364" type="curve" smooth="yes"/>
      <point x="629" y="-329"/>
      <point x="677" y="-273"/>
      <point x="709" y="-196" type="curve" smooth="yes"/>
      <point x="726" y="-156"/>
      <point x="748" y="-86"/>
      <point x="773" y="43" type="curve" smooth="yes"/>
      <point x="982" y="1120" type="line"/>
      <point x="392" y="1120" type="line"/>
      <point x="349" y="895" type="line"/>
      <point x="646" y="895" type="line"/>
      <point x="480" y="43" type="line" smooth="yes"/>
      <point x="463" y="-46"/>
      <point x="440" y="-109"/>
      <point x="404" y="-146" type="curve" smooth="yes"/>
      <point x="370" y="-181"/>
      <point x="320" y="-199"/>
      <point x="253" y="-199" type="curve" smooth="yes"/>
      <point x="22" y="-199" type="line"/>
      <point x="-23" y="-424" type="line"/>
    </contour>
  </outline>
</glyph>
<glyph name="l" format="1">
  <advance width="1233"/>
  <unicode hex="006C"/>
  <note>
	l
  </note>
  <outline>
    <contour>
      <point x="987" y="-10" type="line"/>
      <point x="1032" y="215" type="line"/>
      <point x="754" y="215" type="line" smooth="yes"/>
      <point x="650" y="215"/>
      <point x="614" y="241"/>
      <point x="614" y="293" type="curve" smooth="yes"/>
      <point x="614" y="303"/>
      <point x="615" y="312"/>
      <point x="617" y="319" type="curve"/>
      <point x="618" y="325" type="line"/>
      <point x="618" y="329" type="line" smooth="yes"/>
      <point x="618" y="332"/>
      <point x="618" y="335"/>
      <point x="619" y="338" type="curve"/>
      <point x="623" y="355" type="line"/>
      <point x="872" y="1556" type="line"/>
      <point x="274" y="1556" type="line"/>
      <point x="231" y="1331" type="line"/>
      <point x="537" y="1331" type="line"/>
      <point x="334" y="369" type="line" smooth="yes"/>
      <point x="330" y="349"/>
      <point x="327" y="334"/>
      <point x="326" y="324" type="curve"/>
      <point x="320" y="290" type="line"/>
      <point x="317" y="268"/>
      <point x="315" y="247"/>
      <point x="315" y="226" type="curve" smooth="yes"/>
      <point x="315" y="141"/>
      <point x="344" y="84"/>
      <point x="400" y="47" type="curve" smooth="yes"/>
      <point x="457" y="8"/>
      <point x="547" y="-10"/>
      <point x="690" y="-10" type="curve" smooth="yes"/>
    </contour>
  </outline>
</glyph>
<glyph name="m" format="1">
  <advance width="1233"/>
  <unicode hex="006D"/>
  <note>
	m
  </note>
  <outline>
    <contour>
      <point x="207" y="0" type="line"/>
      <point x="346" y="719" type="line" smooth="yes"/>
      <point x="359" y="795"/>
      <point x="377" y="860"/>
      <point x="406" y="899" type="curve" smooth="yes"/>
      <point x="421" y="918"/>
      <point x="442" y="928"/>
      <point x="471" y="928" type="curve" smooth="yes"/>
      <point x="516" y="928"/>
      <point x="541" y="900"/>
      <point x="541" y="845" type="curve" smooth="yes"/>
      <point x="541" y="836"/>
      <point x="541" y="829"/>
      <point x="540" y="824" type="curve"/>
      <point x="539" y="803"/>
      <point x="536" y="780"/>
      <point x="531" y="755" type="curve" smooth="yes"/>
      <point x="526" y="728"/>
      <point x="523" y="716"/>
      <point x="524" y="719" type="curve"/>
      <point x="383" y="0" type="line"/>
      <point x="623" y="0" type="line"/>
      <point x="762" y="719" type="line" smooth="yes"/>
      <point x="777" y="800"/>
      <point x="794" y="860"/>
      <point x="824" y="899" type="curve" smooth="yes"/>
      <point x="839" y="918"/>
      <point x="860" y="928"/>
      <point x="889" y="928" type="curve" smooth="yes"/>
      <point x="934" y="928"/>
      <point x="958" y="899"/>
      <point x="958" y="848" type="curve" smooth="yes"/>
      <point x="958" y="835"/>
      <point x="957" y="819"/>
      <point x="954" y="801" type="curve"/>
      <point x="950" y="770"/>
      <point x="945" y="742"/>
      <point x="940" y="719" type="curve" smooth="yes"/>
      <point x="801" y="0" type="line"/>
      <point x="1040" y="0" type="line"/>
      <point x="1180" y="719" type="line"/>
      <point x="1183" y="738"/>
      <point x="1187" y="759"/>
      <point x="1192" y="781" type="curve"/>
      <point x="1200" y="826"/>
      <point x="1206" y="884"/>
      <point x="1206" y="931" type="curve" smooth="yes"/>
      <point x="1206" y="1072"/>
      <point x="1128" y="1147"/>
      <point x="1004" y="1147" type="curve" smooth="yes"/>
      <point x="904" y="1147"/>
      <point x="811" y="1092"/>
      <point x="770" y="1008" type="curve"/>
      <point x="759" y="1093"/>
      <point x="698" y="1147"/>
      <point x="606" y="1147" type="curve" smooth="yes"/>
      <point x="513" y="1147"/>
      <point x="430" y="1096"/>
      <point x="375" y="1004" type="curve"/>
      <point x="376" y="1120" type="line"/>
      <point x="184" y="1120" type="line"/>
      <point x="-33" y="0" type="line"/>
    </contour>
  </outline>
</glyph>
<glyph name="n" format="1">
  <advance width="1233"/>
  <unicode hex="006E"/>
  <note>
	n
  </note>
  <outline>
    <contour>
      <point x="352" y="0" type="line"/>
      <point x="473" y="629" type="line" smooth="yes"/>
      <point x="506" y="806"/>
      <point x="588" y="907"/>
      <point x="699" y="907" type="curve" smooth="yes"/>
      <point x="772" y="907"/>
      <point x="811" y="866"/>
      <point x="811" y="783" type="curve" smooth="yes"/>
      <point x="811" y="774"/>
      <point x="810" y="758"/>
      <point x="809" y="735" type="curve"/>
      <point x="809" y="736"/>
      <point x="808" y="729"/>
      <point x="807" y="716" type="curve" smooth="yes"/>
      <point x="806" y="706"/>
      <point x="804" y="695"/>
      <point x="801" y="682" type="curve" smooth="yes"/>
      <point x="668" y="0" type="line"/>
      <point x="961" y="0" type="line"/>
      <point x="1102" y="728" type="line"/>
      <point x="1111" y="776" type="line"/>
      <point x="1116" y="813" type="line" smooth="yes"/>
      <point x="1119" y="835"/>
      <point x="1120" y="857"/>
      <point x="1120" y="880" type="curve" smooth="yes"/>
      <point x="1120" y="1052"/>
      <point x="1024" y="1147"/>
      <point x="857" y="1147" type="curve" smooth="yes"/>
      <point x="716" y="1147"/>
      <point x="600" y="1075"/>
      <point x="537" y="952" type="curve"/>
      <point x="540" y="1120" type="line"/>
      <point x="276" y="1120" type="line"/>
      <point x="59" y="0" type="line"/>
    </contour>
  </outline>
</glyph>
<glyph name="p" format="1">
  <advance width="1233"/>
  <unicode hex="0070"/>
  <note>
	p
  </note>
  <outline>
    <contour>
      <point x="256" y="-426" type="line"/>
      <point x="379" y="207" type="line"/>
      <point x="404" y="59"/>
      <point x="506" y="-29"/>
      <point x="654" y="-29" type="curve" smooth="yes"/>
      <point x="811" y="-29"/>
      <point x="959" y="72"/>
      <point x="1051" y="244" type="curve" smooth="yes"/>
      <point x="1126" y="388"/>
      <point x="1169" y="569"/>
      <point x="1169" y="734" type="curve" smooth="yes"/>
      <point x="1169" y="866"/>
      <point x="1141" y="965"/>
      <point x="1084" y="1038" type="curve" smooth="yes"/>
      <point x="1027" y="1111"/>
      <point x="951" y="1147"/>
      <point x="854" y="1147" type="curve" smooth="yes"/>
      <point x="726" y="1147"/>
      <point x="619" y="1083"/>
      <point x="524" y="952" type="curve"/>
      <point x="528" y="1120" type="line"/>
      <point x="264" y="1120" type="line"/>
      <point x="-37" y="-426" type="line"/>
    </contour>
    <contour>
      <point x="552" y="209"/>
      <point x="508" y="232"/>
      <point x="480" y="269" type="curve" smooth="yes"/>
      <point x="451" y="308"/>
      <point x="436" y="367"/>
      <point x="436" y="444" type="curve" smooth="yes"/>
      <point x="436" y="560"/>
      <point x="466" y="678"/>
      <point x="519" y="769" type="curve" smooth="yes"/>
      <point x="574" y="860"/>
      <point x="642" y="907"/>
      <point x="718" y="907" type="curve" smooth="yes"/>
      <point x="815" y="907"/>
      <point x="851" y="836"/>
      <point x="864" y="783" type="curve" smooth="yes"/>
      <point x="871" y="756"/>
      <point x="874" y="723"/>
      <point x="874" y="683" type="curve" smooth="yes"/>
      <point x="874" y="564"/>
      <point x="845" y="442"/>
      <point x="794" y="350" type="curve" smooth="yes"/>
      <point x="745" y="262"/>
      <point x="678" y="209"/>
      <point x="601" y="209" type="curve" smooth="yes"/>
    </contour>
  </outline>
</glyph>
<glyph name="q" format="1">
  <advance width="1233"/>
  <unicode hex="0071"/>
  <note>
	q
  </note>
  <outline>
    <contour>
      <point x="885" y="-426" type="line"/>
      <point x="1186" y="1120" type="line"/>
      <point x="922" y="1120" type="line"/>
      <point x="854" y="911" type="line"/>
      <point x="843" y="985"/>
      <point x="813" y="1044"/>
      <point x="764" y="1087" type="curve" smooth="yes"/>
      <point x="720" y="1127"/>
      <point x="655" y="1149"/>
      <point x="580" y="1149" type="curve" smooth="yes"/>
      <point x="502" y="1149"/>
      <point x="428" y="1125"/>
      <point x="359" y="1077" type="curve" smooth="yes"/>
      <point x="290" y="1028"/>
      <point x="236" y="962"/>
      <point x="187" y="874" type="curve" smooth="yes"/>
      <point x="112" y="734"/>
      <point x="68" y="552"/>
      <point x="68" y="387" type="curve" smooth="yes"/>
      <point x="68" y="256"/>
      <point x="96" y="154"/>
      <point x="153" y="81" type="curve" smooth="yes"/>
      <point x="209" y="9"/>
      <point x="292" y="-29"/>
      <point x="385" y="-29" type="curve" smooth="yes"/>
      <point x="512" y="-29"/>
      <point x="624" y="38"/>
      <point x="709" y="166" type="curve"/>
      <point x="594" y="-426" type="line"/>
    </contour>
    <contour>
      <point x="423" y="211"/>
      <point x="385" y="284"/>
      <point x="372" y="336" type="curve" smooth="yes"/>
      <point x="365" y="361"/>
      <point x="362" y="395"/>
      <point x="362" y="436" type="curve" smooth="yes"/>
      <point x="362" y="551"/>
      <point x="388" y="694"/>
      <point x="471" y="817" type="curve" smooth="yes"/>
      <point x="512" y="878"/>
      <point x="567" y="909"/>
      <point x="634" y="909" type="curve" smooth="yes"/>
      <point x="734" y="909"/>
      <point x="775" y="832"/>
      <point x="789" y="777" type="curve" smooth="yes"/>
      <point x="796" y="749"/>
      <point x="799" y="715"/>
      <point x="799" y="674" type="curve" smooth="yes"/>
      <point x="799" y="558"/>
      <point x="773" y="421"/>
      <point x="687" y="301" type="curve" smooth="yes"/>
      <point x="644" y="241"/>
      <point x="588" y="211"/>
      <point x="519" y="211" type="curve" smooth="yes"/>
    </contour>
  </outline>
</glyph>
<glyph name="r" format="1">
  <advance width="1233"/>
  <unicode hex="0072"/>
  <note>
	r
  </note>
  <outline>
    <contour>
      <point x="419" y="0" type="line"/>
      <point x="519" y="516" type="line" smooth="yes"/>
      <point x="572" y="793"/>
      <point x="687" y="899"/>
      <point x="900" y="899" type="curve" smooth="yes"/>
      <point x="956" y="899"/>
      <point x="1002" y="892"/>
      <point x="1037" y="879" type="curve" smooth="yes"/>
      <point x="1075" y="866"/>
      <point x="1111" y="845"/>
      <point x="1144" y="815" type="curve"/>
      <point x="1197" y="1090" type="line"/>
      <point x="1135" y="1128"/>
      <point x="1062" y="1147"/>
      <point x="979" y="1147" type="curve" smooth="yes"/>
      <point x="820" y="1147"/>
      <point x="684" y="1074"/>
      <point x="601" y="946" type="curve"/>
      <point x="607" y="1120" type="line"/>
      <point x="343" y="1120" type="line"/>
      <point x="124" y="0" type="line"/>
    </contour>
  </outline>
</glyph>
<glyph name="t" format="1">
  <advance width="1233"/>
  <unicode hex="0074"/>
  <note>
	t
  </note>
  <outline>
    <contour>
      <point x="952" y="-5" type="line"/>
      <point x="995" y="220" type="line"/>
      <point x="770" y="220" type="line" smooth="yes"/>
      <point x="665" y="220"/>
      <point x="631" y="241"/>
      <point x="631" y="300" type="curve" smooth="yes"/>
      <point x="631" y="302"/>
      <point x="632" y="310"/>
      <point x="633" y="325" type="curve"/>
      <point x="639" y="360" type="line"/>
      <point x="743" y="895" type="line"/>
      <point x="1126" y="895" type="line"/>
      <point x="1169" y="1120" type="line"/>
      <point x="786" y="1120" type="line"/>
      <point x="848" y="1438" type="line"/>
      <point x="555" y="1438" type="line"/>
      <point x="494" y="1120" type="line"/>
      <point x="207" y="1120" type="line"/>
      <point x="164" y="895" type="line"/>
      <point x="451" y="895" type="line"/>
      <point x="350" y="374" type="line" smooth="yes"/>
      <point x="346" y="353"/>
      <point x="343" y="337"/>
      <point x="342" y="326" type="curve"/>
      <point x="337" y="290" type="line" smooth="yes"/>
      <point x="334" y="265"/>
      <point x="332" y="244"/>
      <point x="332" y="229" type="curve" smooth="yes"/>
      <point x="332" y="68"/>
      <point x="438" y="28"/>
      <point x="531" y="9" type="curve" smooth="yes"/>
      <point x="578" y="0"/>
      <point x="636" y="-5"/>
      <point x="707" y="-5" type="curve" smooth="yes"/>
    </contour>
  </outline>
</glyph>
<glyph name="w" format="1">
  <advance width="1233"/>
  <unicode hex="0077"/>
  <note>
	w
  </note>
  <outline>
    <contour>
      <point x="369" y="0" type="line"/>
      <point x="608" y="590" type="line"/>
      <point x="627" y="0" type="line"/>
      <point x="907" y="0" type="line"/>
      <point x="1325" y="1120" type="line"/>
      <point x="1073" y="1120" type="line"/>
      <point x="782" y="262" type="line"/>
      <point x="760" y="827" type="line"/>
      <point x="530" y="827" type="line"/>
      <point x="303" y="262" type="line"/>
      <point x="336" y="1120" type="line"/>
      <point x="96" y="1120" type="line"/>
      <point x="90" y="0" type="line"/>
    </contour>
  </outline>
</glyph>
<glyph name="braceleft" format="1">
  <advance width="1233"/>
  <unicode hex="007B"/>
  <note>
	braceleft
  </note>
  <outline>
    <contour>
      <point x="792" y="-334" type="line"/>
      <point x="829" y="-143" type="line"/>
      <point x="708" y="-143" type="line" smooth="yes"/>
      <point x="655" y="-143"/>
      <point x="617" y="-135"/>
      <point x="594" y="-118" type="curve" smooth="yes"/>
      <point x="571" y="-101"/>
      <point x="560" y="-75"/>
      <point x="560" y="-32" type="curve" smooth="yes"/>
      <point x="560" y="-23"/>
      <point x="560" y="-17"/>
      <point x="561" y="-13" type="curve"/>
      <point x="564" y="12" type="line"/>
      <point x="567" y="35" type="line"/>
      <point x="570" y="50" type="line"/>
      <point x="573" y="65" type="line"/>
      <point x="577" y="86" type="line"/>
      <point x="618" y="291" type="line"/>
      <point x="626" y="334" type="line"/>
      <point x="630" y="364" type="line" smooth="yes"/>
      <point x="633" y="385"/>
      <point x="634" y="406"/>
      <point x="634" y="428" type="curve" smooth="yes"/>
      <point x="634" y="484"/>
      <point x="621" y="520"/>
      <point x="593" y="548" type="curve"/>
      <point x="566" y="577"/>
      <point x="521" y="598"/>
      <point x="456" y="612" type="curve"/>
      <point x="629" y="635"/>
      <point x="703" y="713"/>
      <point x="743" y="930" type="curve" smooth="yes"/>
      <point x="781" y="1139" type="line" smooth="yes"/>
      <point x="800" y="1239"/>
      <point x="821" y="1294"/>
      <point x="852" y="1323" type="curve" smooth="yes"/>
      <point x="881" y="1352"/>
      <point x="928" y="1366"/>
      <point x="1001" y="1366" type="curve" smooth="yes"/>
      <point x="1124" y="1366" type="line"/>
      <point x="1160" y="1556" type="line"/>
      <point x="1011" y="1556" type="line" smooth="yes"/>
      <point x="664" y="1556"/>
      <point x="577" y="1485"/>
      <point x="521" y="1188" type="curve" smooth="yes"/>
      <point x="480" y="973" type="line" smooth="yes"/>
      <point x="453" y="832"/>
      <point x="411" y="762"/>
      <point x="335" y="731" type="curve" smooth="yes"/>
      <point x="296" y="715"/>
      <point x="244" y="707"/>
      <point x="179" y="707" type="curve" smooth="yes"/>
      <point x="88" y="707" type="line"/>
      <point x="51" y="516" type="line"/>
      <point x="113" y="516" type="line" smooth="yes"/>
      <point x="196" y="516"/>
      <point x="257" y="506"/>
      <point x="295" y="486" type="curve"/>
      <point x="339" y="465"/>
      <point x="358" y="433"/>
      <point x="358" y="377" type="curve" smooth="yes"/>
      <point x="358" y="353"/>
      <point x="355" y="323"/>
      <point x="347" y="284" type="curve"/>
      <point x="344" y="263" type="line"/>
      <point x="341" y="250" type="line"/>
      <point x="298" y="35" type="line" smooth="yes"/>
      <point x="295" y="22"/>
      <point x="294" y="14"/>
      <point x="293" y="9" type="curve"/>
      <point x="289" y="-16" type="line" smooth="yes"/>
      <point x="282" y="-52"/>
      <point x="280" y="-73"/>
      <point x="280" y="-101" type="curve" smooth="yes"/>
      <point x="280" y="-190"/>
      <point x="308" y="-244"/>
      <point x="365" y="-280" type="curve" smooth="yes"/>
      <point x="422" y="-316"/>
      <point x="508" y="-334"/>
      <point x="644" y="-334" type="curve" smooth="yes"/>
    </contour>
  </outline>
</glyph>
<glyph name="braceright" format="1">
  <advance width="1233"/>
  <unicode hex="007D"/>
  <note>
	braceright
  </note>
  <outline>
    <contour>
      <point x="169" y="-334" type="line" smooth="yes"/>
      <point x="396" y="-334"/>
      <point x="510" y="-298"/>
      <point x="578" y="-194" type="curve" smooth="yes"/>
      <point x="612" y="-142"/>
      <point x="639" y="-66"/>
      <point x="658" y="35" type="curve" smooth="yes"/>
      <point x="699" y="250" type="line" smooth="yes"/>
      <point x="724" y="385"/>
      <point x="767" y="458"/>
      <point x="846" y="491" type="curve" smooth="yes"/>
      <point x="885" y="508"/>
      <point x="937" y="516"/>
      <point x="1000" y="516" type="curve" smooth="yes"/>
      <point x="1092" y="516" type="line"/>
      <point x="1129" y="707" type="line"/>
      <point x="1067" y="707" type="line" smooth="yes"/>
      <point x="990" y="707"/>
      <point x="930" y="719"/>
      <point x="889" y="742" type="curve" smooth="yes"/>
      <point x="849" y="765"/>
      <point x="826" y="799"/>
      <point x="826" y="864" type="curve" smooth="yes"/>
      <point x="826" y="873"/>
      <point x="826" y="880"/>
      <point x="827" y="885" type="curve"/>
      <point x="828" y="909"/>
      <point x="835" y="941"/>
      <point x="840" y="972" type="curve" smooth="yes"/>
      <point x="881" y="1187" type="line"/>
      <point x="884" y="1202" type="line" smooth="yes"/>
      <point x="897" y="1271"/>
      <point x="904" y="1320"/>
      <point x="904" y="1351" type="curve" smooth="yes"/>
      <point x="904" y="1420"/>
      <point x="877" y="1477"/>
      <point x="822" y="1508" type="curve" smooth="yes"/>
      <point x="767" y="1540"/>
      <point x="672" y="1556"/>
      <point x="535" y="1556" type="curve" smooth="yes"/>
      <point x="388" y="1556" type="line"/>
      <point x="351" y="1366" type="line"/>
      <point x="472" y="1366" type="line" smooth="yes"/>
      <point x="580" y="1366"/>
      <point x="619" y="1338"/>
      <point x="619" y="1257" type="curve" smooth="yes"/>
      <point x="619" y="1254"/>
      <point x="619" y="1253"/>
      <point x="620" y="1252" type="curve"/>
      <point x="620" y="1247" type="line" smooth="yes"/>
      <point x="620" y="1243"/>
      <point x="620" y="1239"/>
      <point x="619" y="1236" type="curve"/>
      <point x="616" y="1214" type="line"/>
      <point x="615" y="1211"/>
      <point x="614" y="1201"/>
      <point x="612" y="1185" type="curve" smooth="yes"/>
      <point x="610" y="1168"/>
      <point x="607" y="1153"/>
      <point x="603" y="1139" type="curve"/>
      <point x="562" y="930" type="line" smooth="yes"/>
      <point x="560" y="921"/>
      <point x="558" y="907"/>
      <point x="555" y="887" type="curve" smooth="yes"/>
      <point x="550" y="852" type="line" smooth="yes"/>
      <point x="547" y="831"/>
      <point x="546" y="811"/>
      <point x="546" y="792" type="curve" smooth="yes"/>
      <point x="546" y="685"/>
      <point x="597" y="633"/>
      <point x="724" y="612" type="curve"/>
      <point x="552" y="587"/>
      <point x="478" y="508"/>
      <point x="437" y="291" type="curve" smooth="yes"/>
      <point x="398" y="86" type="line" smooth="yes"/>
      <point x="380" y="-9"/>
      <point x="356" y="-71"/>
      <point x="326" y="-100" type="curve" smooth="yes"/>
      <point x="297" y="-128"/>
      <point x="244" y="-143"/>
      <point x="179" y="-143" type="curve" smooth="yes"/>
      <point x="56" y="-143" type="line"/>
      <point x="19" y="-334" type="line"/>
    </contour>
  </outline>
</glyph>
<glyph name="exclamdown" format="1">
  <advance width="1233"/>
  <unicode hex="00A1"/>
  <note>
	exclamdown
  </note>
  <outline>
    <contour>
      <point x="752" y="1198"/>
      <point x="801" y="1218"/>
      <point x="841" y="1259" type="curve" smooth="yes"/>
      <point x="881" y="1299"/>
      <point x="901" y="1348"/>
      <point x="901" y="1403" type="curve" smooth="yes"/>
      <point x="901" y="1490"/>
      <point x="845" y="1556"/>
      <point x="754" y="1556" type="curve" smooth="yes"/>
      <point x="701" y="1556"/>
      <point x="635" y="1540"/>
      <point x="586" y="1469" type="curve" smooth="yes"/>
      <point x="562" y="1436"/>
      <point x="549" y="1394"/>
      <point x="549" y="1353" type="curve" smooth="yes"/>
      <point x="549" y="1313"/>
      <point x="560" y="1272"/>
      <point x="587" y="1241" type="curve" smooth="yes"/>
      <point x="614" y="1212"/>
      <point x="651" y="1198"/>
      <point x="696" y="1198" type="curve" smooth="yes"/>
    </contour>
    <contour>
      <point x="614" y="0" type="line"/>
      <point x="741" y="655" type="line"/>
      <point x="766" y="1012" type="line"/>
      <point x="567" y="1012" type="line"/>
      <point x="455" y="655" type="line"/>
      <point x="328" y="0" type="line"/>
    </contour>
  </outline>
</glyph>
<glyph name="cent" format="1">
  <advance width="1233"/>
  <unicode hex="00A2"/>
  <note>
	cent
  </note>
  <outline>
    <contour>
      <point x="592" y="-313" type="line"/>
      <point x="647" y="-25" type="line"/>
      <point x="735" y="-21"/>
      <point x="820" y="2"/>
      <point x="901" y="43" type="curve"/>
      <point x="952" y="307" type="line"/>
      <point x="861" y="250"/>
      <point x="776" y="220"/>
      <point x="695" y="215" type="curve"/>
      <point x="830" y="907" type="line"/>
      <point x="918" y="898"/>
      <point x="985" y="869"/>
      <point x="1049" y="813" type="curve"/>
      <point x="1102" y="1077" type="line"/>
      <point x="1022" y="1118"/>
      <point x="959" y="1138"/>
      <point x="875" y="1145" type="curve"/>
      <point x="930" y="1432" type="line"/>
      <point x="788" y="1432" type="line"/>
      <point x="733" y="1145" type="line"/>
      <point x="570" y="1144"/>
      <point x="424" y="1084"/>
      <point x="315" y="971" type="curve" smooth="yes"/>
      <point x="186" y="840"/>
      <point x="104" y="635"/>
      <point x="104" y="438" type="curve" smooth="yes"/>
      <point x="104" y="299"/>
      <point x="139" y="197"/>
      <point x="208" y="116" type="curve" smooth="yes"/>
      <point x="277" y="37"/>
      <point x="377" y="-10"/>
      <point x="506" y="-25" type="curve"/>
      <point x="451" y="-313" type="line"/>
    </contour>
    <contour>
      <point x="552" y="215" type="line"/>
      <point x="493" y="218"/>
      <point x="450" y="241"/>
      <point x="417" y="285" type="curve"/>
      <point x="381" y="329"/>
      <point x="365" y="384"/>
      <point x="365" y="463" type="curve" smooth="yes"/>
      <point x="365" y="687"/>
      <point x="507" y="887"/>
      <point x="688" y="907" type="curve"/>
    </contour>
  </outline>
</glyph>
<glyph name="sterling" format="1">
  <advance width="1233"/>
  <unicode hex="00A3"/>
  <note>
	sterling
  </note>
  <outline>
    <contour>
      <point x="981" y="0" type="line"/>
      <point x="1032" y="260" type="line"/>
      <point x="551" y="260" type="line"/>
      <point x="614" y="594" type="line"/>
      <point x="952" y="594" type="line"/>
      <point x="995" y="819" type="line"/>
      <point x="659" y="819" type="line"/>
      <point x="692" y="995" type="line" smooth="yes"/>
      <point x="728" y="1182"/>
      <point x="812" y="1272"/>
      <point x="952" y="1272" type="curve" smooth="yes"/>
      <point x="1036" y="1272"/>
      <point x="1111" y="1246"/>
      <point x="1192" y="1190" type="curve"/>
      <point x="1245" y="1456" type="line"/>
      <point x="1149" y="1499"/>
      <point x="1056" y="1520"/>
      <point x="952" y="1520" type="curve" smooth="yes"/>
      <point x="793" y="1520"/>
      <point x="672" y="1481"/>
      <point x="589" y="1402" type="curve" smooth="yes"/>
      <point x="504" y="1324"/>
      <point x="444" y="1195"/>
      <point x="410" y="1016" type="curve" smooth="yes"/>
      <point x="373" y="819" type="line"/>
      <point x="174" y="819" type="line"/>
      <point x="129" y="594" type="line"/>
      <point x="328" y="594" type="line"/>
      <point x="264" y="260" type="line"/>
      <point x="29" y="260" type="line"/>
      <point x="-23" y="0" type="line"/>
    </contour>
  </outline>
</glyph>
<glyph name="currency" format="1">
  <advance width="1233"/>
  <unicode hex="00A4"/>
  <note>
	currency
  </note>
  <outline>
    <contour>
      <point x="485" y="344" type="line"/>
      <point x="544" y="316"/>
      <point x="603" y="301"/>
      <point x="656" y="301" type="curve" smooth="yes"/>
      <point x="684" y="301"/>
      <point x="712" y="305"/>
      <point x="741" y="313" type="curve" smooth="yes"/>
      <point x="770" y="321"/>
      <point x="789" y="329"/>
      <point x="817" y="348" type="curve"/>
      <point x="987" y="176" type="line"/>
      <point x="1118" y="307" type="line"/>
      <point x="946" y="477" type="line"/>
      <point x="959" y="497"/>
      <point x="971" y="523"/>
      <point x="982" y="554" type="curve"/>
      <point x="989" y="580"/>
      <point x="993" y="609"/>
      <point x="993" y="641" type="curve" smooth="yes"/>
      <point x="993" y="694"/>
      <point x="980" y="752"/>
      <point x="948" y="809" type="curve"/>
      <point x="1118" y="979" type="line"/>
      <point x="991" y="1108" type="line"/>
      <point x="819" y="938" type="line"/>
      <point x="750" y="971"/>
      <point x="704" y="983"/>
      <point x="652" y="983" type="curve" smooth="yes"/>
      <point x="596" y="983"/>
      <point x="538" y="968"/>
      <point x="483" y="936" type="curve"/>
      <point x="317" y="1108" type="line"/>
      <point x="186" y="977" type="line"/>
      <point x="358" y="807" type="line"/>
      <point x="330" y="763"/>
      <point x="311" y="701"/>
      <point x="311" y="642" type="curve" smooth="yes"/>
      <point x="311" y="610"/>
      <point x="315" y="591"/>
      <point x="323" y="559" type="curve"/>
      <point x="334" y="523"/>
      <point x="339" y="508"/>
      <point x="356" y="475" type="curve"/>
      <point x="186" y="305" type="line"/>
      <point x="315" y="176" type="line"/>
    </contour>
    <contour>
      <point x="553" y="467"/>
      <point x="479" y="547"/>
      <point x="479" y="643" type="curve" smooth="yes"/>
      <point x="479" y="692"/>
      <point x="498" y="738"/>
      <point x="530" y="767" type="curve" smooth="yes"/>
      <point x="563" y="799"/>
      <point x="604" y="815"/>
      <point x="653" y="815" type="curve" smooth="yes"/>
      <point x="701" y="815"/>
      <point x="746" y="798"/>
      <point x="778" y="766" type="curve" smooth="yes"/>
      <point x="809" y="735"/>
      <point x="827" y="690"/>
      <point x="827" y="642" type="curve" smooth="yes"/>
      <point x="827" y="579"/>
      <point x="794" y="522"/>
      <point x="742" y="491" type="curve" smooth="yes"/>
      <point x="715" y="475"/>
      <point x="686" y="467"/>
      <point x="654" y="467" type="curve" smooth="yes"/>
    </contour>
  </outline>
</glyph>
<glyph name="section" format="1">
  <advance width="1233"/>
  <unicode hex="00A7"/>
  <note>
	section
  </note>
  <outline>
    <contour>
      <point x="590" y="-195"/>
      <point x="699" y="-162"/>
      <point x="776" y="-101" type="curve" smooth="yes"/>
      <point x="853" y="-40"/>
      <point x="895" y="46"/>
      <point x="895" y="149" type="curve" smooth="yes"/>
      <point x="895" y="232"/>
      <point x="868" y="294"/>
      <point x="807" y="354" type="curve"/>
      <point x="883" y="401"/>
      <point x="949" y="451"/>
      <point x="997" y="524" type="curve" smooth="yes"/>
      <point x="1020" y="561"/>
      <point x="1032" y="605"/>
      <point x="1032" y="656" type="curve" smooth="yes"/>
      <point x="1032" y="759"/>
      <point x="977" y="835"/>
      <point x="848" y="918" type="curve" smooth="yes"/>
      <point x="743" y="985" type="line" smooth="yes"/>
      <point x="708" y="1007"/>
      <point x="679" y="1026"/>
      <point x="658" y="1043" type="curve"/>
      <point x="603" y="1082"/>
      <point x="573" y="1116"/>
      <point x="573" y="1169" type="curve" smooth="yes"/>
      <point x="573" y="1250"/>
      <point x="638" y="1298"/>
      <point x="753" y="1298" type="curve" smooth="yes"/>
      <point x="838" y="1298"/>
      <point x="933" y="1272"/>
      <point x="1014" y="1231" type="curve"/>
      <point x="1059" y="1460" type="line"/>
      <point x="944" y="1500"/>
      <point x="838" y="1520"/>
      <point x="739" y="1520" type="curve" smooth="yes"/>
      <point x="490" y="1520"/>
      <point x="315" y="1377"/>
      <point x="315" y="1172" type="curve" smooth="yes"/>
      <point x="315" y="1085"/>
      <point x="346" y="1020"/>
      <point x="414" y="967" type="curve"/>
      <point x="262" y="900"/>
      <point x="178" y="796"/>
      <point x="178" y="669" type="curve" smooth="yes"/>
      <point x="178" y="572"/>
      <point x="229" y="515"/>
      <point x="274" y="477" type="curve" smooth="yes"/>
      <point x="297" y="458"/>
      <point x="328" y="435"/>
      <point x="367" y="408" type="curve" smooth="yes"/>
      <point x="467" y="340" type="line"/>
      <point x="485" y="328" type="line" smooth="yes"/>
      <point x="540" y="291"/>
      <point x="580" y="258"/>
      <point x="603" y="231" type="curve" smooth="yes"/>
      <point x="626" y="204"/>
      <point x="637" y="178"/>
      <point x="637" y="151" type="curve" smooth="yes"/>
      <point x="637" y="118"/>
      <point x="621" y="84"/>
      <point x="590" y="61" type="curve" smooth="yes"/>
      <point x="559" y="38"/>
      <point x="514" y="27"/>
      <point x="453" y="27" type="curve" smooth="yes"/>
      <point x="366" y="27"/>
      <point x="250" y="49"/>
      <point x="150" y="94" type="curve"/>
      <point x="104" y="-135" type="line"/>
      <point x="232" y="-175"/>
      <point x="350" y="-195"/>
      <point x="458" y="-195" type="curve" smooth="yes"/>
    </contour>
    <contour>
      <point x="669" y="458"/>
      <point x="659" y="465"/>
      <point x="652" y="471" type="curve"/>
      <point x="636" y="481" type="line"/>
      <point x="630" y="484"/>
      <point x="622" y="489"/>
      <point x="612" y="496" type="curve" smooth="yes"/>
      <point x="561" y="530" type="line"/>
      <point x="483" y="584" type="line" smooth="yes"/>
      <point x="434" y="617"/>
      <point x="410" y="657"/>
      <point x="410" y="704" type="curve" smooth="yes"/>
      <point x="410" y="760"/>
      <point x="458" y="825"/>
      <point x="530" y="877" type="curve"/>
      <point x="608" y="823" type="line"/>
      <point x="637" y="803" type="line" smooth="yes"/>
      <point x="644" y="798"/>
      <point x="648" y="795"/>
      <point x="649" y="795" type="curve"/>
      <point x="729" y="741" type="line" smooth="yes"/>
      <point x="773" y="710"/>
      <point x="801" y="666"/>
      <point x="801" y="619" type="curve" smooth="yes"/>
      <point x="801" y="563"/>
      <point x="754" y="499"/>
      <point x="682" y="451" type="curve"/>
    </contour>
  </outline>
</glyph>
<glyph name="dieresis" format="1">
  <advance width="1233"/>
  <unicode hex="00A8"/>
  <note>
	dieresis
  </note>
  <outline>
    <contour>
      <point x="624" y="1339" type="line" smooth="yes"/>
      <point x="643" y="1339"/>
      <point x="653" y="1348"/>
      <point x="656" y="1366" type="curve" smooth="yes"/>
      <point x="693" y="1552" type="line"/>
      <point x="694" y="1553"/>
      <point x="694" y="1556"/>
      <point x="694" y="1561" type="curve" smooth="yes"/>
      <point x="694" y="1577"/>
      <point x="685" y="1585"/>
      <point x="667" y="1585" type="curve" smooth="yes"/>
      <point x="490" y="1585" type="line" smooth="yes"/>
      <point x="472" y="1585"/>
      <point x="461" y="1576"/>
      <point x="458" y="1558" type="curve" smooth="yes"/>
      <point x="422" y="1372" type="line" smooth="yes"/>
      <point x="418" y="1352"/>
      <point x="429" y="1339"/>
      <point x="449" y="1339" type="curve" smooth="yes"/>
    </contour>
    <contour>
      <point x="1020" y="1339" type="line" smooth="yes"/>
      <point x="1039" y="1339"/>
      <point x="1049" y="1348"/>
      <point x="1052" y="1366" type="curve" smooth="yes"/>
      <point x="1089" y="1552" type="line"/>
      <point x="1090" y="1553"/>
      <point x="1090" y="1556"/>
      <point x="1090" y="1561" type="curve" smooth="yes"/>
      <point x="1090" y="1577"/>
      <point x="1081" y="1585"/>
      <point x="1063" y="1585" type="curve" smooth="yes"/>
      <point x="885" y="1585" type="line" smooth="yes"/>
      <point x="867" y="1585"/>
      <point x="856" y="1576"/>
      <point x="853" y="1558" type="curve" smooth="yes"/>
      <point x="817" y="1372" type="line" smooth="yes"/>
      <point x="813" y="1352"/>
      <point x="824" y="1339"/>
      <point x="844" y="1339" type="curve" smooth="yes"/>
    </contour>
  </outline>
</glyph>
<glyph name="copyright" format="1">
  <advance width="1233"/>
  <unicode hex="00A9"/>
  <note>
	copyright
  </note>
  <outline>
    <contour>
      <point x="787" y="125"/>
      <point x="933" y="188"/>
      <point x="1052" y="307" type="curve" smooth="yes"/>
      <point x="1111" y="366"/>
      <point x="1159" y="437"/>
      <point x="1188" y="508" type="curve" smooth="yes"/>
      <point x="1218" y="579"/>
      <point x="1233" y="657"/>
      <point x="1233" y="742" type="curve" smooth="yes"/>
      <point x="1233" y="913"/>
      <point x="1172" y="1054"/>
      <point x="1051" y="1178" type="curve" smooth="yes"/>
      <point x="934" y="1298"/>
      <point x="785" y="1358"/>
      <point x="616" y="1358" type="curve" smooth="yes"/>
      <point x="449" y="1358"/>
      <point x="301" y="1298"/>
      <point x="182" y="1178" type="curve" smooth="yes"/>
      <point x="63" y="1055"/>
      <point x="0" y="912"/>
      <point x="0" y="741" type="curve" smooth="yes"/>
      <point x="0" y="573"/>
      <point x="61" y="427"/>
      <point x="181" y="307" type="curve" smooth="yes"/>
      <point x="298" y="190"/>
      <point x="447" y="125"/>
      <point x="616" y="125" type="curve" smooth="yes"/>
    </contour>
    <contour>
      <point x="547" y="256"/>
      <point x="491" y="266"/>
      <point x="431" y="293" type="curve"/>
      <point x="320" y="338"/>
      <point x="215" y="443"/>
      <point x="167" y="558" type="curve" smooth="yes"/>
      <point x="143" y="615"/>
      <point x="131" y="677"/>
      <point x="131" y="742" type="curve" smooth="yes"/>
      <point x="131" y="809"/>
      <point x="143" y="871"/>
      <point x="167" y="927" type="curve" smooth="yes"/>
      <point x="191" y="983"/>
      <point x="229" y="1041"/>
      <point x="274" y="1086" type="curve" smooth="yes"/>
      <point x="367" y="1179"/>
      <point x="483" y="1229"/>
      <point x="619" y="1229" type="curve" smooth="yes"/>
      <point x="684" y="1229"/>
      <point x="745" y="1217"/>
      <point x="802" y="1193" type="curve" smooth="yes"/>
      <point x="858" y="1170"/>
      <point x="915" y="1131"/>
      <point x="959" y="1086" type="curve" smooth="yes"/>
      <point x="1006" y="1037"/>
      <point x="1042" y="984"/>
      <point x="1066" y="927" type="curve" smooth="yes"/>
      <point x="1090" y="868"/>
      <point x="1102" y="812"/>
      <point x="1102" y="743" type="curve" smooth="yes"/>
      <point x="1102" y="611"/>
      <point x="1054" y="496"/>
      <point x="958" y="400" type="curve" smooth="yes"/>
      <point x="913" y="355"/>
      <point x="861" y="320"/>
      <point x="802" y="293" type="curve" smooth="yes"/>
      <point x="742" y="266"/>
      <point x="685" y="256"/>
      <point x="616" y="256" type="curve" smooth="yes"/>
    </contour>
    <contour>
      <point x="705" y="399"/>
      <point x="788" y="417"/>
      <point x="848" y="434" type="curve"/>
      <point x="848" y="602" type="line"/>
      <point x="813" y="578"/>
      <point x="790" y="567"/>
      <point x="758" y="558" type="curve" smooth="yes"/>
      <point x="723" y="548"/>
      <point x="690" y="543"/>
      <point x="658" y="543" type="curve" smooth="yes"/>
      <point x="526" y="543"/>
      <point x="453" y="613"/>
      <point x="453" y="741" type="curve" smooth="yes"/>
      <point x="453" y="868"/>
      <point x="527" y="940"/>
      <point x="655" y="940" type="curve" smooth="yes"/>
      <point x="719" y="940"/>
      <point x="780" y="922"/>
      <point x="848" y="881" type="curve"/>
      <point x="848" y="1049" type="line"/>
      <point x="784" y="1072"/>
      <point x="713" y="1083"/>
      <point x="636" y="1083" type="curve" smooth="yes"/>
      <point x="524" y="1083"/>
      <point x="432" y="1050"/>
      <point x="367" y="991" type="curve" smooth="yes"/>
      <point x="304" y="932"/>
      <point x="266" y="846"/>
      <point x="266" y="741" type="curve" smooth="yes"/>
      <point x="266" y="536"/>
      <point x="409" y="399"/>
      <point x="637" y="399" type="curve" smooth="yes"/>
    </contour>
  </outline>
</glyph>
<glyph name="ordfeminine" format="1">
  <advance width="1233"/>
  <unicode hex="00AA"/>
  <note>
	ordfeminine
  </note>
  <outline>
    <contour>
      <point x="561" y="698"/>
      <point x="607" y="707"/>
      <point x="649" y="725" type="curve" smooth="yes"/>
      <point x="693" y="745"/>
      <point x="724" y="766"/>
      <point x="756" y="805" type="curve"/>
      <point x="737" y="717" type="line"/>
      <point x="944" y="717" type="line"/>
      <point x="1032" y="1165" type="line" smooth="yes"/>
      <point x="1048" y="1250"/>
      <point x="1051" y="1275"/>
      <point x="1051" y="1318" type="curve" smooth="yes"/>
      <point x="1051" y="1453"/>
      <point x="935" y="1520"/>
      <point x="743" y="1520" type="curve" smooth="yes"/>
      <point x="654" y="1520"/>
      <point x="559" y="1503"/>
      <point x="451" y="1464" type="curve"/>
      <point x="418" y="1290" type="line"/>
      <point x="537" y="1343"/>
      <point x="631" y="1368"/>
      <point x="708" y="1368" type="curve" smooth="yes"/>
      <point x="727" y="1368"/>
      <point x="747" y="1366"/>
      <point x="767" y="1363" type="curve"/>
      <point x="821" y="1352"/>
      <point x="848" y="1327"/>
      <point x="848" y="1286" type="curve" smooth="yes"/>
      <point x="848" y="1275" type="line" smooth="yes"/>
      <point x="848" y="1274"/>
      <point x="847" y="1272"/>
      <point x="846" y="1268" type="curve"/>
      <point x="840" y="1233" type="line"/>
      <point x="705" y="1233" type="line" smooth="yes"/>
      <point x="430" y="1233"/>
      <point x="274" y="1121"/>
      <point x="274" y="926" type="curve" smooth="yes"/>
      <point x="274" y="785"/>
      <point x="363" y="698"/>
      <point x="511" y="698" type="curve" smooth="yes"/>
    </contour>
    <contour>
      <point x="534" y="838"/>
      <point x="492" y="880"/>
      <point x="492" y="943" type="curve" smooth="yes"/>
      <point x="492" y="1039"/>
      <point x="570" y="1087"/>
      <point x="731" y="1087" type="curve" smooth="yes"/>
      <point x="811" y="1087" type="line"/>
      <point x="798" y="1007"/>
      <point x="773" y="946"/>
      <point x="735" y="903" type="curve" smooth="yes"/>
      <point x="699" y="860"/>
      <point x="650" y="838"/>
      <point x="598" y="838" type="curve" smooth="yes"/>
    </contour>
    <contour>
      <point x="899" y="428" type="line"/>
      <point x="934" y="598" type="line"/>
      <point x="246" y="598" type="line"/>
      <point x="211" y="428" type="line"/>
    </contour>
  </outline>
</glyph>
<glyph name="uni00AD" format="1">
  <advance width="1233"/>
  <unicode hex="00AD"/>
  <note>
	uni00AD
  </note>
  <outline>
    <contour>
      <point x="872" y="444" type="line"/>
      <point x="928" y="735" type="line"/>
      <point x="299" y="735" type="line"/>
      <point x="244" y="444" type="line"/>
    </contour>
  </outline>
</glyph>
<glyph name="registered" format="1">
  <advance width="1233"/>
  <unicode hex="00AE"/>
  <note>
	registered
  </note>
  <outline>
    <contour>
      <point x="787" y="125"/>
      <point x="933" y="188"/>
      <point x="1052" y="307" type="curve" smooth="yes"/>
      <point x="1111" y="366"/>
      <point x="1159" y="437"/>
      <point x="1188" y="508" type="curve" smooth="yes"/>
      <point x="1218" y="579"/>
      <point x="1233" y="657"/>
      <point x="1233" y="742" type="curve" smooth="yes"/>
      <point x="1233" y="913"/>
      <point x="1172" y="1054"/>
      <point x="1051" y="1178" type="curve" smooth="yes"/>
      <point x="934" y="1298"/>
      <point x="785" y="1358"/>
      <point x="616" y="1358" type="curve" smooth="yes"/>
      <point x="449" y="1358"/>
      <point x="297" y="1297"/>
      <point x="182" y="1178" type="curve" smooth="yes"/>
      <point x="65" y="1059"/>
      <point x="0" y="913"/>
      <point x="0" y="741" type="curve" smooth="yes"/>
      <point x="0" y="572"/>
      <point x="65" y="423"/>
      <point x="181" y="307" type="curve" smooth="yes"/>
      <point x="297" y="191"/>
      <point x="447" y="125"/>
      <point x="616" y="125" type="curve" smooth="yes"/>
    </contour>
    <contour>
      <point x="484" y="256"/>
      <point x="370" y="304"/>
      <point x="274" y="400" type="curve" smooth="yes"/>
      <point x="179" y="495"/>
      <point x="131" y="611"/>
      <point x="131" y="742" type="curve" smooth="yes"/>
      <point x="131" y="875"/>
      <point x="184" y="992"/>
      <point x="273" y="1085" type="curve" smooth="yes"/>
      <point x="320" y="1132"/>
      <point x="373" y="1168"/>
      <point x="432" y="1193" type="curve" smooth="yes"/>
      <point x="487" y="1217"/>
      <point x="541" y="1229"/>
      <point x="617" y="1229" type="curve" smooth="yes"/>
      <point x="684" y="1229"/>
      <point x="741" y="1220"/>
      <point x="802" y="1193" type="curve" smooth="yes"/>
      <point x="859" y="1169"/>
      <point x="916" y="1130"/>
      <point x="959" y="1086" type="curve" smooth="yes"/>
      <point x="1054" y="989"/>
      <point x="1102" y="874"/>
      <point x="1102" y="742" type="curve" smooth="yes"/>
      <point x="1102" y="611"/>
      <point x="1051" y="492"/>
      <point x="958" y="399" type="curve" smooth="yes"/>
      <point x="863" y="304"/>
      <point x="749" y="256"/>
      <point x="616" y="256" type="curve" smooth="yes"/>
    </contour>
    <contour>
      <point x="524" y="430" type="line"/>
      <point x="524" y="670" type="line"/>
      <point x="555" y="670" type="line" smooth="yes"/>
      <point x="610" y="669"/>
      <point x="641" y="644"/>
      <point x="680" y="563" type="curve" smooth="yes"/>
      <point x="743" y="430" type="line"/>
      <point x="915" y="430" type="line"/>
      <point x="836" y="596" type="line" smooth="yes"/>
      <point x="805" y="661"/>
      <point x="768" y="698"/>
      <point x="719" y="715" type="curve"/>
      <point x="815" y="731"/>
      <point x="868" y="790"/>
      <point x="868" y="878" type="curve" smooth="yes"/>
      <point x="868" y="998"/>
      <point x="783" y="1055"/>
      <point x="606" y="1055" type="curve" smooth="yes"/>
      <point x="360" y="1055" type="line"/>
      <point x="360" y="430" type="line"/>
    </contour>
    <contour>
      <point x="524" y="944" type="line"/>
      <point x="588" y="944" type="line" smooth="yes"/>
      <point x="664" y="944"/>
      <point x="702" y="916"/>
      <point x="702" y="861" type="curve" smooth="yes"/>
      <point x="702" y="805"/>
      <point x="665" y="780"/>
      <point x="588" y="780" type="curve" smooth="yes"/>
      <point x="524" y="780" type="line"/>
    </contour>
  </outline>
</glyph>
<glyph name="uni00B2" format="1">
  <advance width="1233"/>
  <unicode hex="00B2"/>
  <note>
	uni00B2
  </note>
  <outline>
    <contour>
      <point x="924" y="1120" type="line"/>
      <point x="952" y="1265" type="line"/>
      <point x="514" y="1265" type="line"/>
      <point x="537" y="1282"/>
      <point x="554" y="1294"/>
      <point x="565" y="1301" type="curve"/>
      <point x="588" y="1317" type="line"/>
      <point x="593" y="1320"/>
      <point x="597" y="1323"/>
      <point x="600" y="1326" type="curve"/>
      <point x="618" y="1338" type="line" smooth="yes"/>
      <point x="763" y="1440"/>
      <point x="868" y="1525"/>
      <point x="931" y="1593" type="curve" smooth="yes"/>
      <point x="998" y="1664"/>
      <point x="1028" y="1722"/>
      <point x="1028" y="1777" type="curve" smooth="yes"/>
      <point x="1028" y="1828"/>
      <point x="1002" y="1881"/>
      <point x="950" y="1918" type="curve" smooth="yes"/>
      <point x="898" y="1954"/>
      <point x="824" y="1972"/>
      <point x="728" y="1972" type="curve" smooth="yes"/>
      <point x="632" y="1972"/>
      <point x="543" y="1957"/>
      <point x="434" y="1925" type="curve"/>
      <point x="403" y="1763" type="line"/>
      <point x="498" y="1808"/>
      <point x="608" y="1834"/>
      <point x="691" y="1834" type="curve" smooth="yes"/>
      <point x="737" y="1834"/>
      <point x="772" y="1826"/>
      <point x="795" y="1810" type="curve" smooth="yes"/>
      <point x="818" y="1794"/>
      <point x="831" y="1769"/>
      <point x="831" y="1746" type="curve" smooth="yes"/>
      <point x="831" y="1712"/>
      <point x="801" y="1666"/>
      <point x="740" y="1608" type="curve" smooth="yes"/>
      <point x="674" y="1545"/>
      <point x="571" y="1464"/>
      <point x="431" y="1363" type="curve" smooth="yes"/>
      <point x="395" y="1337" type="line"/>
      <point x="370" y="1320" type="line"/>
      <point x="341" y="1299" type="line"/>
      <point x="289" y="1261" type="line"/>
      <point x="260" y="1120" type="line"/>
    </contour>
  </outline>
</glyph>
<glyph name="uni00B3" format="1">
  <advance width="1233"/>
  <unicode hex="00B3"/>
  <note>
	uni00B3
  </note>
  <outline>
    <contour>
      <point x="703" y="1103"/>
      <point x="807" y="1128"/>
      <point x="880" y="1177" type="curve" smooth="yes"/>
      <point x="952" y="1225"/>
      <point x="989" y="1295"/>
      <point x="989" y="1380" type="curve" smooth="yes"/>
      <point x="989" y="1435"/>
      <point x="973" y="1475"/>
      <point x="940" y="1508" type="curve" smooth="yes"/>
      <point x="907" y="1541"/>
      <point x="863" y="1560"/>
      <point x="807" y="1566" type="curve"/>
      <point x="956" y="1582"/>
      <point x="1040" y="1661"/>
      <point x="1040" y="1776" type="curve" smooth="yes"/>
      <point x="1040" y="1899"/>
      <point x="932" y="1970"/>
      <point x="739" y="1970" type="curve" smooth="yes"/>
      <point x="655" y="1970"/>
      <point x="541" y="1954"/>
      <point x="461" y="1935" type="curve"/>
      <point x="432" y="1783" type="line"/>
      <point x="458" y="1790"/>
      <point x="485" y="1797"/>
      <point x="512" y="1804" type="curve"/>
      <point x="591" y="1821"/>
      <point x="653" y="1830"/>
      <point x="699" y="1830" type="curve" smooth="yes"/>
      <point x="791" y="1830"/>
      <point x="848" y="1798"/>
      <point x="848" y="1743" type="curve" smooth="yes"/>
      <point x="848" y="1678"/>
      <point x="783" y="1638"/>
      <point x="666" y="1638" type="curve" smooth="yes"/>
      <point x="557" y="1638" type="line"/>
      <point x="528" y="1492" type="line"/>
      <point x="639" y="1492" type="line" smooth="yes"/>
      <point x="742" y="1492"/>
      <point x="801" y="1457"/>
      <point x="801" y="1389" type="curve" smooth="yes"/>
      <point x="801" y="1304"/>
      <point x="731" y="1266"/>
      <point x="680" y="1253" type="curve" smooth="yes"/>
      <point x="655" y="1246"/>
      <point x="624" y="1243"/>
      <point x="588" y="1243" type="curve" smooth="yes"/>
      <point x="495" y="1243"/>
      <point x="395" y="1261"/>
      <point x="307" y="1298" type="curve"/>
      <point x="276" y="1144" type="line"/>
      <point x="359" y="1120"/>
      <point x="472" y="1103"/>
      <point x="569" y="1103" type="curve" smooth="yes"/>
    </contour>
  </outline>
</glyph>
<glyph name="uni03BC.1" format="1">
  <advance width="1233"/>
  <unicode hex="00B5"/>
  <note>
	uni03BC.1
  </note>
  <outline>
    <contour>
      <point x="233" y="-428" type="line"/>
      <point x="330" y="66" type="line"/>
      <point x="350" y="3"/>
      <point x="400" y="-29"/>
      <point x="479" y="-29" type="curve" smooth="yes"/>
      <point x="572" y="-29"/>
      <point x="656" y="24"/>
      <point x="725" y="129" type="curve"/>
      <point x="741" y="20"/>
      <point x="790" y="-29"/>
      <point x="883" y="-29" type="curve" smooth="yes"/>
      <point x="931" y="-29"/>
      <point x="986" y="-16"/>
      <point x="1047" y="16" type="curve"/>
      <point x="1090" y="238" type="line"/>
      <point x="1084" y="233"/>
      <point x="1077" y="229"/>
      <point x="1070" y="226" type="curve"/>
      <point x="1054" y="217"/>
      <point x="1040" y="213"/>
      <point x="1028" y="213" type="curve" smooth="yes"/>
      <point x="1003" y="213"/>
      <point x="987" y="233"/>
      <point x="987" y="264" type="curve" smooth="yes"/>
      <point x="987" y="275"/>
      <point x="988" y="284"/>
      <point x="990" y="293" type="curve"/>
      <point x="990" y="296" type="line"/>
      <point x="991" y="302" type="line"/>
      <point x="994" y="317" type="line"/>
      <point x="997" y="344" type="line"/>
      <point x="1147" y="1120" type="line"/>
      <point x="858" y="1120" type="line"/>
      <point x="727" y="440" type="line" smooth="yes"/>
      <point x="698" y="289"/>
      <point x="630" y="213"/>
      <point x="521" y="213" type="curve" smooth="yes"/>
      <point x="440" y="213"/>
      <point x="391" y="261"/>
      <point x="391" y="346" type="curve" smooth="yes"/>
      <point x="391" y="370"/>
      <point x="396" y="416"/>
      <point x="403" y="440" type="curve"/>
      <point x="535" y="1120" type="line"/>
      <point x="246" y="1120" type="line"/>
      <point x="-55" y="-428" type="line"/>
    </contour>
  </outline>
</glyph>
<glyph name="cedilla" format="1">
  <advance width="1233"/>
  <unicode hex="00B8"/>
  <note>
	cedilla
  </note>
  <outline>
    <contour>
      <point x="440" y="-401"/>
      <point x="511" y="-381"/>
      <point x="560" y="-342" type="curve" smooth="yes"/>
      <point x="610" y="-304"/>
      <point x="635" y="-252"/>
      <point x="635" y="-185" type="curve" smooth="yes"/>
      <point x="635" y="-127"/>
      <point x="611" y="-65"/>
      <point x="563" y="0" type="curve"/>
      <point x="422" y="0" type="line"/>
      <point x="445" y="-39"/>
      <point x="462" y="-73"/>
      <point x="472" y="-103" type="curve" smooth="yes"/>
      <point x="477" y="-118"/>
      <point x="479" y="-134"/>
      <point x="479" y="-151" type="curve" smooth="yes"/>
      <point x="479" y="-216"/>
      <point x="428" y="-254"/>
      <point x="339" y="-254" type="curve" smooth="yes"/>
      <point x="291" y="-254"/>
      <point x="225" y="-236"/>
      <point x="178" y="-219" type="curve"/>
      <point x="150" y="-375" type="line"/>
      <point x="155" y="-377"/>
      <point x="163" y="-379"/>
      <point x="172" y="-381" type="curve" smooth="yes"/>
      <point x="230" y="-392" type="line"/>
      <point x="249" y="-395" type="line" smooth="yes"/>
      <point x="280" y="-399"/>
      <point x="313" y="-401"/>
      <point x="349" y="-401" type="curve" smooth="yes"/>
    </contour>
  </outline>
</glyph>
<glyph name="uni00B9" format="1">
  <advance width="1233"/>
  <unicode hex="00B9"/>
  <note>
	uni00B9
  </note>
  <outline>
    <contour>
      <point x="946" y="1120" type="line"/>
      <point x="975" y="1265" type="line"/>
      <point x="748" y="1265" type="line"/>
      <point x="883" y="1955" type="line"/>
      <point x="686" y="1955" type="line"/>
      <point x="457" y="1914" type="line"/>
      <point x="428" y="1765" type="line"/>
      <point x="657" y="1808" type="line"/>
      <point x="551" y="1265" type="line"/>
      <point x="315" y="1265" type="line"/>
      <point x="289" y="1120" type="line"/>
    </contour>
  </outline>
</glyph>
<glyph name="ordmasculine" format="1">
  <advance width="1233"/>
  <unicode hex="00BA"/>
  <note>
	ordmasculine
  </note>
  <outline>
    <contour>
      <point x="763" y="698"/>
      <point x="867" y="742"/>
      <point x="948" y="838" type="curve" smooth="yes"/>
      <point x="1027" y="933"/>
      <point x="1067" y="1056"/>
      <point x="1067" y="1191" type="curve" smooth="yes"/>
      <point x="1067" y="1304"/>
      <point x="1040" y="1379"/>
      <point x="981" y="1436" type="curve" smooth="yes"/>
      <point x="923" y="1492"/>
      <point x="843" y="1520"/>
      <point x="740" y="1520" type="curve" smooth="yes"/>
      <point x="611" y="1520"/>
      <point x="506" y="1473"/>
      <point x="427" y="1380" type="curve" smooth="yes"/>
      <point x="348" y="1288"/>
      <point x="307" y="1166"/>
      <point x="307" y="1027" type="curve" smooth="yes"/>
      <point x="307" y="914"/>
      <point x="334" y="838"/>
      <point x="394" y="782" type="curve" smooth="yes"/>
      <point x="454" y="726"/>
      <point x="531" y="698"/>
      <point x="634" y="698" type="curve" smooth="yes"/>
    </contour>
    <contour>
      <point x="610" y="862"/>
      <point x="579" y="876"/>
      <point x="554" y="905" type="curve"/>
      <point x="531" y="934"/>
      <point x="520" y="977"/>
      <point x="520" y="1032" type="curve" smooth="yes"/>
      <point x="520" y="1111"/>
      <point x="540" y="1197"/>
      <point x="580" y="1261" type="curve" smooth="yes"/>
      <point x="617" y="1321"/>
      <point x="668" y="1356"/>
      <point x="728" y="1356" type="curve" smooth="yes"/>
      <point x="765" y="1356"/>
      <point x="799" y="1342"/>
      <point x="822" y="1315" type="curve" smooth="yes"/>
      <point x="847" y="1286"/>
      <point x="856" y="1244"/>
      <point x="856" y="1188" type="curve" smooth="yes"/>
      <point x="856" y="1105"/>
      <point x="835" y="1021"/>
      <point x="796" y="957" type="curve" smooth="yes"/>
      <point x="759" y="897"/>
      <point x="708" y="862"/>
      <point x="649" y="862" type="curve" smooth="yes"/>
    </contour>
    <contour>
      <point x="909" y="428" type="line"/>
      <point x="942" y="598" type="line"/>
      <point x="254" y="598" type="line"/>
      <point x="221" y="428" type="line"/>
    </contour>
  </outline>
</glyph>
<glyph name="guillemotright" format="1">
  <advance width="1233"/>
  <unicode hex="00BB"/>
  <note>
	guillemotright
  </note>
  <outline>
    <contour>
      <point x="627" y="535" type="line"/>
      <point x="653" y="666" type="line"/>
      <point x="260" y="1059" type="line"/>
      <point x="215" y="821" type="line"/>
      <point x="449" y="600" type="line"/>
      <point x="127" y="379" type="line"/>
      <point x="82" y="141" type="line"/>
    </contour>
    <contour>
      <point x="1081" y="535" type="line"/>
      <point x="1108" y="666" type="line"/>
      <point x="715" y="1059" type="line"/>
      <point x="670" y="821" type="line"/>
      <point x="903" y="600" type="line"/>
      <point x="582" y="379" type="line"/>
      <point x="537" y="141" type="line"/>
    </contour>
  </outline>
</glyph>
<glyph name="onehalf" format="1">
  <advance width="1233"/>
  <unicode hex="00BD"/>
  <note>
	onehalf
  </note>
  <outline>
    <contour>
      <point x="688" y="824" type="line"/>
      <point x="717" y="969" type="line"/>
      <point x="490" y="969" type="line"/>
      <point x="625" y="1659" type="line"/>
      <point x="428" y="1659" type="line"/>
      <point x="199" y="1618" type="line"/>
      <point x="170" y="1469" type="line"/>
      <point x="399" y="1512" type="line"/>
      <point x="293" y="969" type="line"/>
      <point x="57" y="969" type="line"/>
      <point x="31" y="824" type="line"/>
    </contour>
    <contour>
      <point x="1143" y="762" type="line"/>
      <point x="1106" y="879" type="line"/>
      <point x="47" y="618" type="line"/>
      <point x="84" y="500" type="line"/>
    </contour>
    <contour>
      <point x="1078" y="-270" type="line"/>
      <point x="1106" y="-125" type="line"/>
      <point x="668" y="-125" type="line"/>
      <point x="705" y="-99" type="line"/>
      <point x="730" y="-81" type="line"/>
      <point x="732" y="-80"/>
      <point x="746" y="-70"/>
      <point x="772" y="-52" type="curve" smooth="yes"/>
      <point x="909" y="43"/>
      <point x="1013" y="127"/>
      <point x="1083" y="201" type="curve" smooth="yes"/>
      <point x="1149" y="272"/>
      <point x="1182" y="334"/>
      <point x="1182" y="387" type="curve" smooth="yes"/>
      <point x="1182" y="436"/>
      <point x="1156" y="491"/>
      <point x="1105" y="528" type="curve" smooth="yes"/>
      <point x="1054" y="564"/>
      <point x="980" y="582"/>
      <point x="881" y="582" type="curve" smooth="yes"/>
      <point x="788" y="582"/>
      <point x="697" y="567"/>
      <point x="588" y="535" type="curve"/>
      <point x="557" y="373" type="line"/>
      <point x="654" y="418"/>
      <point x="762" y="444"/>
      <point x="845" y="444" type="curve" smooth="yes"/>
      <point x="892" y="444"/>
      <point x="926" y="436"/>
      <point x="949" y="420" type="curve" smooth="yes"/>
      <point x="972" y="404"/>
      <point x="985" y="379"/>
      <point x="985" y="356" type="curve" smooth="yes"/>
      <point x="985" y="323"/>
      <point x="954" y="277"/>
      <point x="892" y="217" type="curve" smooth="yes"/>
      <point x="831" y="158"/>
      <point x="728" y="76"/>
      <point x="585" y="-27" type="curve" smooth="yes"/>
      <point x="549" y="-53" type="line"/>
      <point x="524" y="-70" type="line"/>
      <point x="495" y="-91" type="line"/>
      <point x="443" y="-129" type="line"/>
      <point x="414" y="-270" type="line"/>
    </contour>
  </outline>
</glyph>
<glyph name="threequarters" format="1">
  <advance width="1233"/>
  <unicode hex="00BE"/>
  <note>
	threequarters
  </note>
  <outline>
    <contour>
      <point x="476" y="809"/>
      <point x="580" y="834"/>
      <point x="653" y="883" type="curve" smooth="yes"/>
      <point x="725" y="931"/>
      <point x="762" y="1001"/>
      <point x="762" y="1086" type="curve" smooth="yes"/>
      <point x="762" y="1141"/>
      <point x="746" y="1181"/>
      <point x="713" y="1214" type="curve" smooth="yes"/>
      <point x="680" y="1247"/>
      <point x="636" y="1266"/>
      <point x="580" y="1272" type="curve"/>
      <point x="729" y="1288"/>
      <point x="813" y="1367"/>
      <point x="813" y="1482" type="curve" smooth="yes"/>
      <point x="813" y="1605"/>
      <point x="705" y="1676"/>
      <point x="512" y="1676" type="curve" smooth="yes"/>
      <point x="428" y="1676"/>
      <point x="314" y="1660"/>
      <point x="234" y="1641" type="curve"/>
      <point x="205" y="1489" type="line"/>
      <point x="231" y="1496"/>
      <point x="258" y="1503"/>
      <point x="285" y="1510" type="curve"/>
      <point x="364" y="1527"/>
      <point x="426" y="1536"/>
      <point x="472" y="1536" type="curve" smooth="yes"/>
      <point x="564" y="1536"/>
      <point x="621" y="1504"/>
      <point x="621" y="1449" type="curve" smooth="yes"/>
      <point x="621" y="1384"/>
      <point x="556" y="1344"/>
      <point x="439" y="1344" type="curve" smooth="yes"/>
      <point x="330" y="1344" type="line"/>
      <point x="301" y="1198" type="line"/>
      <point x="412" y="1198" type="line" smooth="yes"/>
      <point x="515" y="1198"/>
      <point x="574" y="1163"/>
      <point x="574" y="1095" type="curve" smooth="yes"/>
      <point x="574" y="1010"/>
      <point x="504" y="972"/>
      <point x="453" y="959" type="curve" smooth="yes"/>
      <point x="428" y="952"/>
      <point x="397" y="949"/>
      <point x="361" y="949" type="curve" smooth="yes"/>
      <point x="268" y="949"/>
      <point x="168" y="967"/>
      <point x="80" y="1004" type="curve"/>
      <point x="49" y="850" type="line"/>
      <point x="132" y="826"/>
      <point x="245" y="809"/>
      <point x="342" y="809" type="curve" smooth="yes"/>
    </contour>
    <contour>
      <point x="1143" y="762" type="line"/>
      <point x="1106" y="879" type="line"/>
      <point x="47" y="618" type="line"/>
      <point x="84" y="500" type="line"/>
    </contour>
    <contour>
      <point x="948" y="-270" type="line"/>
      <point x="983" y="-90" type="line"/>
      <point x="1091" y="-90" type="line"/>
      <point x="1118" y="53" type="line"/>
      <point x="1009" y="53" type="line"/>
      <point x="1110" y="565" type="line"/>
      <point x="905" y="565" type="line"/>
      <point x="438" y="72" type="line"/>
      <point x="407" y="-90" type="line"/>
      <point x="796" y="-90" type="line"/>
      <point x="760" y="-270" type="line"/>
    </contour>
    <contour>
      <point x="887" y="383" type="line"/>
      <point x="823" y="53" type="line"/>
      <point x="573" y="53" type="line"/>
    </contour>
  </outline>
</glyph>
<glyph name="questiondown" format="1">
  <advance width="1233"/>
  <unicode hex="00BF"/>
  <note>
	questiondown
  </note>
  <outline>
    <contour>
      <point x="831" y="1222"/>
      <point x="923" y="1298"/>
      <point x="923" y="1413" type="curve" smooth="yes"/>
      <point x="923" y="1434"/>
      <point x="920" y="1452"/>
      <point x="914" y="1469" type="curve" smooth="yes"/>
      <point x="894" y="1527"/>
      <point x="850" y="1556"/>
      <point x="783" y="1556" type="curve" smooth="yes"/>
      <point x="699" y="1556"/>
      <point x="647" y="1509"/>
      <point x="611" y="1441" type="curve" smooth="yes"/>
      <point x="603" y="1425"/>
      <point x="596" y="1402"/>
      <point x="596" y="1390" type="curve" smooth="yes"/>
      <point x="596" y="1360" type="line" smooth="yes"/>
      <point x="596" y="1324"/>
      <point x="611" y="1289"/>
      <point x="632" y="1264" type="curve"/>
      <point x="658" y="1236"/>
      <point x="691" y="1222"/>
      <point x="732" y="1222" type="curve" smooth="yes"/>
    </contour>
    <contour>
      <point x="590" y="-27"/>
      <point x="739" y="13"/>
      <point x="872" y="86" type="curve"/>
      <point x="924" y="354" type="line"/>
      <point x="779" y="262"/>
      <point x="629" y="209"/>
      <point x="517" y="209" type="curve" smooth="yes"/>
      <point x="466" y="209"/>
      <point x="433" y="219"/>
      <point x="408" y="240" type="curve" smooth="yes"/>
      <point x="384" y="260"/>
      <point x="371" y="292"/>
      <point x="371" y="321" type="curve" smooth="yes"/>
      <point x="371" y="374"/>
      <point x="415" y="432"/>
      <point x="511" y="515" type="curve" smooth="yes"/>
      <point x="526" y="528" type="line"/>
      <point x="631" y="621" type="line" smooth="yes"/>
      <point x="696" y="677"/>
      <point x="737" y="720"/>
      <point x="770" y="772" type="curve" smooth="yes"/>
      <point x="799" y="818"/>
      <point x="819" y="873"/>
      <point x="831" y="938" type="curve" smooth="yes"/>
      <point x="860" y="1092" type="line"/>
      <point x="594" y="1092" type="line"/>
      <point x="571" y="969" type="line" smooth="yes"/>
      <point x="552" y="874"/>
      <point x="506" y="801"/>
      <point x="418" y="724" type="curve" smooth="yes"/>
      <point x="410" y="717" type="line"/>
      <point x="305" y="631" type="line" smooth="yes"/>
      <point x="224" y="563"/>
      <point x="164" y="500"/>
      <point x="122" y="419" type="curve" smooth="yes"/>
      <point x="101" y="378"/>
      <point x="90" y="329"/>
      <point x="90" y="272" type="curve" smooth="yes"/>
      <point x="90" y="183"/>
      <point x="123" y="111"/>
      <point x="189" y="56" type="curve" smooth="yes"/>
      <point x="256" y="0"/>
      <point x="341" y="-27"/>
      <point x="454" y="-27" type="curve" smooth="yes"/>
    </contour>
  </outline>
</glyph>
<glyph name="Aacute" format="1">
  <advance width="1233"/>
  <unicode hex="00C1"/>
  <note>
	Aacute
  </note>
  <outline>
    <contour>
      <point x="823" y="1588" type="line"/>
      <point x="1143" y="1852" type="line"/>
      <point x="862" y="1852" type="line"/>
      <point x="616" y="1588" type="line"/>
    </contour>
    <contour>
      <point x="186" y="0" type="line"/>
      <point x="348" y="369" type="line"/>
      <point x="748" y="369" type="line"/>
      <point x="762" y="0" type="line"/>
      <point x="1055" y="0" type="line"/>
      <point x="942" y="1493" type="line"/>
      <point x="582" y="1493" type="line"/>
      <point x="-113" y="0" type="line"/>
    </contour>
    <contour>
      <point x="717" y="1219" type="line"/>
      <point x="737" y="612" type="line"/>
      <point x="453" y="612" type="line"/>
    </contour>
  </outline>
</glyph>
<glyph name="Acircumflex" format="1">
  <advance width="1233"/>
  <unicode hex="00C2"/>
  <note>
	Acircumflex
  </note>
  <outline>
    <contour>
      <point x="575" y="1588" type="line"/>
      <point x="805" y="1749" type="line"/>
      <point x="969" y="1588" type="line"/>
      <point x="1138" y="1588" type="line"/>
      <point x="987" y="1852" type="line"/>
      <point x="639" y="1852" type="line"/>
      <point x="395" y="1588" type="line"/>
    </contour>
    <contour>
      <point x="186" y="0" type="line"/>
      <point x="348" y="369" type="line"/>
      <point x="748" y="369" type="line"/>
      <point x="762" y="0" type="line"/>
      <point x="1055" y="0" type="line"/>
      <point x="942" y="1493" type="line"/>
      <point x="582" y="1493" type="line"/>
      <point x="-113" y="0" type="line"/>
    </contour>
    <contour>
      <point x="717" y="1219" type="line"/>
      <point x="737" y="612" type="line"/>
      <point x="453" y="612" type="line"/>
    </contour>
  </outline>
</glyph>
<glyph name="Atilde" format="1">
  <advance width="1233"/>
  <unicode hex="00C3"/>
  <note>
	Atilde
  </note>
  <outline>
    <contour>
      <point x="559" y="1589" type="line"/>
      <point x="564" y="1618"/>
      <point x="577" y="1655"/>
      <point x="596" y="1678" type="curve" smooth="yes"/>
      <point x="614" y="1699"/>
      <point x="635" y="1709"/>
      <point x="660" y="1709" type="curve" smooth="yes"/>
      <point x="680" y="1709"/>
      <point x="706" y="1698"/>
      <point x="733" y="1677" type="curve" smooth="yes"/>
      <point x="782" y="1640" type="line" smooth="yes"/>
      <point x="813" y="1617"/>
      <point x="831" y="1607"/>
      <point x="852" y="1600" type="curve" smooth="yes"/>
      <point x="874" y="1593"/>
      <point x="897" y="1589"/>
      <point x="921" y="1589" type="curve" smooth="yes"/>
      <point x="1046" y="1589"/>
      <point x="1138" y="1686"/>
      <point x="1171" y="1855" type="curve"/>
      <point x="1034" y="1855" type="line"/>
      <point x="1021" y="1779"/>
      <point x="984" y="1736"/>
      <point x="932" y="1736" type="curve" smooth="yes"/>
      <point x="909" y="1736"/>
      <point x="881" y="1747"/>
      <point x="864" y="1763" type="curve"/>
      <point x="811" y="1804" type="line" smooth="yes"/>
      <point x="760" y="1841"/>
      <point x="724" y="1855"/>
      <point x="673" y="1855" type="curve" smooth="yes"/>
      <point x="548" y="1855"/>
      <point x="455" y="1760"/>
      <point x="422" y="1589" type="curve"/>
    </contour>
    <contour>
      <point x="186" y="0" type="line"/>
      <point x="348" y="369" type="line"/>
      <point x="748" y="369" type="line"/>
      <point x="762" y="0" type="line"/>
      <point x="1055" y="0" type="line"/>
      <point x="942" y="1493" type="line"/>
      <point x="582" y="1493" type="line"/>
      <point x="-113" y="0" type="line"/>
    </contour>
    <contour>
      <point x="717" y="1219" type="line"/>
      <point x="737" y="612" type="line"/>
      <point x="453" y="612" type="line"/>
    </contour>
  </outline>
</glyph>
<glyph name="Aring" format="1">
  <advance width="1233"/>
  <unicode hex="00C5"/>
  <note>
	Aring
  </note>
  <outline>
    <contour>
      <point x="182" y="0" type="line"/>
      <point x="344" y="369" type="line"/>
      <point x="739" y="369" type="line"/>
      <point x="760" y="0" type="line"/>
      <point x="1055" y="0" type="line"/>
      <point x="948" y="1409" type="line"/>
      <point x="1005" y="1460"/>
      <point x="1038" y="1530"/>
      <point x="1038" y="1618" type="curve" smooth="yes"/>
      <point x="1038" y="1718"/>
      <point x="983" y="1811"/>
      <point x="896" y="1863" type="curve" smooth="yes"/>
      <point x="852" y="1888"/>
      <point x="804" y="1901"/>
      <point x="753" y="1901" type="curve" smooth="yes"/>
      <point x="672" y="1901"/>
      <point x="608" y="1872"/>
      <point x="553" y="1817" type="curve" smooth="yes"/>
      <point x="497" y="1761"/>
      <point x="469" y="1695"/>
      <point x="469" y="1618" type="curve" smooth="yes"/>
      <point x="469" y="1543"/>
      <point x="499" y="1469"/>
      <point x="547" y="1421" type="curve"/>
      <point x="-113" y="0" type="line"/>
    </contour>
    <contour>
      <point x="682" y="1485"/>
      <point x="623" y="1544"/>
      <point x="623" y="1616" type="curve" smooth="yes"/>
      <point x="623" y="1663"/>
      <point x="648" y="1706"/>
      <point x="689" y="1730" type="curve" smooth="yes"/>
      <point x="709" y="1741"/>
      <point x="731" y="1747"/>
      <point x="754" y="1747" type="curve" smooth="yes"/>
      <point x="799" y="1747"/>
      <point x="843" y="1721"/>
      <point x="867" y="1681" type="curve" smooth="yes"/>
      <point x="879" y="1661"/>
      <point x="885" y="1639"/>
      <point x="885" y="1616" type="curve" smooth="yes"/>
      <point x="885" y="1569"/>
      <point x="860" y="1526"/>
      <point x="820" y="1503" type="curve" smooth="yes"/>
      <point x="799" y="1491"/>
      <point x="777" y="1485"/>
      <point x="754" y="1485" type="curve" smooth="yes"/>
    </contour>
    <contour>
      <point x="709" y="1223" type="line"/>
      <point x="729" y="612" type="line"/>
      <point x="451" y="612" type="line"/>
    </contour>
  </outline>
</glyph>
<glyph name="Ccedilla" format="1">
  <advance width="1233"/>
  <unicode hex="00C7"/>
  <note>
	Ccedilla
  </note>
  <outline>
    <contour>
      <point x="985" y="1514"/>
      <point x="934" y="1520"/>
      <point x="883" y="1520" type="curve" smooth="yes"/>
      <point x="670" y="1520"/>
      <point x="498" y="1444"/>
      <point x="367" y="1296" type="curve" smooth="yes"/>
      <point x="287" y="1205"/>
      <point x="223" y="1089"/>
      <point x="176" y="948" type="curve" smooth="yes"/>
      <point x="129" y="805"/>
      <point x="105" y="656"/>
      <point x="105" y="517" type="curve" smooth="yes"/>
      <point x="105" y="153"/>
      <point x="276" y="-3"/>
      <point x="531" y="-26" type="curve"/>
      <point x="539" y="-41"/>
      <point x="546" y="-54"/>
      <point x="551" y="-66" type="curve" smooth="yes"/>
      <point x="556" y="-79"/>
      <point x="560" y="-87"/>
      <point x="561" y="-90" type="curve"/>
      <point x="570" y="-111"/>
      <point x="574" y="-132"/>
      <point x="574" y="-151" type="curve" smooth="yes"/>
      <point x="574" y="-216"/>
      <point x="523" y="-254"/>
      <point x="434" y="-254" type="curve" smooth="yes"/>
      <point x="385" y="-254"/>
      <point x="320" y="-236"/>
      <point x="273" y="-219" type="curve"/>
      <point x="245" y="-375" type="line"/>
      <point x="281" y="-384" type="line"/>
      <point x="305" y="-391"/>
      <point x="378" y="-401"/>
      <point x="443" y="-401" type="curve" smooth="yes"/>
      <point x="535" y="-401"/>
      <point x="606" y="-381"/>
      <point x="655" y="-342" type="curve" smooth="yes"/>
      <point x="705" y="-304"/>
      <point x="730" y="-252"/>
      <point x="730" y="-185" type="curve" smooth="yes"/>
      <point x="730" y="-137"/>
      <point x="712" y="-84"/>
      <point x="676" y="-25" type="curve"/>
      <point x="710" y="-22"/>
      <point x="739" y="-17"/>
      <point x="763" y="-11" type="curve" smooth="yes"/>
      <point x="817" y="1"/>
      <point x="869" y="19"/>
      <point x="920" y="43" type="curve"/>
      <point x="984" y="371" type="line"/>
      <point x="947" y="343"/>
      <point x="917" y="323"/>
      <point x="896" y="310" type="curve" smooth="yes"/>
      <point x="813" y="257"/>
      <point x="731" y="231"/>
      <point x="651" y="231" type="curve" smooth="yes"/>
      <point x="490" y="231"/>
      <point x="404" y="336"/>
      <point x="404" y="537" type="curve" smooth="yes"/>
      <point x="404" y="713"/>
      <point x="466" y="933"/>
      <point x="558" y="1074" type="curve" smooth="yes"/>
      <point x="638" y="1195"/>
      <point x="734" y="1257"/>
      <point x="853" y="1257" type="curve" smooth="yes"/>
      <point x="902" y="1257"/>
      <point x="959" y="1246"/>
      <point x="1007" y="1223" type="curve" smooth="yes"/>
      <point x="1056" y="1200"/>
      <point x="1096" y="1165"/>
      <point x="1129" y="1120" type="curve"/>
      <point x="1193" y="1448" type="line"/>
      <point x="1145" y="1471"/>
      <point x="1093" y="1489"/>
      <point x="1038" y="1502" type="curve" smooth="yes"/>
    </contour>
  </outline>
</glyph>
<glyph name="Igrave" format="1">
  <advance width="1233"/>
  <unicode hex="00CC"/>
  <note>
	Igrave
  </note>
  <outline>
    <contour>
      <point x="903" y="1589" type="line"/>
      <point x="760" y="1853" type="line"/>
      <point x="496" y="1853" type="line"/>
      <point x="725" y="1589" type="line"/>
    </contour>
    <contour>
      <point x="915" y="0" type="line"/>
      <point x="967" y="260" type="line"/>
      <point x="670" y="260" type="line"/>
      <point x="858" y="1233" type="line"/>
      <point x="1155" y="1233" type="line"/>
      <point x="1206" y="1493" type="line"/>
      <point x="317" y="1493" type="line"/>
      <point x="266" y="1233" type="line"/>
      <point x="563" y="1233" type="line"/>
      <point x="375" y="260" type="line"/>
      <point x="78" y="260" type="line"/>
      <point x="27" y="0" type="line"/>
    </contour>
  </outline>
</glyph>
<glyph name="Icircumflex" format="1">
  <advance width="1233"/>
  <unicode hex="00CE"/>
  <note>
	Icircumflex
  </note>
  <outline>
    <contour>
      <point x="581" y="1589" type="line"/>
      <point x="811" y="1750" type="line"/>
      <point x="975" y="1589" type="line"/>
      <point x="1144" y="1589" type="line"/>
      <point x="993" y="1853" type="line"/>
      <point x="645" y="1853" type="line"/>
      <point x="401" y="1589" type="line"/>
    </contour>
    <contour>
      <point x="915" y="0" type="line"/>
      <point x="967" y="260" type="line"/>
      <point x="670" y="260" type="line"/>
      <point x="858" y="1233" type="line"/>
      <point x="1155" y="1233" type="line"/>
      <point x="1206" y="1493" type="line"/>
      <point x="317" y="1493" type="line"/>
      <point x="266" y="1233" type="line"/>
      <point x="563" y="1233" type="line"/>
      <point x="375" y="260" type="line"/>
      <point x="78" y="260" type="line"/>
      <point x="27" y="0" type="line"/>
    </contour>
  </outline>
</glyph>
<glyph name="Eth" format="1">
  <advance width="1233"/>
  <unicode hex="00D0"/>
  <note>
	Eth
  </note>
  <outline>
    <contour>
      <point x="352" y="0" type="line" smooth="yes"/>
      <point x="643" y="0"/>
      <point x="810" y="55"/>
      <point x="927" y="171" type="curve" smooth="yes"/>
      <point x="1026" y="267"/>
      <point x="1093" y="410"/>
      <point x="1141" y="603" type="curve" smooth="yes"/>
      <point x="1145" y="620"/>
      <point x="1153" y="657"/>
      <point x="1165" y="713" type="curve"/>
      <point x="1172" y="754"/>
      <point x="1178" y="788"/>
      <point x="1182" y="814" type="curve" smooth="yes"/>
      <point x="1191" y="875"/>
      <point x="1195" y="935"/>
      <point x="1195" y="996" type="curve" smooth="yes"/>
      <point x="1195" y="1332"/>
      <point x="1009" y="1493"/>
      <point x="628" y="1493" type="curve" smooth="yes"/>
      <point x="313" y="1493" type="line"/>
      <point x="196" y="901" type="line"/>
      <point x="61" y="901" type="line"/>
      <point x="14" y="664" type="line"/>
      <point x="151" y="664" type="line"/>
      <point x="22" y="0" type="line"/>
    </contour>
    <contour>
      <point x="446" y="664" type="line"/>
      <point x="657" y="664" type="line"/>
      <point x="702" y="901" type="line"/>
      <point x="491" y="901" type="line"/>
      <point x="554" y="1227" type="line"/>
      <point x="636" y="1227" type="line" smooth="yes"/>
      <point x="722" y="1227"/>
      <point x="786" y="1206"/>
      <point x="828" y="1163" type="curve" smooth="yes"/>
      <point x="869" y="1119"/>
      <point x="890" y="1056"/>
      <point x="890" y="960" type="curve" smooth="yes"/>
      <point x="890" y="887"/>
      <point x="879" y="790"/>
      <point x="858" y="695" type="curve" smooth="yes"/>
      <point x="838" y="600"/>
      <point x="805" y="507"/>
      <point x="773" y="442" type="curve" smooth="yes"/>
      <point x="742" y="382"/>
      <point x="706" y="339"/>
      <point x="653" y="310" type="curve" smooth="yes"/>
      <point x="602" y="281"/>
      <point x="539" y="266"/>
      <point x="464" y="266" type="curve" smooth="yes"/>
      <point x="368" y="266" type="line"/>
    </contour>
  </outline>
</glyph>
<glyph name="Ntilde" format="1">
  <advance width="1233"/>
  <unicode hex="00D1"/>
  <note>
	Ntilde
  </note>
  <outline>
    <contour>
      <point x="589" y="1588" type="line"/>
      <point x="594" y="1617"/>
      <point x="607" y="1654"/>
      <point x="626" y="1677" type="curve" smooth="yes"/>
      <point x="644" y="1698"/>
      <point x="665" y="1708"/>
      <point x="690" y="1708" type="curve" smooth="yes"/>
      <point x="710" y="1708"/>
      <point x="730" y="1699"/>
      <point x="742" y="1692" type="curve"/>
      <point x="747" y="1688"/>
      <point x="754" y="1683"/>
      <point x="763" y="1676" type="curve" smooth="yes"/>
      <point x="812" y="1639" type="line" smooth="yes"/>
      <point x="843" y="1616"/>
      <point x="861" y="1606"/>
      <point x="882" y="1599" type="curve" smooth="yes"/>
      <point x="904" y="1592"/>
      <point x="927" y="1588"/>
      <point x="951" y="1588" type="curve" smooth="yes"/>
      <point x="1076" y="1588"/>
      <point x="1168" y="1685"/>
      <point x="1201" y="1854" type="curve"/>
      <point x="1064" y="1854" type="line"/>
      <point x="1051" y="1778"/>
      <point x="1014" y="1735"/>
      <point x="962" y="1735" type="curve" smooth="yes"/>
      <point x="939" y="1735"/>
      <point x="911" y="1746"/>
      <point x="894" y="1762" type="curve"/>
      <point x="841" y="1803" type="line" smooth="yes"/>
      <point x="790" y="1840"/>
      <point x="754" y="1854"/>
      <point x="703" y="1854" type="curve" smooth="yes"/>
      <point x="578" y="1854"/>
      <point x="485" y="1759"/>
      <point x="452" y="1588" type="curve"/>
    </contour>
    <contour>
      <point x="238" y="0" type="line"/>
      <point x="449" y="1085" type="line"/>
      <point x="674" y="0" type="line"/>
      <point x="967" y="0" type="line"/>
      <point x="1255" y="1493" type="line"/>
      <point x="995" y="1493" type="line"/>
      <point x="784" y="408" type="line"/>
      <point x="569" y="1493" type="line"/>
      <point x="266" y="1493" type="line"/>
      <point x="-25" y="0" type="line"/>
    </contour>
  </outline>
</glyph>
<glyph name="Oacute" format="1">
  <advance width="1233"/>
  <unicode hex="00D3"/>
  <note>
	Oacute
  </note>
  <outline>
    <contour>
      <point x="833" y="1588" type="line"/>
      <point x="1153" y="1852" type="line"/>
      <point x="872" y="1852" type="line"/>
      <point x="626" y="1588" type="line"/>
    </contour>
    <contour>
      <point x="607" y="-29"/>
      <point x="703" y="-4"/>
      <point x="786" y="46" type="curve" smooth="yes"/>
      <point x="870" y="97"/>
      <point x="932" y="164"/>
      <point x="988" y="264" type="curve" smooth="yes"/>
      <point x="1100" y="459"/>
      <point x="1171" y="762"/>
      <point x="1171" y="1015" type="curve" smooth="yes"/>
      <point x="1171" y="1179"/>
      <point x="1139" y="1307"/>
      <point x="1058" y="1395" type="curve" smooth="yes"/>
      <point x="983" y="1478"/>
      <point x="871" y="1520"/>
      <point x="732" y="1520" type="curve" smooth="yes"/>
      <point x="519" y="1520"/>
      <point x="353" y="1420"/>
      <point x="246" y="1228" type="curve" smooth="yes"/>
      <point x="189" y="1128"/>
      <point x="144" y="1009"/>
      <point x="111" y="870" type="curve" smooth="yes"/>
      <point x="79" y="734"/>
      <point x="61" y="595"/>
      <point x="61" y="476" type="curve" smooth="yes"/>
      <point x="61" y="308"/>
      <point x="96" y="185"/>
      <point x="173" y="98" type="curve" smooth="yes"/>
      <point x="249" y="13"/>
      <point x="361" y="-29"/>
      <point x="500" y="-29" type="curve" smooth="yes"/>
    </contour>
    <contour>
      <point x="418" y="233"/>
      <point x="365" y="310"/>
      <point x="365" y="471" type="curve" smooth="yes"/>
      <point x="365" y="571"/>
      <point x="384" y="700"/>
      <point x="424" y="860" type="curve" smooth="yes"/>
      <point x="436" y="907" type="line"/>
      <point x="446" y="944" type="line"/>
      <point x="469" y="1017" type="line" smooth="yes"/>
      <point x="485" y="1065"/>
      <point x="495" y="1092"/>
      <point x="512" y="1121" type="curve" smooth="yes"/>
      <point x="563" y="1213"/>
      <point x="627" y="1260"/>
      <point x="708" y="1260" type="curve" smooth="yes"/>
      <point x="815" y="1260"/>
      <point x="868" y="1180"/>
      <point x="868" y="1020" type="curve" smooth="yes"/>
      <point x="868" y="920"/>
      <point x="840" y="753"/>
      <point x="809" y="630" type="curve" smooth="yes"/>
      <point x="800" y="594" type="line" smooth="yes"/>
      <point x="775" y="497"/>
      <point x="750" y="429"/>
      <point x="721" y="373" type="curve" smooth="yes"/>
      <point x="673" y="282"/>
      <point x="606" y="233"/>
      <point x="525" y="233" type="curve" smooth="yes"/>
    </contour>
  </outline>
</glyph>
<glyph name="Otilde" format="1">
  <advance width="1233"/>
  <unicode hex="00D5"/>
  <note>
	Otilde
  </note>
  <outline>
    <contour>
      <point x="559" y="1589" type="line"/>
      <point x="564" y="1618"/>
      <point x="577" y="1655"/>
      <point x="596" y="1678" type="curve" smooth="yes"/>
      <point x="614" y="1699"/>
      <point x="635" y="1709"/>
      <point x="660" y="1709" type="curve" smooth="yes"/>
      <point x="680" y="1709"/>
      <point x="700" y="1700"/>
      <point x="712" y="1693" type="curve"/>
      <point x="717" y="1689"/>
      <point x="724" y="1684"/>
      <point x="733" y="1677" type="curve" smooth="yes"/>
      <point x="782" y="1640" type="line" smooth="yes"/>
      <point x="813" y="1617"/>
      <point x="831" y="1607"/>
      <point x="852" y="1600" type="curve" smooth="yes"/>
      <point x="874" y="1593"/>
      <point x="897" y="1589"/>
      <point x="921" y="1589" type="curve" smooth="yes"/>
      <point x="1046" y="1589"/>
      <point x="1138" y="1686"/>
      <point x="1171" y="1855" type="curve"/>
      <point x="1034" y="1855" type="line"/>
      <point x="1021" y="1779"/>
      <point x="984" y="1736"/>
      <point x="932" y="1736" type="curve" smooth="yes"/>
      <point x="909" y="1736"/>
      <point x="881" y="1747"/>
      <point x="864" y="1763" type="curve"/>
      <point x="811" y="1804" type="line" smooth="yes"/>
      <point x="760" y="1841"/>
      <point x="724" y="1855"/>
      <point x="673" y="1855" type="curve" smooth="yes"/>
      <point x="548" y="1855"/>
      <point x="455" y="1760"/>
      <point x="422" y="1589" type="curve"/>
    </contour>
    <contour>
      <point x="607" y="-29"/>
      <point x="703" y="-4"/>
      <point x="786" y="46" type="curve" smooth="yes"/>
      <point x="870" y="97"/>
      <point x="932" y="164"/>
      <point x="988" y="264" type="curve" smooth="yes"/>
      <point x="1100" y="459"/>
      <point x="1171" y="762"/>
      <point x="1171" y="1015" type="curve" smooth="yes"/>
      <point x="1171" y="1179"/>
      <point x="1139" y="1307"/>
      <point x="1058" y="1395" type="curve" smooth="yes"/>
      <point x="983" y="1478"/>
      <point x="871" y="1520"/>
      <point x="732" y="1520" type="curve" smooth="yes"/>
      <point x="519" y="1520"/>
      <point x="353" y="1420"/>
      <point x="246" y="1228" type="curve" smooth="yes"/>
      <point x="189" y="1128"/>
      <point x="144" y="1009"/>
      <point x="111" y="870" type="curve" smooth="yes"/>
      <point x="79" y="734"/>
      <point x="61" y="595"/>
      <point x="61" y="476" type="curve" smooth="yes"/>
      <point x="61" y="308"/>
      <point x="96" y="185"/>
      <point x="173" y="98" type="curve" smooth="yes"/>
      <point x="249" y="13"/>
      <point x="361" y="-29"/>
      <point x="500" y="-29" type="curve" smooth="yes"/>
    </contour>
    <contour>
      <point x="418" y="233"/>
      <point x="365" y="310"/>
      <point x="365" y="471" type="curve" smooth="yes"/>
      <point x="365" y="571"/>
      <point x="384" y="700"/>
      <point x="424" y="860" type="curve" smooth="yes"/>
      <point x="436" y="907" type="line"/>
      <point x="446" y="944" type="line"/>
      <point x="469" y="1017" type="line" smooth="yes"/>
      <point x="485" y="1065"/>
      <point x="495" y="1092"/>
      <point x="512" y="1121" type="curve" smooth="yes"/>
      <point x="563" y="1213"/>
      <point x="627" y="1260"/>
      <point x="708" y="1260" type="curve" smooth="yes"/>
      <point x="815" y="1260"/>
      <point x="868" y="1180"/>
      <point x="868" y="1020" type="curve" smooth="yes"/>
      <point x="868" y="920"/>
      <point x="840" y="753"/>
      <point x="809" y="630" type="curve" smooth="yes"/>
      <point x="800" y="594" type="line" smooth="yes"/>
      <point x="775" y="497"/>
      <point x="750" y="429"/>
      <point x="721" y="373" type="curve" smooth="yes"/>
      <point x="673" y="282"/>
      <point x="606" y="233"/>
      <point x="525" y="233" type="curve" smooth="yes"/>
    </contour>
  </outline>
</glyph>
<glyph name="Odieresis" format="1">
  <advance width="1233"/>
  <unicode hex="00D6"/>
  <note>
	Odieresis
  </note>
  <outline>
    <contour>
      <point x="663" y="1606" type="line" smooth="yes"/>
      <point x="682" y="1606"/>
      <point x="692" y="1615"/>
      <point x="695" y="1633" type="curve" smooth="yes"/>
      <point x="732" y="1819" type="line"/>
      <point x="732" y="1820"/>
      <point x="732" y="1821"/>
      <point x="733" y="1822" type="curve"/>
      <point x="733" y="1826" type="line" smooth="yes"/>
      <point x="733" y="1843"/>
      <point x="724" y="1852"/>
      <point x="706" y="1852" type="curve" smooth="yes"/>
      <point x="531" y="1852" type="line" smooth="yes"/>
      <point x="514" y="1852"/>
      <point x="503" y="1843"/>
      <point x="499" y="1825" type="curve" smooth="yes"/>
      <point x="461" y="1639" type="line"/>
      <point x="461" y="1637" type="line"/>
      <point x="460" y="1636"/>
      <point x="460" y="1635"/>
      <point x="460" y="1632" type="curve" smooth="yes"/>
      <point x="460" y="1615"/>
      <point x="469" y="1606"/>
      <point x="487" y="1606" type="curve" smooth="yes"/>
    </contour>
    <contour>
      <point x="1060" y="1606" type="line" smooth="yes"/>
      <point x="1079" y="1606"/>
      <point x="1089" y="1615"/>
      <point x="1092" y="1633" type="curve" smooth="yes"/>
      <point x="1128" y="1819" type="line" smooth="yes"/>
      <point x="1132" y="1839"/>
      <point x="1121" y="1852"/>
      <point x="1101" y="1852" type="curve" smooth="yes"/>
      <point x="926" y="1852" type="line" smooth="yes"/>
      <point x="908" y="1852"/>
      <point x="897" y="1843"/>
      <point x="894" y="1825" type="curve" smooth="yes"/>
      <point x="857" y="1639" type="line"/>
      <point x="857" y="1637" type="line"/>
      <point x="856" y="1636"/>
      <point x="856" y="1635"/>
      <point x="856" y="1632" type="curve" smooth="yes"/>
      <point x="856" y="1615"/>
      <point x="865" y="1606"/>
      <point x="883" y="1606" type="curve" smooth="yes"/>
    </contour>
    <contour>
      <point x="607" y="-29"/>
      <point x="703" y="-4"/>
      <point x="786" y="46" type="curve" smooth="yes"/>
      <point x="870" y="97"/>
      <point x="932" y="164"/>
      <point x="988" y="264" type="curve" smooth="yes"/>
      <point x="1100" y="459"/>
      <point x="1171" y="762"/>
      <point x="1171" y="1015" type="curve" smooth="yes"/>
      <point x="1171" y="1179"/>
      <point x="1139" y="1307"/>
      <point x="1058" y="1395" type="curve" smooth="yes"/>
      <point x="983" y="1478"/>
      <point x="871" y="1520"/>
      <point x="732" y="1520" type="curve" smooth="yes"/>
      <point x="519" y="1520"/>
      <point x="353" y="1420"/>
      <point x="246" y="1228" type="curve" smooth="yes"/>
      <point x="189" y="1128"/>
      <point x="144" y="1009"/>
      <point x="111" y="870" type="curve" smooth="yes"/>
      <point x="79" y="734"/>
      <point x="61" y="595"/>
      <point x="61" y="476" type="curve" smooth="yes"/>
      <point x="61" y="308"/>
      <point x="96" y="185"/>
      <point x="173" y="98" type="curve" smooth="yes"/>
      <point x="249" y="13"/>
      <point x="361" y="-29"/>
      <point x="500" y="-29" type="curve" smooth="yes"/>
    </contour>
    <contour>
      <point x="418" y="233"/>
      <point x="365" y="310"/>
      <point x="365" y="471" type="curve" smooth="yes"/>
      <point x="365" y="571"/>
      <point x="384" y="700"/>
      <point x="424" y="860" type="curve" smooth="yes"/>
      <point x="436" y="907" type="line"/>
      <point x="446" y="944" type="line"/>
      <point x="469" y="1017" type="line" smooth="yes"/>
      <point x="485" y="1065"/>
      <point x="495" y="1092"/>
      <point x="512" y="1121" type="curve" smooth="yes"/>
      <point x="563" y="1213"/>
      <point x="627" y="1260"/>
      <point x="708" y="1260" type="curve" smooth="yes"/>
      <point x="815" y="1260"/>
      <point x="868" y="1180"/>
      <point x="868" y="1020" type="curve" smooth="yes"/>
      <point x="868" y="920"/>
      <point x="840" y="753"/>
      <point x="809" y="630" type="curve" smooth="yes"/>
      <point x="800" y="594" type="line" smooth="yes"/>
      <point x="775" y="497"/>
      <point x="750" y="429"/>
      <point x="721" y="373" type="curve" smooth="yes"/>
      <point x="673" y="282"/>
      <point x="606" y="233"/>
      <point x="525" y="233" type="curve" smooth="yes"/>
    </contour>
  </outline>
</glyph>
<glyph name="Oslash" format="1">
  <advance width="1233"/>
  <unicode hex="00D8"/>
  <note>
	Oslash
  </note>
  <outline>
    <contour>
      <point x="160" y="117" type="line"/>
      <point x="235" y="22"/>
      <point x="353" y="-29"/>
      <point x="500" y="-29" type="curve" smooth="yes"/>
      <point x="716" y="-29"/>
      <point x="880" y="72"/>
      <point x="989" y="265" type="curve" smooth="yes"/>
      <point x="1022" y="325"/>
      <point x="1052" y="397"/>
      <point x="1080" y="480" type="curve" smooth="yes"/>
      <point x="1098" y="539" type="line" smooth="yes"/>
      <point x="1119" y="615"/>
      <point x="1138" y="696"/>
      <point x="1149" y="775" type="curve" smooth="yes"/>
      <point x="1160" y="855" type="line"/>
      <point x="1164" y="887" type="line" smooth="yes"/>
      <point x="1169" y="931"/>
      <point x="1171" y="976"/>
      <point x="1171" y="1022" type="curve" smooth="yes"/>
      <point x="1171" y="1070"/>
      <point x="1164" y="1144"/>
      <point x="1151" y="1217" type="curve"/>
      <point x="1356" y="1444" type="line"/>
      <point x="1217" y="1559" type="line"/>
      <point x="1063" y="1389" type="line"/>
      <point x="980" y="1476"/>
      <point x="869" y="1520"/>
      <point x="732" y="1520" type="curve" smooth="yes"/>
      <point x="629" y="1520"/>
      <point x="531" y="1494"/>
      <point x="447" y="1445" type="curve" smooth="yes"/>
      <point x="286" y="1349"/>
      <point x="175" y="1148"/>
      <point x="110" y="865" type="curve" smooth="yes"/>
      <point x="78" y="728"/>
      <point x="61" y="582"/>
      <point x="61" y="454" type="curve" smooth="yes"/>
      <point x="61" y="393"/>
      <point x="70" y="328"/>
      <point x="78" y="295" type="curve"/>
      <point x="-141" y="51" type="line"/>
      <point x="0" y="-63" type="line"/>
    </contour>
    <contour>
      <point x="379" y="629" type="line"/>
      <point x="414" y="853"/>
      <point x="457" y="1014"/>
      <point x="510" y="1113" type="curve" smooth="yes"/>
      <point x="561" y="1209"/>
      <point x="622" y="1260"/>
      <point x="706" y="1260" type="curve" smooth="yes"/>
      <point x="779" y="1260"/>
      <point x="828" y="1225"/>
      <point x="852" y="1153" type="curve"/>
    </contour>
    <contour>
      <point x="453" y="233"/>
      <point x="399" y="274"/>
      <point x="375" y="354" type="curve"/>
      <point x="858" y="889" type="line"/>
      <point x="826" y="676"/>
      <point x="784" y="509"/>
      <point x="742" y="409" type="curve" smooth="yes"/>
      <point x="700" y="309"/>
      <point x="630" y="233"/>
      <point x="525" y="233" type="curve" smooth="yes"/>
    </contour>
  </outline>
</glyph>
<glyph name="Ucircumflex" format="1">
  <advance width="1233"/>
  <unicode hex="00DB"/>
  <note>
	Ucircumflex
  </note>
  <outline>
    <contour>
      <point x="581" y="1591" type="line"/>
      <point x="811" y="1752" type="line"/>
      <point x="975" y="1591" type="line"/>
      <point x="1144" y="1591" type="line"/>
      <point x="993" y="1855" type="line"/>
      <point x="645" y="1855" type="line"/>
      <point x="401" y="1591" type="line"/>
    </contour>
    <contour>
      <point x="673" y="-29"/>
      <point x="804" y="23"/>
      <point x="908" y="123" type="curve" smooth="yes"/>
      <point x="995" y="210"/>
      <point x="1028" y="310"/>
      <point x="1051" y="394" type="curve" smooth="yes"/>
      <point x="1062" y="436"/>
      <point x="1074" y="488"/>
      <point x="1087" y="551" type="curve" smooth="yes"/>
      <point x="1272" y="1493" type="line"/>
      <point x="977" y="1493" type="line"/>
      <point x="778" y="477" type="line" smooth="yes"/>
      <point x="745" y="312"/>
      <point x="661" y="231"/>
      <point x="518" y="231" type="curve" smooth="yes"/>
      <point x="405" y="231"/>
      <point x="340" y="293"/>
      <point x="340" y="400" type="curve" smooth="yes"/>
      <point x="340" y="419"/>
      <point x="342" y="442"/>
      <point x="347" y="471" type="curve"/>
      <point x="348" y="472"/>
      <point x="348" y="474"/>
      <point x="348" y="477" type="curve"/>
      <point x="547" y="1493" type="line"/>
      <point x="252" y="1493" type="line"/>
      <point x="68" y="551" type="line"/>
      <point x="65" y="540"/>
      <point x="63" y="530"/>
      <point x="62" y="522" type="curve"/>
      <point x="58" y="499" type="line"/>
      <point x="59" y="502"/>
      <point x="57" y="491"/>
      <point x="53" y="465" type="curve"/>
      <point x="53" y="462"/>
      <point x="52" y="455"/>
      <point x="51" y="444" type="curve" smooth="yes"/>
      <point x="47" y="408"/>
      <point x="45" y="378"/>
      <point x="45" y="354" type="curve" smooth="yes"/>
      <point x="45" y="230"/>
      <point x="82" y="137"/>
      <point x="163" y="70" type="curve" smooth="yes"/>
      <point x="242" y="4"/>
      <point x="353" y="-29"/>
      <point x="497" y="-29" type="curve" smooth="yes"/>
    </contour>
  </outline>
</glyph>
<glyph name="Udieresis" format="1">
  <advance width="1233"/>
  <unicode hex="00DC"/>
  <note>
	Udieresis
  </note>
  <outline>
    <contour>
      <point x="669" y="1608" type="line" smooth="yes"/>
      <point x="688" y="1608"/>
      <point x="698" y="1617"/>
      <point x="701" y="1635" type="curve" smooth="yes"/>
      <point x="738" y="1821" type="line"/>
      <point x="738" y="1822"/>
      <point x="738" y="1823"/>
      <point x="739" y="1824" type="curve"/>
      <point x="739" y="1828" type="line" smooth="yes"/>
      <point x="739" y="1845"/>
      <point x="730" y="1854"/>
      <point x="712" y="1854" type="curve" smooth="yes"/>
      <point x="537" y="1854" type="line" smooth="yes"/>
      <point x="520" y="1854"/>
      <point x="509" y="1845"/>
      <point x="505" y="1827" type="curve" smooth="yes"/>
      <point x="467" y="1641" type="line"/>
      <point x="467" y="1639" type="line"/>
      <point x="466" y="1638"/>
      <point x="466" y="1637"/>
      <point x="466" y="1634" type="curve" smooth="yes"/>
      <point x="466" y="1617"/>
      <point x="475" y="1608"/>
      <point x="493" y="1608" type="curve" smooth="yes"/>
    </contour>
    <contour>
      <point x="1066" y="1608" type="line" smooth="yes"/>
      <point x="1085" y="1608"/>
      <point x="1095" y="1617"/>
      <point x="1098" y="1635" type="curve" smooth="yes"/>
      <point x="1134" y="1821" type="line" smooth="yes"/>
      <point x="1138" y="1841"/>
      <point x="1127" y="1854"/>
      <point x="1107" y="1854" type="curve" smooth="yes"/>
      <point x="932" y="1854" type="line" smooth="yes"/>
      <point x="914" y="1854"/>
      <point x="903" y="1845"/>
      <point x="900" y="1827" type="curve" smooth="yes"/>
      <point x="863" y="1641" type="line"/>
      <point x="863" y="1639" type="line"/>
      <point x="862" y="1638"/>
      <point x="862" y="1637"/>
      <point x="862" y="1634" type="curve" smooth="yes"/>
      <point x="862" y="1617"/>
      <point x="871" y="1608"/>
      <point x="889" y="1608" type="curve" smooth="yes"/>
    </contour>
    <contour>
      <point x="673" y="-29"/>
      <point x="804" y="23"/>
      <point x="908" y="123" type="curve" smooth="yes"/>
      <point x="995" y="210"/>
      <point x="1028" y="310"/>
      <point x="1051" y="394" type="curve" smooth="yes"/>
      <point x="1062" y="436"/>
      <point x="1074" y="488"/>
      <point x="1087" y="551" type="curve" smooth="yes"/>
      <point x="1272" y="1493" type="line"/>
      <point x="977" y="1493" type="line"/>
      <point x="778" y="477" type="line" smooth="yes"/>
      <point x="745" y="312"/>
      <point x="661" y="231"/>
      <point x="518" y="231" type="curve" smooth="yes"/>
      <point x="405" y="231"/>
      <point x="340" y="293"/>
      <point x="340" y="400" type="curve" smooth="yes"/>
      <point x="340" y="419"/>
      <point x="342" y="442"/>
      <point x="347" y="471" type="curve"/>
      <point x="348" y="472"/>
      <point x="348" y="474"/>
      <point x="348" y="477" type="curve"/>
      <point x="547" y="1493" type="line"/>
      <point x="252" y="1493" type="line"/>
      <point x="68" y="551" type="line"/>
      <point x="65" y="540"/>
      <point x="63" y="530"/>
      <point x="62" y="522" type="curve"/>
      <point x="58" y="499" type="line"/>
      <point x="59" y="502"/>
      <point x="57" y="491"/>
      <point x="53" y="465" type="curve"/>
      <point x="53" y="462"/>
      <point x="52" y="455"/>
      <point x="51" y="444" type="curve" smooth="yes"/>
      <point x="47" y="408"/>
      <point x="45" y="378"/>
      <point x="45" y="354" type="curve" smooth="yes"/>
      <point x="45" y="230"/>
      <point x="82" y="137"/>
      <point x="163" y="70" type="curve" smooth="yes"/>
      <point x="242" y="4"/>
      <point x="353" y="-29"/>
      <point x="497" y="-29" type="curve" smooth="yes"/>
    </contour>
  </outline>
</glyph>
<glyph name="Thorn" format="1">
  <advance width="1233"/>
  <unicode hex="00DE"/>
  <note>
	Thorn
  </note>
  <outline>
    <contour>
      <point x="311" y="0" type="line"/>
      <point x="375" y="332" type="line"/>
      <point x="539" y="332" type="line" smooth="yes"/>
      <point x="668" y="332"/>
      <point x="759" y="346"/>
      <point x="840" y="374" type="curve" smooth="yes"/>
      <point x="919" y="403"/>
      <point x="978" y="441"/>
      <point x="1034" y="506" type="curve" smooth="yes"/>
      <point x="1114" y="598"/>
      <point x="1165" y="761"/>
      <point x="1165" y="902" type="curve" smooth="yes"/>
      <point x="1165" y="1023"/>
      <point x="1126" y="1111"/>
      <point x="1042" y="1174" type="curve" smooth="yes"/>
      <point x="959" y="1235"/>
      <point x="839" y="1266"/>
      <point x="682" y="1266" type="curve" smooth="yes"/>
      <point x="555" y="1266" type="line"/>
      <point x="602" y="1493" type="line"/>
      <point x="307" y="1493" type="line"/>
      <point x="16" y="0" type="line"/>
    </contour>
    <contour>
      <point x="510" y="1018" type="line"/>
      <point x="631" y="1018" type="line" smooth="yes"/>
      <point x="712" y="1018"/>
      <point x="771" y="1005"/>
      <point x="806" y="980" type="curve" smooth="yes"/>
      <point x="842" y="956"/>
      <point x="858" y="915"/>
      <point x="858" y="843" type="curve" smooth="yes"/>
      <point x="858" y="672"/>
      <point x="765" y="580"/>
      <point x="569" y="580" type="curve" smooth="yes"/>
      <point x="424" y="580" type="line"/>
    </contour>
  </outline>
</glyph>
<glyph name="germandbls" format="1">
  <advance width="1233"/>
  <unicode hex="00DF"/>
  <note>
	germandbls
  </note>
  <outline>
    <contour>
      <point x="814" y="-29"/>
      <point x="930" y="8"/>
      <point x="1015" y="82" type="curve" smooth="yes"/>
      <point x="1099" y="157"/>
      <point x="1143" y="258"/>
      <point x="1143" y="374" type="curve" smooth="yes"/>
      <point x="1143" y="478"/>
      <point x="1107" y="550"/>
      <point x="1026" y="633" type="curve" smooth="yes"/>
      <point x="944" y="715" type="line" smooth="yes"/>
      <point x="875" y="784"/>
      <point x="848" y="830"/>
      <point x="848" y="875" type="curve" smooth="yes"/>
      <point x="848" y="923"/>
      <point x="878" y="969"/>
      <point x="926" y="1001" type="curve" smooth="yes"/>
      <point x="979" y="1035"/>
      <point x="1052" y="1054"/>
      <point x="1145" y="1059" type="curve"/>
      <point x="1146" y="1065" type="line"/>
      <point x="1153" y="1136"/>
      <point x="1157" y="1186"/>
      <point x="1157" y="1215" type="curve" smooth="yes"/>
      <point x="1157" y="1326"/>
      <point x="1124" y="1413"/>
      <point x="1060" y="1472" type="curve" smooth="yes"/>
      <point x="996" y="1530"/>
      <point x="898" y="1559"/>
      <point x="767" y="1559" type="curve" smooth="yes"/>
      <point x="480" y="1559"/>
      <point x="303" y="1411"/>
      <point x="248" y="1126" type="curve" smooth="yes"/>
      <point x="29" y="0" type="line"/>
      <point x="322" y="0" type="line"/>
      <point x="541" y="1122" type="line" smooth="yes"/>
      <point x="568" y="1257"/>
      <point x="645" y="1325"/>
      <point x="770" y="1325" type="curve" smooth="yes"/>
      <point x="874" y="1325"/>
      <point x="940" y="1277"/>
      <point x="940" y="1190" type="curve" smooth="yes"/>
      <point x="940" y="1174" type="line"/>
      <point x="716" y="1125"/>
      <point x="588" y="994"/>
      <point x="588" y="817" type="curve" smooth="yes"/>
      <point x="588" y="736"/>
      <point x="615" y="668"/>
      <point x="674" y="608" type="curve" smooth="yes"/>
      <point x="743" y="537" type="line"/>
      <point x="749" y="531" type="line" smooth="yes"/>
      <point x="826" y="454"/>
      <point x="860" y="400"/>
      <point x="860" y="347" type="curve" smooth="yes"/>
      <point x="860" y="310"/>
      <point x="843" y="274"/>
      <point x="808" y="247" type="curve" smooth="yes"/>
      <point x="773" y="220"/>
      <point x="727" y="207"/>
      <point x="669" y="207" type="curve" smooth="yes"/>
      <point x="598" y="207"/>
      <point x="528" y="230"/>
      <point x="455" y="270" type="curve"/>
      <point x="406" y="20" type="line"/>
      <point x="482" y="-8"/>
      <point x="581" y="-29"/>
      <point x="666" y="-29" type="curve" smooth="yes"/>
    </contour>
  </outline>
</glyph>
<glyph name="atilde" format="1">
  <advance width="1233"/>
  <unicode hex="00E3"/>
  <note>
	atilde
  </note>
  <outline>
    <contour>
      <point x="1044" y="1297"/>
      <point x="1130" y="1394"/>
      <point x="1159" y="1581" type="curve"/>
      <point x="1020" y="1581" type="line"/>
      <point x="1005" y="1498"/>
      <point x="970" y="1452"/>
      <point x="921" y="1452" type="curve" smooth="yes"/>
      <point x="901" y="1452"/>
      <point x="874" y="1463"/>
      <point x="850" y="1483" type="curve"/>
      <point x="799" y="1522" type="line" smooth="yes"/>
      <point x="728" y="1574"/>
      <point x="708" y="1583"/>
      <point x="656" y="1583" type="curve" smooth="yes"/>
      <point x="596" y="1583"/>
      <point x="540" y="1557"/>
      <point x="495" y="1506" type="curve" smooth="yes"/>
      <point x="450" y="1455"/>
      <point x="421" y="1386"/>
      <point x="408" y="1299" type="curve"/>
      <point x="547" y="1299" type="line"/>
      <point x="562" y="1380"/>
      <point x="596" y="1428"/>
      <point x="643" y="1428" type="curve" smooth="yes"/>
      <point x="667" y="1428"/>
      <point x="687" y="1416"/>
      <point x="716" y="1395" type="curve"/>
      <point x="717" y="1394"/>
      <point x="718" y="1393"/>
      <point x="718" y="1394" type="curve"/>
      <point x="721" y="1391" type="line"/>
      <point x="770" y="1354" type="line" smooth="yes"/>
      <point x="823" y="1313"/>
      <point x="864" y="1297"/>
      <point x="911" y="1297" type="curve" smooth="yes"/>
    </contour>
    <contour>
      <point x="523" y="-29"/>
      <point x="632" y="20"/>
      <point x="725" y="125" type="curve"/>
      <point x="729" y="0" type="line"/>
      <point x="991" y="0" type="line"/>
      <point x="1114" y="639" type="line"/>
      <point x="1126" y="703" type="line"/>
      <point x="1130" y="729" type="line"/>
      <point x="1134" y="756" type="line" smooth="yes"/>
      <point x="1139" y="791"/>
      <point x="1141" y="821"/>
      <point x="1141" y="848" type="curve" smooth="yes"/>
      <point x="1141" y="947"/>
      <point x="1108" y="1019"/>
      <point x="1029" y="1071" type="curve" smooth="yes"/>
      <point x="954" y="1122"/>
      <point x="846" y="1147"/>
      <point x="705" y="1147" type="curve" smooth="yes"/>
      <point x="576" y="1147"/>
      <point x="442" y="1120"/>
      <point x="295" y="1069" type="curve"/>
      <point x="248" y="819" type="line"/>
      <point x="415" y="896"/>
      <point x="541" y="932"/>
      <point x="657" y="932" type="curve" smooth="yes"/>
      <point x="784" y="932"/>
      <point x="854" y="891"/>
      <point x="854" y="815" type="curve" smooth="yes"/>
      <point x="854" y="798" type="line"/>
      <point x="852" y="786" type="line"/>
      <point x="844" y="737" type="line"/>
      <point x="651" y="737" type="line" smooth="yes"/>
      <point x="456" y="737"/>
      <point x="306" y="699"/>
      <point x="203" y="624" type="curve" smooth="yes"/>
      <point x="100" y="548"/>
      <point x="47" y="437"/>
      <point x="47" y="300" type="curve" smooth="yes"/>
      <point x="47" y="195"/>
      <point x="76" y="115"/>
      <point x="135" y="58" type="curve" smooth="yes"/>
      <point x="193" y="0"/>
      <point x="274" y="-29"/>
      <point x="379" y="-29" type="curve" smooth="yes"/>
    </contour>
    <contour>
      <point x="453" y="172"/>
      <point x="421" y="185"/>
      <point x="393" y="213" type="curve" smooth="yes"/>
      <point x="365" y="241"/>
      <point x="352" y="274"/>
      <point x="352" y="321" type="curve" smooth="yes"/>
      <point x="352" y="461"/>
      <point x="459" y="530"/>
      <point x="690" y="530" type="curve" smooth="yes"/>
      <point x="803" y="530" type="line"/>
      <point x="785" y="417"/>
      <point x="749" y="328"/>
      <point x="694" y="265" type="curve" smooth="yes"/>
      <point x="642" y="204"/>
      <point x="574" y="172"/>
      <point x="501" y="172" type="curve" smooth="yes"/>
    </contour>
  </outline>
</glyph>
<glyph name="adieresis" format="1">
  <advance width="1233"/>
  <unicode hex="00E4"/>
  <note>
	adieresis
  </note>
  <outline>
    <contour>
      <point x="655" y="1347" type="line" smooth="yes"/>
      <point x="674" y="1347"/>
      <point x="684" y="1356"/>
      <point x="687" y="1374" type="curve" smooth="yes"/>
      <point x="724" y="1560" type="line"/>
      <point x="725" y="1561"/>
      <point x="725" y="1564"/>
      <point x="725" y="1569" type="curve" smooth="yes"/>
      <point x="725" y="1585"/>
      <point x="716" y="1593"/>
      <point x="698" y="1593" type="curve" smooth="yes"/>
      <point x="521" y="1593" type="line" smooth="yes"/>
      <point x="503" y="1593"/>
      <point x="492" y="1584"/>
      <point x="489" y="1566" type="curve" smooth="yes"/>
      <point x="453" y="1380" type="line" smooth="yes"/>
      <point x="449" y="1360"/>
      <point x="460" y="1347"/>
      <point x="480" y="1347" type="curve" smooth="yes"/>
    </contour>
    <contour>
      <point x="1051" y="1347" type="line" smooth="yes"/>
      <point x="1070" y="1347"/>
      <point x="1080" y="1356"/>
      <point x="1083" y="1374" type="curve" smooth="yes"/>
      <point x="1120" y="1560" type="line"/>
      <point x="1121" y="1561"/>
      <point x="1121" y="1564"/>
      <point x="1121" y="1569" type="curve" smooth="yes"/>
      <point x="1121" y="1585"/>
      <point x="1112" y="1593"/>
      <point x="1094" y="1593" type="curve" smooth="yes"/>
      <point x="916" y="1593" type="line" smooth="yes"/>
      <point x="898" y="1593"/>
      <point x="887" y="1584"/>
      <point x="884" y="1566" type="curve" smooth="yes"/>
      <point x="848" y="1380" type="line" smooth="yes"/>
      <point x="844" y="1360"/>
      <point x="855" y="1347"/>
      <point x="875" y="1347" type="curve" smooth="yes"/>
    </contour>
    <contour>
      <point x="523" y="-29"/>
      <point x="632" y="20"/>
      <point x="725" y="125" type="curve"/>
      <point x="729" y="0" type="line"/>
      <point x="991" y="0" type="line"/>
      <point x="1114" y="639" type="line" smooth="yes"/>
      <point x="1131" y="719"/>
      <point x="1141" y="796"/>
      <point x="1141" y="845" type="curve" smooth="yes"/>
      <point x="1141" y="945"/>
      <point x="1106" y="1019"/>
      <point x="1029" y="1071" type="curve" smooth="yes"/>
      <point x="954" y="1122"/>
      <point x="846" y="1147"/>
      <point x="705" y="1147" type="curve" smooth="yes"/>
      <point x="576" y="1147"/>
      <point x="442" y="1120"/>
      <point x="295" y="1069" type="curve"/>
      <point x="248" y="819" type="line"/>
      <point x="415" y="896"/>
      <point x="541" y="932"/>
      <point x="657" y="932" type="curve" smooth="yes"/>
      <point x="784" y="932"/>
      <point x="854" y="891"/>
      <point x="854" y="815" type="curve" smooth="yes"/>
      <point x="854" y="798" type="line"/>
      <point x="852" y="786" type="line"/>
      <point x="844" y="737" type="line"/>
      <point x="651" y="737" type="line" smooth="yes"/>
      <point x="456" y="737"/>
      <point x="306" y="699"/>
      <point x="203" y="624" type="curve" smooth="yes"/>
      <point x="100" y="548"/>
      <point x="47" y="437"/>
      <point x="47" y="300" type="curve" smooth="yes"/>
      <point x="47" y="195"/>
      <point x="76" y="115"/>
      <point x="135" y="58" type="curve" smooth="yes"/>
      <point x="193" y="0"/>
      <point x="274" y="-29"/>
      <point x="379" y="-29" type="curve" smooth="yes"/>
    </contour>
    <contour>
      <point x="453" y="172"/>
      <point x="421" y="185"/>
      <point x="393" y="213" type="curve" smooth="yes"/>
      <point x="365" y="241"/>
      <point x="352" y="274"/>
      <point x="352" y="321" type="curve" smooth="yes"/>
      <point x="352" y="461"/>
      <point x="459" y="530"/>
      <point x="690" y="530" type="curve" smooth="yes"/>
      <point x="803" y="530" type="line"/>
      <point x="785" y="417"/>
      <point x="749" y="328"/>
      <point x="694" y="265" type="curve" smooth="yes"/>
      <point x="642" y="204"/>
      <point x="574" y="172"/>
      <point x="501" y="172" type="curve" smooth="yes"/>
    </contour>
  </outline>
</glyph>
<glyph name="ae" format="1">
  <advance width="1233"/>
  <unicode hex="00E6"/>
  <note>
	ae
  </note>
  <outline>
    <contour>
      <point x="307" y="-29"/>
      <point x="358" y="-16"/>
      <point x="409" y="12" type="curve" smooth="yes"/>
      <point x="458" y="39"/>
      <point x="502" y="80"/>
      <point x="543" y="135" type="curve"/>
      <point x="564" y="83"/>
      <point x="597" y="43"/>
      <point x="642" y="14" type="curve" smooth="yes"/>
      <point x="690" y="-15"/>
      <point x="738" y="-29"/>
      <point x="806" y="-29" type="curve" smooth="yes"/>
      <point x="909" y="-29"/>
      <point x="1001" y="-2"/>
      <point x="1077" y="51" type="curve"/>
      <point x="1124" y="289" type="line"/>
      <point x="1041" y="222"/>
      <point x="936" y="180"/>
      <point x="867" y="180" type="curve" smooth="yes"/>
      <point x="820" y="180"/>
      <point x="782" y="196"/>
      <point x="754" y="227" type="curve" smooth="yes"/>
      <point x="726" y="256"/>
      <point x="711" y="302"/>
      <point x="711" y="357" type="curve" smooth="yes"/>
      <point x="711" y="381"/>
      <point x="712" y="396"/>
      <point x="725" y="477" type="curve"/>
      <point x="1176" y="477" type="line"/>
      <point x="1198" y="606" type="line" smooth="yes"/>
      <point x="1201" y="621"/>
      <point x="1202" y="631"/>
      <point x="1203" y="634" type="curve"/>
      <point x="1208" y="662" type="line" smooth="yes"/>
      <point x="1217" y="715"/>
      <point x="1231" y="820"/>
      <point x="1231" y="873" type="curve" smooth="yes"/>
      <point x="1231" y="1050"/>
      <point x="1138" y="1147"/>
      <point x="970" y="1147" type="curve" smooth="yes"/>
      <point x="859" y="1147"/>
      <point x="767" y="1103"/>
      <point x="694" y="1014" type="curve"/>
      <point x="661" y="1098"/>
      <point x="580" y="1147"/>
      <point x="469" y="1147" type="curve" smooth="yes"/>
      <point x="377" y="1147"/>
      <point x="279" y="1121"/>
      <point x="178" y="1069" type="curve"/>
      <point x="131" y="831" type="line"/>
      <point x="168" y="854"/>
      <point x="249" y="895"/>
      <point x="313" y="916" type="curve" smooth="yes"/>
      <point x="345" y="927"/>
      <point x="377" y="932"/>
      <point x="409" y="932" type="curve" smooth="yes"/>
      <point x="493" y="932"/>
      <point x="541" y="892"/>
      <point x="541" y="800" type="curve" smooth="yes"/>
      <point x="541" y="791" type="line" smooth="yes"/>
      <point x="541" y="784"/>
      <point x="541" y="780"/>
      <point x="540" y="778" type="curve" smooth="yes"/>
      <point x="539" y="776"/>
      <point x="539" y="773"/>
      <point x="539" y="770" type="curve"/>
      <point x="535" y="748" type="line"/>
      <point x="524" y="690" type="line"/>
      <point x="416" y="690" type="line" smooth="yes"/>
      <point x="281" y="690"/>
      <point x="172" y="651"/>
      <point x="91" y="573" type="curve" smooth="yes"/>
      <point x="10" y="493"/>
      <point x="-31" y="391"/>
      <point x="-31" y="267" type="curve" smooth="yes"/>
      <point x="-31" y="171"/>
      <point x="-7" y="103"/>
      <point x="44" y="50" type="curve" smooth="yes"/>
      <point x="94" y="-3"/>
      <point x="161" y="-29"/>
      <point x="246" y="-29" type="curve" smooth="yes"/>
    </contour>
    <contour>
      <point x="780" y="760" type="line" smooth="yes"/>
      <point x="789" y="805"/>
      <point x="811" y="869"/>
      <point x="848" y="905" type="curve" smooth="yes"/>
      <point x="866" y="923"/>
      <point x="892" y="932"/>
      <point x="926" y="932" type="curve" smooth="yes"/>
      <point x="985" y="932"/>
      <point x="1010" y="902"/>
      <point x="1010" y="834" type="curve" smooth="yes"/>
      <point x="1010" y="809" type="line" smooth="yes"/>
      <point x="1010" y="789"/>
      <point x="1010" y="778"/>
      <point x="1003" y="755" type="curve"/>
      <point x="991" y="688" type="line"/>
      <point x="766" y="688" type="line"/>
    </contour>
    <contour>
      <point x="229" y="180"/>
      <point x="188" y="224"/>
      <point x="188" y="293" type="curve" smooth="yes"/>
      <point x="188" y="345"/>
      <point x="208" y="393"/>
      <point x="247" y="428" type="curve" smooth="yes"/>
      <point x="286" y="462"/>
      <point x="338" y="479"/>
      <point x="403" y="479" type="curve" smooth="yes"/>
      <point x="477" y="479" type="line"/>
      <point x="463" y="401" type="line" smooth="yes"/>
      <point x="435" y="246"/>
      <point x="384" y="180"/>
      <point x="296" y="180" type="curve" smooth="yes"/>
    </contour>
  </outline>
</glyph>
